<svg width="50" height="54" viewBox="0 0 50 54" fill="none" xmlns="http://www.w3.org/2000/svg">
<rect width="50" height="54" rx="5" fill="#1A1A1A"/>
<path d="M16.5782 12.0026C17.659 11.9798 18.7383 12.1058 19.7925 12.3778C20.68 12.598 21.5227 13.008 22.2757 13.5857C22.9712 14.1602 23.5215 14.9326 23.8713 15.8253C24.2734 16.923 24.4673 18.1047 24.4406 19.2934C24.4862 20.5986 24.193 21.8902 23.5974 23.0072C22.9708 24.0623 22.1048 24.9048 21.091 25.4456C22.4667 25.8672 23.665 26.8329 24.4703 28.1691C25.2433 29.5849 25.6319 31.2284 25.5873 32.8939C25.6128 34.2219 25.3713 35.5389 24.8811 36.7447C24.428 37.7965 23.7646 38.7132 22.944 39.4213C22.0991 40.1216 21.1484 40.6398 20.139 40.95C19.0922 41.2792 18.0108 41.4445 16.9247 41.4414H5V12.0026H16.5782ZM15.8902 23.9094C16.7393 23.9492 17.5753 23.6602 18.2612 23.0898C18.5897 22.7573 18.8453 22.3421 19.0074 21.8774C19.1696 21.4126 19.2339 20.9112 19.1951 20.4132C19.2171 19.8315 19.1152 19.2524 18.8981 18.7251C18.714 18.3052 18.4276 17.9543 18.0731 17.7141C17.7141 17.4496 17.3107 17.2727 16.8884 17.1945C16.4303 17.0936 15.964 17.0477 15.4974 17.0576H10.4022V23.9357H15.8902V23.9094ZM16.1872 36.4427C16.7007 36.4506 17.2132 36.3876 17.7134 36.2552C18.1705 36.1404 18.6041 35.9271 18.9905 35.6268C19.3692 35.3267 19.675 34.9228 19.8799 34.4526C20.1174 33.8531 20.2266 33.1981 20.1984 32.5413C20.2499 31.9428 20.1801 31.3389 19.9945 30.7757C19.8089 30.2126 19.5123 29.7053 19.1275 29.2926C18.3119 28.6098 17.3124 28.2715 16.301 28.336H10.4022V36.4427H16.1872Z" fill="#F7F7F7"/>
<path d="M33.2814 36.3341C33.7054 36.7809 34.2049 37.125 34.7495 37.3456C35.2941 37.5661 35.8725 37.6585 36.4494 37.6171C37.3641 37.6434 38.2611 37.327 39.002 36.7168C39.6048 36.2712 40.0613 35.6119 40.3006 34.8411H44.6088C44.1498 37.0353 43.0288 38.9773 41.4408 40.3293C39.9173 41.4788 38.117 42.0609 36.2894 41.9949C34.985 42.0144 33.6905 41.7357 32.4828 41.1753C31.3903 40.6573 30.4104 39.8745 29.6118 38.8813C28.8161 37.8407 28.2048 36.635 27.8116 35.3307C27.3702 33.8727 27.1541 32.3389 27.173 30.7971C27.165 29.2813 27.3883 27.7753 27.833 26.3462C28.4305 24.3356 29.5729 22.592 31.0963 21.3654C32.6197 20.1388 34.4458 19.4923 36.3125 19.5187C37.6907 19.4859 39.0535 19.8526 40.2726 20.5841C41.3745 21.271 42.3251 22.2329 43.0528 23.3976C43.7973 24.6197 44.3309 25.9913 44.6253 27.4397C44.9482 28.9949 45.0633 30.5966 44.9669 32.1908H32.1346C32.0307 33.6886 32.4417 35.1738 33.2814 36.3341ZM38.9113 25.1382C38.5522 24.7299 38.1203 24.4139 37.6447 24.2113C37.1691 24.0088 36.6608 23.9245 36.1541 23.964C35.4819 23.9349 34.8145 24.1042 34.217 24.4555C33.7433 24.7519 33.3251 25.1508 32.986 25.6297C32.6856 26.0786 32.4617 26.5876 32.326 27.1302C32.2038 27.5828 32.1274 28.0497 32.0983 28.522H40.0465C39.9772 27.2909 39.5827 26.1122 38.9146 25.1401L38.9113 25.1382Z" fill="#F7F7F7"/>
<path d="M41.0333 13.9684H31.0737V16.8626H41.0333V13.9684Z" fill="#F7F7F7"/>
</svg>
