<svg width="70" height="70" viewBox="0 0 70 70" fill="none" xmlns="http://www.w3.org/2000/svg">
<path d="M31.9446 2.04234C33.6579 1.05319 35.7687 1.05319 37.482 2.04234L61.9053 16.1432C63.6186 17.1323 64.674 18.9603 64.674 20.9386V49.1403C64.674 51.1186 63.6186 52.9466 61.9053 53.9358L37.482 68.0366C35.7687 69.0258 33.6579 69.0258 31.9446 68.0366L7.52128 53.9358C5.80803 52.9466 4.75261 51.1186 4.75261 49.1403V20.9386C4.75261 18.9604 5.80802 17.1323 7.52127 16.1432L31.9446 2.04234Z" stroke="url(#paint0_linear_663_97)" stroke-opacity="0.3" stroke-width="1.10747"/>
<path d="M32.7863 12.073C33.9788 11.3846 35.4479 11.3846 36.6403 12.073L53.639 21.8872C54.8314 22.5756 55.566 23.8479 55.566 25.2248V44.8532C55.566 46.2301 54.8314 47.5024 53.639 48.1908L36.6403 58.005C35.4479 58.6935 33.9788 58.6935 32.7863 58.005L15.7877 48.1908C14.5952 47.5024 13.8607 46.2301 13.8607 44.8532V25.2248C13.8607 23.8479 14.5952 22.5756 15.7877 21.8872L32.7863 12.073Z" fill="url(#paint1_linear_663_97)" fill-opacity="0.2"/>
<g clip-path="url(#clip0_663_97)">
<path fill-rule="evenodd" clip-rule="evenodd" d="M26.7845 23.7383C25.2363 23.7383 24.0915 25.0933 24.1434 26.5613C24.192 27.974 24.1288 29.8014 23.6688 31.292C23.2054 32.7861 22.4257 33.7331 21.1509 33.8552V35.2283C22.4257 35.3492 23.2066 36.2962 23.6677 37.7914C24.1288 39.282 24.192 41.1094 24.1423 42.5209C24.0915 43.9901 25.2363 45.3451 26.7845 45.3451H42.6424C44.1907 45.3451 45.3355 43.9901 45.2835 42.5209C45.235 41.1094 45.2982 39.282 45.7582 37.7914C46.2204 36.2962 46.9991 35.3503 48.2739 35.2283V33.8552C46.9991 33.7331 46.2204 32.7861 45.7582 31.292C45.2982 29.8003 45.235 27.9729 45.2835 26.5613C45.3355 25.0922 44.1896 23.7383 42.6424 23.7383H26.7845ZM39.538 37.0387C39.538 39.0616 38.0293 40.2878 35.5261 40.2878H31.2644C31.1424 40.2878 31.0254 40.2394 30.9391 40.1531C30.8529 40.0668 30.8044 39.9498 30.8044 39.8279V29.2544C30.8047 29.1326 30.8533 29.0159 30.9395 28.9299C31.0257 28.8439 31.1426 28.7956 31.2644 28.7956H35.5023C37.5897 28.7956 38.9605 29.9257 38.9605 31.6627C38.9605 32.881 38.0383 33.9716 36.8641 34.1637V34.227C38.4632 34.4021 39.5391 35.5097 39.5391 37.0387H39.538ZM35.0627 30.2523H32.6329V33.6856H34.6796C36.2618 33.6856 37.1342 33.0482 37.1342 31.9091C37.1342 30.8422 36.3838 30.2523 35.0627 30.2523ZM32.6329 35.0474V38.83H35.1531C36.7997 38.83 37.6733 38.1688 37.6733 36.9268C37.6733 35.6837 36.776 35.0474 35.0469 35.0474H32.6329Z" fill="#7952B3"/>
</g>
<defs>
<linearGradient id="paint0_linear_663_97" x1="0.117676" y1="0.443848" x2="69.3089" y2="69.6351" gradientUnits="userSpaceOnUse">
<stop stop-color="white"/>
<stop offset="0.765625" stop-color="white" stop-opacity="0"/>
</linearGradient>
<linearGradient id="paint1_linear_663_97" x1="10.6348" y1="10.9604" x2="58.7919" y2="59.1176" gradientUnits="userSpaceOnUse">
<stop stop-color="white"/>
<stop offset="0.828125" stop-color="white" stop-opacity="0"/>
</linearGradient>
<clipPath id="clip0_663_97">
<rect width="27.123" height="27.123" fill="white" transform="translate(21.1519 21.478)"/>
</clipPath>
</defs>
</svg>
