<svg width="50" height="54" viewBox="0 0 50 54" fill="none" xmlns="http://www.w3.org/2000/svg">
<rect width="50" height="54" rx="5" fill="#1A1A1A"/>
<path fill-rule="evenodd" clip-rule="evenodd" d="M24.0842 7.31625C24.6383 6.89458 25.3602 6.89458 25.9158 7.31625L41.7592 19.333C42.2215 19.683 42.5 20.2747 42.5 20.9097V33.0899C42.5 33.7232 42.2229 34.3165 41.7592 34.6682L25.9158 46.685C25.3617 47.105 24.6398 47.105 24.0842 46.685L8.24083 34.6665C8.01317 34.4939 7.82638 34.2596 7.69713 33.9845C7.56787 33.7095 7.50015 33.4021 7.5 33.0899V20.9097C7.5 20.2764 7.77708 19.683 8.24083 19.3314L24.0842 7.31625ZM10.8133 24.4381V29.5348L14.15 26.9681L10.8133 24.4381V24.4381ZM17.1381 29.2348L12.1375 33.0799L23.3433 41.5799V33.9415L17.1396 29.2348H17.1381ZM26.6567 33.9415V41.5783L37.8625 33.0782L32.8604 29.2348L26.6567 33.9415V33.9415ZM35.8485 26.9698L39.1881 29.5365V24.4364L35.8485 26.9698V26.9698ZM37.8479 20.9097L32.875 24.6814L26.6567 19.9014V12.4213L37.8479 20.9097ZM23.3433 12.4213V19.8997L17.1265 24.6798L12.1521 20.9097L23.3433 12.4213V12.4213ZM25 23.1914L20.1146 26.9481L25 30.6532L29.8854 26.9481L25 23.1914Z" fill="#F7F7F7"/>
</svg>
