<svg width="70" height="70" viewBox="0 0 70 70" fill="none" xmlns="http://www.w3.org/2000/svg">
<path d="M32.1663 2.31822C33.8796 1.32907 35.9904 1.32907 37.7037 2.31821L62.127 16.4191C63.8403 17.4082 64.8957 19.2362 64.8957 21.2145V49.4162C64.8957 51.3945 63.8403 53.2225 62.127 54.2117L37.7037 68.3125C35.9904 69.3017 33.8796 69.3017 32.1663 68.3125L7.74296 54.2117C6.02971 53.2225 4.97429 51.3945 4.97429 49.4162V21.2145C4.97429 19.2362 6.0297 17.4082 7.74295 16.4191L32.1663 2.31822Z" stroke="url(#paint0_linear_666_80)" stroke-opacity="0.3" stroke-width="1.10747"/>
<path d="M33.5617 12.9031C34.7542 12.2146 36.2233 12.2146 37.4157 12.9031L54.4144 22.7173C55.6068 23.4057 56.3414 24.678 56.3414 26.0549V45.6833C56.3414 47.0602 55.6068 48.3325 54.4144 49.0209L37.4157 58.8351C36.2233 59.5235 34.7542 59.5236 33.5617 58.8351L16.5631 49.0209C15.3706 48.3325 14.6361 47.0602 14.6361 45.6833V26.0549C14.6361 24.678 15.3706 23.4057 16.5631 22.7173L33.5617 12.9031Z" fill="url(#paint1_linear_666_80)" fill-opacity="0.2"/>
<path d="M24.334 42.6625C23.2866 42.6625 22.3344 41.8114 22.3344 40.771C22.3344 39.7306 23.1914 38.8794 24.334 38.8794C25.4765 38.8794 26.3334 39.7306 26.3334 40.771C26.3334 41.8114 25.3813 42.6625 24.334 42.6625ZM48.8992 32.3536C48.7087 30.8403 47.7566 29.6108 46.5189 28.665L46.0427 28.2866L45.6619 28.7596C44.9001 29.6108 44.6145 31.1241 44.7098 32.2589C44.8049 33.1101 45.0906 33.9614 45.5666 34.6234C45.1858 34.8126 44.7098 35.0017 44.3289 35.1909C43.4719 35.4746 42.6151 35.5692 41.7581 35.5692H17.0977L17.0024 36.1366C16.812 37.9336 17.0977 39.8252 17.8594 41.5276L18.2402 42.1897V42.2842C20.5254 46.0673 24.6196 47.7697 29.0946 47.7697C37.6639 47.7697 44.7098 44.0812 48.0422 36.1366C50.2321 36.2312 52.4221 35.6637 53.4695 33.5831L53.7551 33.1101L53.279 32.8264C52.0412 32.0698 50.3274 31.9752 48.8992 32.3536ZM36.6166 30.8403H32.9031V34.5288H36.6166V30.8403ZM36.6166 26.2059H32.9031V29.8945H36.6166V26.2059ZM36.6166 21.4771H32.9031V25.1656H36.6166V21.4771ZM41.1868 30.8403H37.4734V34.5288H41.1868V30.8403ZM27.3808 30.8403H23.6675V34.5288H27.3808V30.8403ZM32.0463 30.8403H28.3329V34.5288H32.0463V30.8403ZM22.8105 30.8403H19.0972V34.5288H22.8105V30.8403ZM32.0463 26.2059H28.3329V29.8945H32.0463V26.2059ZM27.3808 26.2059H23.6675V29.8945H27.3808V26.2059Z" fill="#0087C9"/>
<defs>
<linearGradient id="paint0_linear_666_80" x1="0.339355" y1="0.719727" x2="69.5306" y2="69.911" gradientUnits="userSpaceOnUse">
<stop stop-color="white"/>
<stop offset="0.765625" stop-color="white" stop-opacity="0"/>
</linearGradient>
<linearGradient id="paint1_linear_666_80" x1="11.4102" y1="11.7905" x2="59.5673" y2="59.9477" gradientUnits="userSpaceOnUse">
<stop stop-color="white"/>
<stop offset="0.828125" stop-color="white" stop-opacity="0"/>
</linearGradient>
</defs>
</svg>
