<?xml version="1.0" encoding="UTF-8" standalone="no"?><!-- Generator: Gravit.io --><svg xmlns="http://www.w3.org/2000/svg" xmlns:xlink="http://www.w3.org/1999/xlink" style="isolation:isolate" viewBox="0 0 70 70" width="70pt" height="70pt"><defs><clipPath id="_clipPath_r6nEfiidf3sbFIzbrb2soQT9l1CB4n37"><rect width="70" height="70"/></clipPath></defs><g clip-path="url(#_clipPath_r6nEfiidf3sbFIzbrb2soQT9l1CB4n37)"><linearGradient id="_lgradient_4" x1="-0.07735018629398302" y1="-0.01269494078609076" x2="1.0146102584468772" y2="1.0792654881730006"><stop offset="0%" stop-opacity="1" style="stop-color:rgb(255,255,255)"/><stop offset="76.5625%" stop-opacity="0" style="stop-color:rgb(255,255,255)"/></linearGradient><path d=" M 31.95 2.042 C 33.663 1.053 35.774 1.053 37.487 2.042 L 61.911 16.143 C 63.624 17.132 64.679 18.96 64.679 20.939 L 64.679 49.14 C 64.679 51.119 63.624 52.947 61.911 53.936 L 37.487 68.037 C 35.774 69.026 33.663 69.026 31.95 68.037 L 7.527 53.936 C 5.813 52.947 4.758 51.119 4.758 49.14 L 4.758 20.939 C 4.758 18.96 5.813 17.132 7.527 16.143 L 31.95 2.042 L 31.95 2.042 Z " fill="none" vector-effect="non-scaling-stroke" stroke-width="1.107" stroke="url(#_lgradient_4)" stroke-opacity="0.3" stroke-linejoin="miter" stroke-linecap="butt" stroke-miterlimit="4"/><linearGradient id="_lgradient_5" x1="-0.07735246444088506" y1="-0.01269677688603188" x2="1.0146118522631036" y2="1.0792675398179572" gradientTransform="matrix(41.705,0,0,46.965,13.866,11.557)" gradientUnits="userSpaceOnUse"><stop offset="0%" stop-opacity="1" style="stop-color:rgb(255,255,255)"/><stop offset="82.8125%" stop-opacity="0" style="stop-color:rgb(255,255,255)"/></linearGradient><path d=" M 32.792 12.073 C 33.984 11.385 35.453 11.385 36.646 12.073 L 53.644 21.887 C 54.837 22.576 55.571 23.848 55.571 25.225 L 55.571 44.853 C 55.571 46.23 54.837 47.502 53.644 48.191 L 36.646 58.005 C 35.453 58.694 33.984 58.694 32.792 58.005 L 15.793 48.191 C 14.601 47.502 13.866 46.23 13.866 44.853 L 13.866 25.225 C 13.866 23.848 14.601 22.576 15.793 21.887 L 32.792 12.073 L 32.792 12.073 Z " fill="url(#_lgradient_5)" fill-opacity="0.2"/><path d=" M 50.933 42.895 C 49.754 43.159 49.024 42.906 48.37 42.04 C 46.9 40.1 45.279 38.249 43.714 36.363 C 43.512 36.119 43.302 35.88 43.041 35.577 C 41.189 37.779 39.34 39.876 37.604 42.058 C 36.983 42.838 36.331 43.178 35.173 42.902 L 42.136 34.665 L 35.654 27.225 C 36.769 27.034 37.539 27.132 38.222 28.012 C 39.73 29.954 41.394 31.803 43.052 33.759 C 44.72 31.81 46.362 29.959 47.914 28.035 C 48.538 27.255 49.208 26.959 50.328 27.246 C 49.479 28.238 48.649 29.213 47.814 30.182 C 46.686 31.489 45.579 32.811 44.41 34.09 C 43.993 34.546 44.06 34.842 44.433 35.273 C 46.595 37.779 48.732 40.31 50.933 42.895 Z  M 18.512 34.528 C 18.698 33.705 18.823 32.866 19.081 32.059 C 20.633 27.173 26.996 25.141 31.368 28.169 C 33.928 29.945 34.565 32.449 34.438 35.271 L 20.005 35.271 C 19.787 40.335 23.923 43.392 29.195 41.833 C 31.044 41.285 32.133 40.009 32.679 38.413 C 32.956 37.612 33.414 37.487 34.267 37.715 C 33.83 39.712 32.84 41.381 30.77 42.425 C 27.666 43.989 23.235 43.483 20.905 41.31 C 19.529 40.034 18.944 38.445 18.685 36.728 C 18.647 36.454 18.566 36.185 18.504 35.914 Q 18.512 35.221 18.512 34.528 Z  M 20.03 34.188 L 33.075 34.188 C 32.99 30.527 30.403 27.925 26.867 27.902 C 22.987 27.875 20.199 30.415 20.03 34.188 Z " fill="rgb(0,0,0)"/></g></svg>