<svg width="70" height="71" viewBox="0 0 70 71" fill="none" xmlns="http://www.w3.org/2000/svg">
<path d="M32.3651 2.45738C34.0783 1.46823 36.1891 1.46823 37.9024 2.45738L62.3258 16.5582C64.039 17.5474 65.0944 19.3754 65.0944 21.3537V49.5554C65.0944 51.5337 64.039 53.3617 62.3258 54.3508L37.9024 68.4517C36.1891 69.4408 34.0783 69.4408 32.3651 68.4517L7.94169 54.3508C6.22844 53.3617 5.17302 51.5337 5.17302 49.5554V21.3537C5.17302 19.3754 6.22843 17.5474 7.94168 16.5582L32.3651 2.45738Z" stroke="url(#paint0_linear_663_127)" stroke-opacity="0.3" stroke-width="1.10747"/>
<path d="M33.2067 12.488C34.3992 11.7996 35.8683 11.7996 37.0607 12.488L54.0594 22.3022C55.2518 22.9907 55.9864 24.263 55.9864 25.6399V45.2682C55.9864 46.6451 55.2518 47.9174 54.0594 48.6059L37.0607 58.4201C35.8683 59.1085 34.3992 59.1085 33.2067 58.4201L16.2081 48.6059C15.0157 47.9174 14.2811 46.6451 14.2811 45.2682V25.6399C14.2811 24.263 15.0157 22.9907 16.2081 22.3022L33.2067 12.488Z" fill="url(#paint1_linear_663_127)" fill-opacity="0.2"/>
<g clip-path="url(#clip0_663_127)">
<path d="M39.4688 39.7906C41.8635 39.7906 43.8048 37.8493 43.8048 35.4546C43.8048 33.0599 41.8635 31.1187 39.4688 31.1187C37.0741 31.1187 35.1328 33.0599 35.1328 35.4546C35.1328 37.8493 37.0741 39.7906 39.4688 39.7906Z" fill="#19BCFE"/>
<path fill-rule="evenodd" clip-rule="evenodd" d="M30.7974 48.463C31.9474 48.463 33.0503 48.0062 33.8634 47.193C34.6766 46.3799 35.1334 45.277 35.1334 44.127V39.791H30.7974C29.6474 39.791 28.5446 40.2478 27.7314 41.061C26.9183 41.8742 26.4614 42.977 26.4614 44.127C26.4614 45.277 26.9183 46.3799 27.7314 47.193C28.5446 48.0062 29.6474 48.463 30.7974 48.463Z" fill="#09CF83"/>
<path fill-rule="evenodd" clip-rule="evenodd" d="M30.7974 39.7906H35.1334V31.1187H30.7974C29.6474 31.1187 28.5446 31.5755 27.7314 32.3886C26.9183 33.2018 26.4614 34.3047 26.4614 35.4546C26.4614 36.6046 26.9183 37.7075 27.7314 38.5206C28.5446 39.3338 29.6474 39.7906 30.7974 39.7906Z" fill="#A259FF"/>
<path fill-rule="evenodd" clip-rule="evenodd" d="M30.7974 31.1192H35.1334V22.4473H30.7974C29.6474 22.4473 28.5446 22.9041 27.7314 23.7172C26.9183 24.5304 26.4614 25.6333 26.4614 26.7833C26.4614 27.9332 26.9183 29.0361 27.7314 29.8493C28.5446 30.6624 29.6474 31.1192 30.7974 31.1192Z" fill="#F24E1E"/>
<path fill-rule="evenodd" clip-rule="evenodd" d="M39.4688 31.1192H35.1328V22.4473H39.4688C40.6188 22.4473 41.7216 22.9041 42.5348 23.7172C43.348 24.5304 43.8048 25.6333 43.8048 26.7833C43.8048 27.9332 43.348 29.0361 42.5348 29.8493C41.7216 30.6624 40.6188 31.1192 39.4688 31.1192Z" fill="#FF7262"/>
</g>
<defs>
<linearGradient id="paint0_linear_663_127" x1="0.538086" y1="0.858887" x2="69.7294" y2="70.0502" gradientUnits="userSpaceOnUse">
<stop stop-color="white"/>
<stop offset="0.765625" stop-color="white" stop-opacity="0"/>
</linearGradient>
<linearGradient id="paint1_linear_663_127" x1="11.0552" y1="11.3755" x2="59.2123" y2="59.5326" gradientUnits="userSpaceOnUse">
<stop stop-color="white"/>
<stop offset="0.828125" stop-color="white" stop-opacity="0"/>
</linearGradient>
<clipPath id="clip0_663_127">
<rect width="26.0159" height="26.0159" fill="white" transform="translate(22.126 22.4463)"/>
</clipPath>
</defs>
</svg>
