<?xml version="1.0" standalone="no"?>
<!DOCTYPE svg PUBLIC "-//W3C//DTD SVG 20010904//EN"
 "http://www.w3.org/TR/2001/REC-SVG-20010904/DTD/svg10.dtd">
<svg version="1.0" xmlns="http://www.w3.org/2000/svg"
 width="105.000000pt" height="105.000000pt" viewBox="0 0 105.000000 105.000000"
 preserveAspectRatio="xMidYMid meet">

<g transform="translate(0.000000,105.000000) scale(0.100000,-0.100000)"
fill="#000000" stroke="none">
<path d="M285 922 c-132 -78 -204 -125 -212 -142 -9 -18 -13 -90 -13 -257 l0
-233 28 -29 c39 -42 397 -244 432 -244 36 0 393 201 433 244 l27 29 0 233 c0
167 -4 239 -13 257 -19 38 -401 258 -447 258 -27 0 -83 -28 -235 -116z m458
-13 c105 -61 198 -118 205 -127 9 -12 12 -78 12 -253 0 -211 -2 -239 -17 -257
-22 -26 -379 -232 -413 -238 -19 -4 -73 22 -220 106 -107 61 -203 120 -213
132 -15 18 -17 46 -17 257 0 130 4 242 9 250 5 8 96 65 203 127 134 79 203
113 226 113 24 1 83 -28 225 -110z"/>
<path d="M375 804 c-71 -42 -138 -83 -147 -91 -16 -14 -18 -37 -18 -183 0
-118 4 -171 13 -182 20 -25 273 -168 298 -168 30 0 285 146 304 173 12 17 15
56 15 178 0 135 -2 160 -17 177 -23 26 -279 172 -301 172 -10 0 -75 -34 -147
-76z m66 -86 l31 -62 14 32 c7 18 15 32 18 32 3 0 15 -19 27 -42 12 -24 23
-45 25 -47 3 -3 20 10 38 28 l34 33 11 -53 c6 -30 15 -83 21 -119 6 -36 13
-75 15 -87 4 -18 -7 -29 -70 -67 -42 -25 -84 -46 -94 -46 -17 0 -144 68 -162
87 -4 4 6 87 22 183 15 96 29 178 29 183 0 18 12 3 41 -55z"/>
</g>
</svg>
