<?xml version="1.0" encoding="utf-8"?>
<svg viewBox="0 0 500 500" width="500" height="500" xmlns="http://www.w3.org/2000/svg">
  <defs>
    <linearGradient id="paint0_linear_663_97" x1="0.117676" y1="0.443848" x2="69.3089" y2="69.6351" gradientUnits="userSpaceOnUse">
      <stop stop-color="white"/>
      <stop offset="0.7656" stop-color="white" stop-opacity="0"/>
    </linearGradient>
    <linearGradient id="paint1_linear_663_97" x1="10.6348" y1="10.9604" x2="58.7919" y2="59.1176" gradientUnits="userSpaceOnUse">
      <stop stop-color="white"/>
      <stop offset="0.8281" stop-color="white" stop-opacity="0"/>
    </linearGradient>
  </defs>
  <path d="M31.9446 2.04234C33.6579 1.05319 35.7687 1.05319 37.482 2.04234L61.9053 16.1432C63.6186 17.1323 64.674 18.9603 64.674 20.9386V49.1403C64.674 51.1186 63.6186 52.9466 61.9053 53.9358L37.482 68.0366C35.7687 69.0258 33.6579 69.0258 31.9446 68.0366L7.52128 53.9358C5.80803 52.9466 4.75261 51.1186 4.75261 49.1403V20.9386C4.75261 18.9604 5.80802 17.1323 7.52127 16.1432L31.9446 2.04234Z" stroke="url(#paint0_linear_663_97)" stroke-opacity="0.3" stroke-width="1.10747" transform="matrix(1, 0, 0, 1, 215.286684, 342.194095)"/>
  <path d="M32.7863 12.073C33.9788 11.3846 35.4479 11.3846 36.6403 12.073L53.639 21.8872C54.8314 22.5756 55.566 23.8479 55.566 25.2248V44.8532C55.566 46.2301 54.8314 47.5024 53.639 48.1908L36.6403 58.005C35.4479 58.6935 33.9788 58.6935 32.7863 58.005L15.7877 48.1908C14.5952 47.5024 13.8607 46.2301 13.8607 44.8532V25.2248C13.8607 23.8479 14.5952 22.5756 15.7877 21.8872L32.7863 12.073Z" fill="url(#paint1_linear_663_97)" fill-opacity="0.2" transform="matrix(1, 0, 0, 1, 215.286684, 342.194095)"/>
  <path d="M19.62 11.558l-3.203 2.98-2.972-5.995 1.538-3.448c.4-.7 1.024-.692 1.414 0z" fill="#ffa000" transform="matrix(1, 0, 0, 1, 233.999498, 361.227939)"/>
  <path d="M13.445 8.543l2.972 5.995-11.97 11.135z" fill="#f57f17" transform="matrix(1, 0, 0, 1, 233.999498, 361.227939)"/>
  <path d="M23.123 7.003c.572-.55 1.164-.362 1.315.417l3.116 18.105-10.328 6.2c-.36.2-1.32.286-1.32.286s-.874-.104-1.207-.3L4.447 25.673z" fill="#ffca28" transform="matrix(1, 0, 0, 1, 233.999498, 361.227939)"/>
  <path d="M13.445 8.543l-8.997 17.13L8.455.638c.148-.78.592-.855.988-.167z" fill="#ffa000" transform="matrix(1, 0, 0, 1, 233.999498, 361.227939)"/>
</svg>