<svg width="71" height="70" viewBox="0 0 71 70" fill="none" xmlns="http://www.w3.org/2000/svg">
<path d="M32.7747 2.04234C34.488 1.05319 36.5988 1.05319 38.3121 2.04234L62.7354 16.1432C64.4487 17.1323 65.5041 18.9603 65.5041 20.9386V49.1403C65.5041 51.1186 64.4487 52.9466 62.7354 53.9358L38.3121 68.0366C36.5988 69.0258 34.488 69.0258 32.7747 68.0366L8.35136 53.9358C6.6381 52.9466 5.58269 51.1186 5.58269 49.1403V20.9386C5.58269 18.9604 6.6381 17.1323 8.35135 16.1432L32.7747 2.04234Z" stroke="url(#paint0_linear_663_103)" stroke-opacity="0.3" stroke-width="1.10747"/>
<path d="M33.6164 12.073C34.8088 11.3846 36.278 11.3846 37.4704 12.073L54.4691 21.8872C55.6615 22.5756 56.396 23.8479 56.396 25.2248V44.8532C56.396 46.2301 55.6615 47.5024 54.4691 48.1908L37.4704 58.005C36.278 58.6935 34.8088 58.6935 33.6164 58.005L16.6177 48.1908C15.4253 47.5024 14.6908 46.2301 14.6908 44.8532V25.2248C14.6908 23.8479 15.4253 22.5756 16.6177 21.8872L33.6164 12.073Z" fill="url(#paint1_linear_663_103)" fill-opacity="0.2"/>
<g clip-path="url(#clip0_663_103)">
<path d="M48.0611 33.8796L36.7019 22.5221C36.5464 22.3665 36.3617 22.243 36.1585 22.1588C35.9552 22.0746 35.7374 22.0312 35.5174 22.0312C35.2974 22.0312 35.0795 22.0746 34.8763 22.1588C34.673 22.243 34.4884 22.3665 34.3328 22.5221L31.9751 24.8798L34.967 27.8716C35.3198 27.7511 35.6994 27.7323 36.0625 27.8172C36.4255 27.9021 36.7574 28.0874 37.0202 28.3519C37.283 28.6164 37.4661 28.9494 37.5487 29.313C37.6313 29.6766 37.61 30.0561 37.4873 30.4081L40.3701 33.2927C40.7967 33.1425 41.2616 33.142 41.6884 33.2914C42.1152 33.4407 42.4785 33.7309 42.7183 34.1143C42.9582 34.4976 43.0603 34.9512 43.008 35.4003C42.9556 35.8495 42.7519 36.2674 42.4303 36.5853C42.1047 36.9128 41.6756 37.1172 41.2161 37.1635C40.7566 37.2097 40.2953 37.095 39.911 36.8389C39.5267 36.5829 39.2432 36.2013 39.109 35.7594C38.9747 35.3176 38.9981 34.8428 39.175 34.4162L36.4873 31.7268V38.8048C36.8958 39.007 37.2227 39.3432 37.4135 39.7572C37.6042 40.1712 37.6473 40.6381 37.5356 41.08C37.4238 41.522 37.164 41.9123 36.7993 42.1859C36.4347 42.4595 35.9873 42.5998 35.5318 42.5836C35.0762 42.5673 34.64 42.3954 34.2958 42.0965C33.9516 41.7976 33.7203 41.3897 33.6403 40.9409C33.5604 40.4921 33.6367 40.0295 33.8565 39.6301C34.0763 39.2308 34.4263 38.9188 34.8483 38.7463V31.6033C34.6048 31.5035 34.3836 31.3566 34.1972 31.1709C34.0108 30.9852 33.863 30.7645 33.7624 30.5215C33.6617 30.2784 33.6101 30.0178 33.6107 29.7548C33.6112 29.4917 33.6637 29.2313 33.7654 28.9887L30.8174 26.0391L23.0289 33.8276C22.8733 33.9831 22.7499 34.1678 22.6656 34.3711C22.5814 34.5743 22.5381 34.7921 22.5381 35.0122C22.5381 35.2322 22.5814 35.45 22.6656 35.6533C22.7499 35.8565 22.8733 36.0412 23.0289 36.1967L34.3881 47.5559C34.5436 47.7115 34.7283 47.8349 34.9315 47.9191C35.1348 48.0034 35.3526 48.0467 35.5726 48.0467C35.7927 48.0467 36.0105 48.0034 36.2137 47.9191C36.417 47.8349 36.6017 47.7115 36.7572 47.5559L48.0627 36.2503C48.3766 35.936 48.5529 35.51 48.5529 35.0658C48.5529 34.6216 48.3766 34.1956 48.0627 33.8813" fill="#F05133"/>
</g>
<defs>
<linearGradient id="paint0_linear_663_103" x1="0.947754" y1="0.443848" x2="70.139" y2="69.6351" gradientUnits="userSpaceOnUse">
<stop stop-color="white"/>
<stop offset="0.765625" stop-color="white" stop-opacity="0"/>
</linearGradient>
<linearGradient id="paint1_linear_663_103" x1="11.4648" y1="10.9604" x2="59.622" y2="59.1176" gradientUnits="userSpaceOnUse">
<stop stop-color="white"/>
<stop offset="0.828125" stop-color="white" stop-opacity="0"/>
</linearGradient>
<clipPath id="clip0_663_103">
<rect width="26.0159" height="26.0159" fill="white" transform="translate(22.5352 22.0312)"/>
</clipPath>
</defs>
</svg>
