<svg width="70" height="70" viewBox="0 0 70 70" fill="none" xmlns="http://www.w3.org/2000/svg">
<path d="M32.1907 2.04234C33.904 1.05319 36.0148 1.05319 37.7281 2.04234L62.1514 16.1432C63.8647 17.1323 64.9201 18.9603 64.9201 20.9386V49.1403C64.9201 51.1186 63.8647 52.9466 62.1514 53.9358L37.7281 68.0366C36.0148 69.0258 33.904 69.0258 32.1907 68.0366L7.76737 53.9358C6.05412 52.9466 4.9987 51.1186 4.9987 49.1403V20.9386C4.9987 18.9604 6.05411 17.1323 7.76737 16.1432L32.1907 2.04234Z" stroke="url(#paint0_linear_663_106)" stroke-opacity="0.3" stroke-width="1.10747"/>
<path d="M33.0315 12.073C34.2239 11.3846 35.693 11.3846 36.8854 12.073L53.8841 21.8872C55.0765 22.5756 55.8111 23.8479 55.8111 25.2248V44.8532C55.8111 46.2301 55.0765 47.5024 53.8841 48.1908L36.8854 58.005C35.693 58.6935 34.2239 58.6935 33.0315 58.005L16.0328 48.1908C14.8404 47.5024 14.1058 46.2301 14.1058 44.8532V25.2248C14.1058 23.8479 14.8404 22.5756 16.0328 21.8872L33.0315 12.073Z" fill="url(#paint1_linear_663_106)" fill-opacity="0.2"/>
<g clip-path="url(#clip0_663_106)">
<path fill-rule="evenodd" clip-rule="evenodd" d="M34.9591 22.0312C27.7722 22.0312 21.9512 27.8523 21.9512 35.0392C21.9512 40.7952 25.6747 45.657 30.8454 47.3805C31.4958 47.4943 31.7397 47.1041 31.7397 46.7626C31.7397 46.4537 31.7234 45.4293 31.7234 44.3399C28.4552 44.9415 27.6096 43.5432 27.3495 42.8115C27.2031 42.4375 26.569 41.283 26.0162 40.9741C25.5609 40.7302 24.9105 40.1286 25.9999 40.1123C27.0243 40.0961 27.756 41.0554 27.9999 41.4456C29.1706 43.4131 31.0405 42.8602 31.7884 42.5188C31.9023 41.6733 32.2437 41.1042 32.6177 40.779C29.7234 40.4538 26.6991 39.3318 26.6991 34.3563C26.6991 32.9417 27.2031 31.771 28.0324 30.8604C27.9023 30.5352 27.447 29.2019 28.1625 27.4133C28.1625 27.4133 29.2519 27.0718 31.7397 28.7466C32.7803 28.4539 33.886 28.3076 34.9917 28.3076C36.0973 28.3076 37.203 28.4539 38.2436 28.7466C40.7314 27.0556 41.8208 27.4133 41.8208 27.4133C42.5363 29.2019 42.081 30.5352 41.9509 30.8604C42.7802 31.771 43.2842 32.9254 43.2842 34.3563C43.2842 39.3481 40.2436 40.4538 37.3493 40.779C37.8209 41.1855 38.2274 41.9659 38.2274 43.1854C38.2274 44.9253 38.2111 46.3236 38.2111 46.7626C38.2111 47.1041 38.455 47.5106 39.1054 47.3805C41.6877 46.5087 43.9316 44.849 45.5212 42.6352C47.1109 40.4213 47.9663 37.7647 47.9671 35.0392C47.9671 27.8523 42.146 22.0312 34.9591 22.0312Z" fill="white"/>
</g>
<defs>
<linearGradient id="paint0_linear_663_106" x1="0.36377" y1="0.443848" x2="69.555" y2="69.6351" gradientUnits="userSpaceOnUse">
<stop stop-color="white"/>
<stop offset="0.765625" stop-color="white" stop-opacity="0"/>
</linearGradient>
<linearGradient id="paint1_linear_663_106" x1="10.8799" y1="10.9604" x2="59.037" y2="59.1176" gradientUnits="userSpaceOnUse">
<stop stop-color="white"/>
<stop offset="0.828125" stop-color="white" stop-opacity="0"/>
</linearGradient>
<clipPath id="clip0_663_106">
<rect width="26.0159" height="26.0159" fill="white" transform="translate(21.9512 22.0312)"/>
</clipPath>
</defs>
</svg>
