<?xml version="1.0" encoding="UTF-8" standalone="no"?><!-- Generator: Gravit.io --><svg xmlns="http://www.w3.org/2000/svg" xmlns:xlink="http://www.w3.org/1999/xlink" style="isolation:isolate" viewBox="0 0 70 70" width="70pt" height="70pt"><defs><clipPath id="_clipPath_JOZ04U4BY0FUONqIvwz4m3z2LFdIXumq"><rect width="70" height="70"/></clipPath></defs><g clip-path="url(#_clipPath_JOZ04U4BY0FUONqIvwz4m3z2LFdIXumq)"><linearGradient id="_lgradient_6" x1="-0.07735018629398302" y1="-0.01269494078609076" x2="1.0146102584468772" y2="1.0792654881730006"><stop offset="0%" stop-opacity="1" style="stop-color:rgb(255,255,255)"/><stop offset="76.5625%" stop-opacity="0" style="stop-color:rgb(255,255,255)"/></linearGradient><path d=" M 31.95 2.042 C 33.663 1.053 35.774 1.053 37.487 2.042 L 61.911 16.143 C 63.624 17.132 64.679 18.96 64.679 20.939 L 64.679 49.14 C 64.679 51.119 63.624 52.947 61.911 53.936 L 37.487 68.037 C 35.774 69.026 33.663 69.026 31.95 68.037 L 7.527 53.936 C 5.813 52.947 4.758 51.119 4.758 49.14 L 4.758 20.939 C 4.758 18.96 5.813 17.132 7.527 16.143 L 31.95 2.042 L 31.95 2.042 Z " fill="none" vector-effect="non-scaling-stroke" stroke-width="1.107" stroke="url(#_lgradient_6)" stroke-opacity="0.3" stroke-linejoin="miter" stroke-linecap="butt" stroke-miterlimit="4"/><linearGradient id="_lgradient_7" x1="-0.07735246444088506" y1="-0.01269677688603188" x2="1.0146118522631036" y2="1.0792675398179572" gradientTransform="matrix(41.705,0,0,46.965,13.866,11.557)" gradientUnits="userSpaceOnUse"><stop offset="0%" stop-opacity="1" style="stop-color:rgb(255,255,255)"/><stop offset="82.8125%" stop-opacity="0" style="stop-color:rgb(255,255,255)"/></linearGradient><path d=" M 32.792 12.073 C 33.984 11.385 35.453 11.385 36.646 12.073 L 53.644 21.887 C 54.837 22.576 55.571 23.848 55.571 25.225 L 55.571 44.853 C 55.571 46.23 54.837 47.502 53.644 48.191 L 36.646 58.005 C 35.453 58.694 33.984 58.694 32.792 58.005 L 15.793 48.191 C 14.601 47.502 13.866 46.23 13.866 44.853 L 13.866 25.225 C 13.866 23.848 14.601 22.576 15.793 21.887 L 32.792 12.073 L 32.792 12.073 Z " fill="url(#_lgradient_7)" fill-opacity="0.2"/><g><path d=" M 20.862 45.556 L 19.464 44.741 L 35.035 17.52 L 36.431 18.334 L 20.862 45.556 Z " fill="rgb(228,52,170)"/><path d=" M 19.143 42.567 L 50.283 42.567 L 50.283 44.195 L 19.143 44.195 L 19.143 42.567 Z " fill="rgb(228,52,170)"/><path d=" M 35.336 52.559 L 19.761 43.482 L 20.568 42.071 L 36.143 51.149 L 35.336 52.559 Z  M 48.866 28.9 L 33.291 19.822 L 34.098 18.412 L 49.673 27.489 L 48.866 28.9 Z " fill="rgb(228,52,170)"/><path d=" M 20.571 28.894 L 19.764 27.483 L 35.341 18.406 L 36.148 19.816 L 20.571 28.894 Z " fill="rgb(228,52,170)"/><path d=" M 48.579 45.556 L 33.01 18.334 L 34.407 17.52 L 49.977 44.741 L 48.579 45.556 Z  M 20.379 26.402 L 21.993 26.402 L 21.993 44.559 L 20.379 44.559 L 20.379 26.402 Z " fill="rgb(228,52,170)"/><path d=" M 47.445 26.402 L 49.058 26.402 L 49.058 44.559 L 47.445 44.559 L 47.445 26.402 Z " fill="rgb(228,52,170)"/><path d=" M 35.062 51.87 L 34.357 50.637 L 47.903 42.742 L 48.608 43.975 L 35.062 51.87 Z " fill="rgb(228,52,170)"/><path d=" M 51.197 45.088 C 50.264 46.727 48.184 47.287 46.56 46.345 C 44.937 45.403 44.383 43.302 45.315 41.663 C 46.249 40.025 48.33 39.465 49.953 40.407 C 51.586 41.359 52.141 43.45 51.197 45.088 M 24.113 29.298 C 23.179 30.937 21.098 31.496 19.475 30.555 C 17.851 29.612 17.297 27.512 18.23 25.873 C 19.164 24.234 21.244 23.675 22.868 24.616 C 24.491 25.569 25.045 27.659 24.113 29.298 Z  M 18.241 45.088 C 17.306 43.45 17.861 41.359 19.484 40.407 C 21.108 39.465 23.178 40.025 24.122 41.663 C 25.055 43.302 24.501 45.393 22.877 46.345 C 21.244 47.287 19.173 46.727 18.241 45.088 Z  M 45.325 29.298 C 44.392 27.659 44.946 25.569 46.57 24.616 C 48.193 23.675 50.264 24.234 51.208 25.873 C 52.14 27.512 51.586 29.602 49.963 30.555 C 48.339 31.496 46.259 30.937 45.325 29.298 Z " fill="rgb(228,52,170)"/></g></g></svg>