<svg width="50" height="54" viewBox="0 0 50 54" fill="none" xmlns="http://www.w3.org/2000/svg">
<rect width="50" height="54" rx="5" fill="#1A1A1A"/>
<path d="M25.0001 11.4561C25.5688 11.4561 26.0922 11.2619 26.5076 10.9362L35.3601 15.3625C35.8777 15.6213 36.5072 15.4115 36.766 14.8939C37.0248 14.3762 36.815 13.7468 36.2974 13.488L27.4446 9.0616C27.445 9.04478 27.4452 9.02791 27.4452 9.01101C27.4452 7.66062 26.3505 6.56592 25.0001 6.56592C23.6497 6.56592 22.555 7.66062 22.555 9.01101C22.555 9.04458 22.5556 9.07798 22.557 9.11122L14.2087 13.4976C13.6964 13.7668 13.4993 14.4003 13.7685 14.9126C14.0377 15.425 14.6712 15.6221 15.1836 15.3529L23.5319 10.9664C23.9408 11.2739 24.4491 11.4561 25.0001 11.4561Z" fill="url(#paint0_linear_842_110)"/>
<path d="M25.6987 19.088C26.8945 18.8453 27.7945 17.7881 27.7945 16.5207C27.7945 15.0738 26.6216 13.9009 25.1747 13.9009C23.7279 13.9009 22.555 15.0738 22.555 16.5207C22.555 17.7881 23.455 18.8453 24.6508 19.088V21.6128C23.1301 21.769 21.8088 22.5981 20.9895 23.7974L11.9864 18.5994C12.0447 18.3822 12.0758 18.1539 12.0758 17.9183C12.0758 16.4715 10.9029 15.2986 9.45607 15.2986C8.00923 15.2986 6.83633 16.4715 6.83633 17.9183C6.83633 19.3651 8.00923 20.538 9.45607 20.538C10.2917 20.538 11.0359 20.1468 11.5156 19.5376L20.491 24.7196C20.2453 25.3147 20.1098 25.967 20.1098 26.6508C20.1098 27.4954 20.3165 28.2917 20.6821 28.9919L18.0582 30.5069C17.5781 29.9628 16.8757 29.6196 16.0931 29.6196C14.6462 29.6196 13.4733 30.7925 13.4733 32.2393C13.4733 33.6862 14.6462 34.8591 16.0931 34.8591C17.5399 34.8591 18.7128 33.6862 18.7128 32.2393C18.7128 31.9514 18.6664 31.6744 18.5806 31.4153L21.2619 29.8672C22.0866 30.8692 23.2887 31.549 24.6508 31.6889V42.2469C23.455 42.4896 22.555 43.5468 22.555 44.8143C22.555 46.2611 23.7279 47.434 25.1747 47.434C26.6216 47.434 27.7945 46.2611 27.7945 44.8143C27.7945 43.5469 26.8945 42.4897 25.6987 42.2469V31.6889C27.1172 31.5431 28.3622 30.8118 29.188 29.7408L31.8246 31.263C31.7034 31.5647 31.6366 31.8942 31.6366 32.2393C31.6366 33.6862 32.8095 34.8591 34.2564 34.8591C35.7032 34.8591 36.8761 33.6862 36.8761 32.2393C36.8761 30.7925 35.7032 29.6196 34.2564 29.6196C33.5328 29.6196 32.8777 29.913 32.4036 30.3873L29.739 28.8488C30.0597 28.184 30.2395 27.4384 30.2395 26.6508C30.2395 26.0241 30.1256 25.4239 29.9175 24.8699L38.9381 19.6619C39.4178 20.1995 40.1161 20.538 40.8934 20.538C42.3402 20.538 43.5131 19.3651 43.5131 17.9183C43.5131 16.4715 42.3402 15.2986 40.8934 15.2986C39.4465 15.2986 38.2736 16.4715 38.2736 17.9183C38.2736 18.2114 38.3217 18.4933 38.4105 18.7564L29.4479 23.931C28.6373 22.66 27.2752 21.7749 25.6987 21.6128V19.088Z" fill="url(#paint1_linear_842_110)"/>
<path d="M9.53552 38.2771C9.3426 38.326 9.14054 38.3521 8.9324 38.3521C7.58201 38.3521 6.4873 37.2574 6.4873 35.907C6.4873 34.8875 7.11126 34.0137 7.99812 33.6467L7.31828 24.922C7.27333 24.345 7.70462 23.8408 8.28161 23.7959C8.8586 23.7509 9.36278 24.1822 9.40774 24.7592L10.1093 33.7633C10.8653 34.1792 11.3775 34.9832 11.3775 35.907C11.3775 36.2348 11.313 36.5476 11.1959 36.8333L19.7974 42.0551C20.2921 42.3554 20.4497 42.9999 20.1494 43.4946C19.849 43.9893 19.2045 44.1469 18.7098 43.8466L9.53552 38.2771Z" fill="url(#paint2_linear_842_110)"/>
<path d="M41.0677 38.3521C42.4181 38.3521 43.5128 37.2574 43.5128 35.907C43.5128 34.9526 42.9661 34.1259 42.1687 33.7232L42.553 24.0767C42.576 23.4984 42.1259 23.0109 41.5476 22.9879C40.9694 22.9649 40.4819 23.415 40.4589 23.9932L40.0732 33.6726C39.2185 34.0536 38.6226 34.9107 38.6226 35.907C38.6226 35.9403 38.6233 35.9735 38.6246 36.0066L30.3623 41.4618C29.8793 41.7807 29.7463 42.4307 30.0652 42.9137C30.384 43.3967 31.0341 43.5297 31.517 43.2108L39.608 37.8687C40.0154 38.1723 40.5206 38.3521 41.0677 38.3521Z" fill="url(#paint3_linear_842_110)"/>
<defs>
<linearGradient id="paint0_linear_842_110" x1="25.0002" y1="6.56592" x2="25.0002" y2="47.434" gradientUnits="userSpaceOnUse">
<stop offset="0.117194" stop-color="#468FDF"/>
<stop offset="0.721603" stop-color="#2F5DB4"/>
</linearGradient>
<linearGradient id="paint1_linear_842_110" x1="25.0002" y1="6.56592" x2="25.0002" y2="47.434" gradientUnits="userSpaceOnUse">
<stop offset="0.117194" stop-color="#468FDF"/>
<stop offset="0.721603" stop-color="#2F5DB4"/>
</linearGradient>
<linearGradient id="paint2_linear_842_110" x1="25.0002" y1="6.56592" x2="25.0002" y2="47.434" gradientUnits="userSpaceOnUse">
<stop offset="0.117194" stop-color="#468FDF"/>
<stop offset="0.721603" stop-color="#2F5DB4"/>
</linearGradient>
<linearGradient id="paint3_linear_842_110" x1="25.0002" y1="6.56592" x2="25.0002" y2="47.434" gradientUnits="userSpaceOnUse">
<stop offset="0.117194" stop-color="#468FDF"/>
<stop offset="0.721603" stop-color="#2F5DB4"/>
</linearGradient>
</defs>
</svg>
