<?xml version="1.0" encoding="UTF-8" standalone="no"?><!-- Generator: Gravit.io --><svg xmlns="http://www.w3.org/2000/svg" xmlns:xlink="http://www.w3.org/1999/xlink" style="isolation:isolate" viewBox="0 0 70 70" width="70pt" height="70pt"><defs><clipPath id="_clipPath_PZhy1NWjgrrFXo4tP0lHvzCn8Dbvix0O"><rect width="70" height="70"/></clipPath></defs><g clip-path="url(#_clipPath_PZhy1NWjgrrFXo4tP0lHvzCn8Dbvix0O)"><linearGradient id="_lgradient_0" x1="-0.07735018629398302" y1="-0.01269494078609076" x2="1.0146102584468772" y2="1.0792654881730006"><stop offset="0%" stop-opacity="1" style="stop-color:rgb(255,255,255)"/><stop offset="76.5625%" stop-opacity="0" style="stop-color:rgb(255,255,255)"/></linearGradient><path d=" M 31.95 2.042 C 33.663 1.053 35.774 1.053 37.487 2.042 L 61.911 16.143 C 63.624 17.132 64.679 18.96 64.679 20.939 L 64.679 49.14 C 64.679 51.119 63.624 52.947 61.911 53.936 L 37.487 68.037 C 35.774 69.026 33.663 69.026 31.95 68.037 L 7.527 53.936 C 5.813 52.947 4.758 51.119 4.758 49.14 L 4.758 20.939 C 4.758 18.96 5.813 17.132 7.527 16.143 L 31.95 2.042 L 31.95 2.042 Z " fill="none" vector-effect="non-scaling-stroke" stroke-width="1.107" stroke="url(#_lgradient_0)" stroke-opacity="0.3" stroke-linejoin="miter" stroke-linecap="butt" stroke-miterlimit="4"/><linearGradient id="_lgradient_1" x1="-0.07735246444088506" y1="-0.01269677688603188" x2="1.0146118522631036" y2="1.0792675398179572" gradientTransform="matrix(41.705,0,0,46.965,13.866,11.557)" gradientUnits="userSpaceOnUse"><stop offset="0%" stop-opacity="1" style="stop-color:rgb(255,255,255)"/><stop offset="82.8125%" stop-opacity="0" style="stop-color:rgb(255,255,255)"/></linearGradient><path d=" M 32.792 12.073 C 33.984 11.385 35.453 11.385 36.646 12.073 L 53.644 21.887 C 54.837 22.576 55.571 23.848 55.571 25.225 L 55.571 44.853 C 55.571 46.23 54.837 47.502 53.644 48.191 L 36.646 58.005 C 35.453 58.694 33.984 58.694 32.792 58.005 L 15.793 48.191 C 14.601 47.502 13.866 46.23 13.866 44.853 L 13.866 25.225 C 13.866 23.848 14.601 22.576 15.793 21.887 L 32.792 12.073 L 32.792 12.073 Z " fill="url(#_lgradient_1)" fill-opacity="0.2"/><path d=" M 48.891 34.853 C 48.891 33.36 47.699 32.104 46.098 31.746 L 49.683 22.646 L 31.913 22.646 L 35.507 31.774 C 33.956 32.162 32.813 33.396 32.813 34.86 C 32.813 35.936 33.439 36.891 34.39 37.479 C 34.015 37.938 33.581 38.362 33.089 38.764 C 32.163 39.51 31.137 40.084 30.028 40.465 C 29.028 39.883 28.594 38.857 28.986 37.938 C 30.512 37.537 31.622 36.309 31.622 34.867 C 31.622 33.095 29.945 31.659 27.893 31.659 C 25.833 31.659 24.158 33.102 24.158 34.874 C 24.158 35.75 24.574 36.553 25.242 37.127 C 25.183 37.228 25.125 37.328 25.067 37.436 C 24.508 38.427 23.874 39.546 23.632 40.802 C 23.148 43.313 23.94 45.33 25.85 46.471 C 26.926 47.11 28.111 47.433 29.387 47.433 C 31.579 47.433 33.806 46.485 35.957 45.567 C 37.492 44.914 39.076 44.232 40.636 43.902 C 41.211 43.78 41.811 43.708 42.445 43.629 C 43.729 43.471 45.055 43.306 46.248 42.711 C 47.64 42.015 48.591 40.852 48.867 39.517 C 49.074 38.491 48.867 37.458 48.332 36.553 L 48.891 34.853 Z  M 34.239 24.081 L 47.357 24.081 L 44.346 31.724 C 44.221 31.746 44.096 31.781 43.971 31.817 L 40.803 26.256 L 37.625 31.781 C 37.5 31.746 37.366 31.724 37.234 31.702 L 34.239 24.081 Z  M 40.202 34.228 C 40.043 33.553 39.643 32.951 39.076 32.506 L 40.803 29.507 L 42.545 32.57 C 42.028 33.015 41.653 33.582 41.503 34.228 L 40.202 34.228 Z  M 36.024 33.095 C 36.066 33.087 36.099 33.08 36.141 33.073 L 36.166 33.073 C 36.199 33.066 36.233 33.066 36.266 33.058 L 36.299 33.058 C 36.333 33.058 36.358 33.051 36.391 33.051 L 36.716 33.051 C 36.749 33.051 36.775 33.058 36.8 33.058 C 36.816 33.058 36.824 33.058 36.841 33.066 C 36.875 33.073 36.899 33.073 36.933 33.08 C 36.941 33.08 36.95 33.08 36.967 33.087 C 37.008 33.095 37.05 33.102 37.083 33.109 L 37.091 33.109 C 37.125 33.116 37.158 33.123 37.191 33.137 C 37.2 33.137 37.208 33.145 37.225 33.145 C 37.25 33.152 37.283 33.159 37.308 33.173 C 37.317 33.173 37.325 33.18 37.333 33.18 C 37.366 33.195 37.4 33.202 37.433 33.217 L 37.441 33.217 C 37.483 33.23 37.517 33.245 37.55 33.267 L 37.558 33.267 C 37.592 33.281 37.625 33.302 37.659 33.317 C 37.667 33.317 37.667 33.324 37.675 33.324 C 37.708 33.338 37.733 33.36 37.767 33.374 L 37.776 33.381 C 37.875 33.446 37.967 33.518 38.058 33.59 L 38.067 33.597 C 38.151 33.675 38.234 33.762 38.301 33.855 C 38.517 34.142 38.643 34.48 38.643 34.846 C 38.643 35.843 37.7 36.653 36.541 36.653 C 35.382 36.653 34.44 35.843 34.44 34.846 C 34.431 34.006 35.107 33.296 36.024 33.095 L 36.024 33.095 Z  M 27.818 33.044 C 28.977 33.044 29.92 33.855 29.92 34.852 C 29.92 35.85 28.977 36.661 27.818 36.661 C 26.659 36.661 25.716 35.85 25.716 34.852 C 25.716 33.855 26.659 33.044 27.818 33.044 Z  M 47.215 39.266 C 47.032 40.184 46.372 40.988 45.405 41.469 C 44.496 41.921 43.379 42.064 42.203 42.208 C 41.561 42.287 40.886 42.373 40.235 42.509 C 38.501 42.876 36.833 43.593 35.215 44.282 C 33.147 45.165 31.195 45.997 29.387 45.997 C 28.444 45.997 27.601 45.767 26.801 45.287 C 24.967 44.196 25.058 42.151 25.275 41.031 C 25.475 39.983 26.034 39 26.568 38.06 C 26.601 38.003 26.626 37.953 26.659 37.895 C 26.843 37.953 27.035 37.996 27.235 38.025 C 26.918 39.546 27.818 41.117 29.569 41.893 L 29.887 42.036 L 30.228 41.928 C 31.688 41.483 33.039 40.759 34.231 39.79 C 34.907 39.244 35.482 38.656 35.966 38.017 C 36.158 38.046 36.35 38.053 36.541 38.053 C 38.276 38.053 39.735 37.027 40.152 35.649 L 41.553 35.649 C 41.97 37.034 43.429 38.053 45.164 38.053 C 45.856 38.053 46.498 37.888 47.048 37.608 C 47.265 38.147 47.332 38.706 47.215 39.266 L 47.215 39.266 Z " fill="rgb(153,66,91)"/></g></svg>