<svg width="70" height="70" viewBox="0 0 70 70" fill="none" xmlns="http://www.w3.org/2000/svg">
<path d="M32.0208 2.04234C33.7341 1.05319 35.8449 1.05319 37.5581 2.04234L61.9815 16.1432C63.6948 17.1323 64.7502 18.9603 64.7502 20.9386V49.1403C64.7502 51.1186 63.6948 52.9466 61.9815 53.9358L37.5582 68.0366C35.8449 69.0258 33.7341 69.0258 32.0208 68.0366L7.59745 53.9358C5.8842 52.9466 4.82878 51.1186 4.82878 49.1403V20.9386C4.82878 18.9604 5.88419 17.1323 7.59745 16.1432L32.0208 2.04234Z" stroke="url(#paint0_linear_663_112)" stroke-opacity="0.3" stroke-width="1.10747"/>
<path d="M32.8615 12.073C34.054 11.3846 35.5231 11.3846 36.7155 12.073L53.7142 21.8872C54.9066 22.5756 55.6412 23.8479 55.6412 25.2248V44.8532C55.6412 46.2301 54.9066 47.5024 53.7142 48.1908L36.7155 58.005C35.5231 58.6935 34.054 58.6935 32.8615 58.005L15.8629 48.1908C14.6704 47.5024 13.9359 46.2301 13.9359 44.8532V25.2248C13.9359 23.8479 14.6704 22.5756 15.8629 21.8872L32.8615 12.073Z" fill="url(#paint1_linear_663_112)" fill-opacity="0.2"/>
<g clip-path="url(#clip0_663_112)">
<path d="M36.2005 28.1027C35.5198 26.4464 35.6152 24.583 36.5984 23.0838L37.3333 22.0312C35.974 24.5786 37.2683 27.7071 39.3495 29.3471C39.9065 29.783 40.5273 30.1304 41.1902 30.3769C41.3679 30.442 41.5696 30.5114 41.7538 30.558C44.0801 31.1433 45.976 30.739 47.1045 29.0523C47.0698 29.1043 47.0253 29.1867 46.969 29.2908C46.466 30.223 44.9939 32.9514 40.7251 32.0951C40.6438 32.0788 40.5658 32.0517 40.4877 32.0268L40.4184 32.0029L40.3685 31.9867C40.3455 31.9787 40.3224 31.9711 40.2991 31.9639C40.2359 31.9422 40.173 31.9194 40.1105 31.8956C38.3924 31.2409 36.9192 29.862 36.2005 28.1027Z" fill="#0868AC"/>
<path d="M30.5839 25.246C28.9178 27.7338 29.0089 31.0649 30.3086 33.6969C30.5489 34.1866 30.825 34.658 31.1346 35.1071C31.3612 35.4464 31.6105 35.8226 31.9021 36.0849C32.0224 36.2226 32.1481 36.3559 32.2761 36.4871L32.3498 36.5629L32.3747 36.5879C32.5041 36.7187 32.6368 36.8463 32.7725 36.9705L32.7736 36.9716L32.7758 36.9738C32.9396 37.122 33.1077 37.2655 33.2798 37.4041L33.3232 37.4388C33.475 37.5602 33.63 37.6795 33.7893 37.7933L33.7958 37.7976L33.8034 37.803C33.8544 37.8399 33.9064 37.8757 33.9584 37.9103L34.0159 37.9494C34.0499 37.9719 34.0835 37.995 34.1167 38.0187C34.2305 38.0946 34.3454 38.1673 34.4625 38.2388L34.495 38.2572L34.5113 38.2681C34.6368 38.3429 34.7636 38.4156 34.8917 38.486L34.9253 38.5033L34.9687 38.5271C35.0251 38.5575 35.0814 38.5889 35.14 38.6182L35.1725 38.6345C35.3402 38.7198 35.5101 38.8008 35.682 38.8773L35.7167 38.8914C35.878 38.9624 36.041 39.0296 36.2055 39.093L36.2381 39.1049C36.3497 39.1483 36.4614 39.1873 36.5741 39.2263L36.6305 39.2458L36.7259 39.2773C36.7681 39.2903 36.8104 39.3055 36.8516 39.3195C36.9698 39.3607 37.0879 39.4008 37.2115 39.4225C45.8119 40.9011 47.7978 34.0286 47.7978 34.0286C46.0081 36.7039 42.5415 37.9808 38.8429 36.9835C38.6791 36.9388 38.5165 36.89 38.3551 36.8372C38.3117 36.8242 38.2684 36.809 38.225 36.7938L38.2088 36.7884C38.0946 36.7501 37.9811 36.7096 37.8684 36.667L37.8651 36.6648C37.6781 36.594 37.493 36.5181 37.3101 36.4372L37.2494 36.4101C37.0363 36.3137 36.8266 36.21 36.6207 36.099L36.5752 36.0751L36.4451 36.0058C36.3263 35.9394 36.2089 35.8707 36.0928 35.7998C35.8635 35.6598 35.6393 35.5115 35.4207 35.3554C35.2628 35.2414 35.1078 35.1236 34.9557 35.002L34.9178 34.9705C34.8956 34.9526 34.8736 34.9346 34.8516 34.9164C33.2321 33.5895 31.9487 31.776 31.3395 29.7208C30.6999 27.5875 30.8376 25.194 31.9454 23.2515L30.5839 25.246Z" fill="#0868AC"/>
<path d="M23.4339 28.1419C21.1314 31.5781 21.4176 36.0496 23.1769 39.7005C23.2095 39.771 23.2452 39.8404 23.2799 39.9086L23.3059 39.9607L23.3385 40.0246C23.3657 40.0815 23.3946 40.1375 23.4252 40.1927L23.4393 40.2198L23.5152 40.3607L23.5314 40.3899C23.5856 40.4897 23.642 40.5894 23.6994 40.6891L23.7179 40.7216C23.8047 40.8732 23.8955 41.0224 23.9899 41.1693L24.0095 41.2019L24.0734 41.3027C24.1645 41.4436 24.2577 41.5856 24.3552 41.7254V41.7265C24.3576 41.7299 24.3601 41.7332 24.3628 41.7363L24.3889 41.772L24.4105 41.8024C24.4951 41.9216 24.5807 42.0409 24.6685 42.1579L24.7661 42.2858C24.9786 42.5612 25.1983 42.8309 25.4252 43.0945L25.4317 43.1021L25.4371 43.1075L25.4447 43.1162C25.6746 43.3753 25.9125 43.6272 26.1579 43.8717L26.1905 43.9043L26.2674 43.9801C26.3903 44.1002 26.5153 44.218 26.6425 44.3335L26.6783 44.366L26.7064 44.3899C26.8421 44.511 26.9794 44.6303 27.1184 44.7476L27.1791 44.7986C27.2712 44.8744 27.3644 44.9503 27.4587 45.024L27.6072 45.1422C27.7113 45.2213 27.8154 45.2994 27.9205 45.3752L27.9379 45.3882L28.0354 45.4598L28.0658 45.4815C28.1612 45.5508 28.2576 45.6159 28.3552 45.6809L28.3704 45.6918C28.4141 45.7212 28.4575 45.7512 28.5005 45.7817C28.6814 45.9005 28.8646 46.0158 29.05 46.1275L29.1086 46.1622C29.2727 46.2592 29.4386 46.3531 29.6061 46.4441L29.6636 46.4755L29.7275 46.5102C29.7915 46.5449 29.8544 46.5796 29.9194 46.6132L29.9465 46.6262L29.979 46.6424L30.0159 46.6609C30.0376 46.6717 30.0603 46.6825 30.0831 46.6955C30.2175 46.7617 30.3519 46.8267 30.4885 46.8907L30.5394 46.9134L30.5741 46.9297C30.9129 47.084 31.2575 47.225 31.6072 47.3524L31.618 47.3557L31.6636 47.373C31.9107 47.4619 32.1601 47.5443 32.4115 47.6202C32.5373 47.6625 32.6641 47.7037 32.7942 47.7286C43.9344 49.8381 47.1701 40.7802 47.1701 40.7802C44.4525 44.4549 39.6288 45.4251 35.0575 44.3454C34.8856 44.3037 34.7155 44.2542 34.5481 44.1969L34.4202 44.1568C34.2554 44.1048 34.0917 44.0484 33.9291 43.991L33.8619 43.966C33.7156 43.9118 33.5725 43.8576 33.4283 43.7991L33.3069 43.7492C33.1497 43.6842 32.9936 43.6181 32.8397 43.5476L32.7898 43.5259C32.6429 43.4577 32.497 43.3876 32.3519 43.3156L32.3074 43.2918C32.2843 43.2807 32.2611 43.2695 32.2381 43.2582L32.0061 43.1357L31.9324 43.0967C31.9083 43.0835 31.884 43.0705 31.8598 43.0577L31.7297 42.9861C31.6061 42.9178 31.4847 42.8452 31.3633 42.7726L31.3167 42.7455L31.2408 42.7021C31.0521 42.5857 30.8656 42.4657 30.6815 42.3422L30.6348 42.3097C30.1722 42.0012 29.7288 41.6649 29.3069 41.3027C29.1781 41.1937 29.0509 41.0827 28.9254 40.9699L28.908 40.9536C28.7433 40.802 28.5813 40.6474 28.4224 40.4897C28.3306 40.399 28.2403 40.3068 28.1514 40.2132L28.1145 40.1764C27.9742 40.0297 27.8368 39.88 27.7026 39.7276L27.6961 39.7211L27.694 39.7179C27.5791 39.5878 27.4663 39.4534 27.3558 39.319L27.2669 39.2095C27.1534 39.0687 27.0424 38.926 26.9341 38.7813C26.8387 38.6512 26.7444 38.5233 26.6522 38.3921C24.1157 34.7998 23.204 29.8437 25.2322 25.7744L23.4339 28.1419Z" fill="#0868AC"/>
</g>
<defs>
<linearGradient id="paint0_linear_663_112" x1="0.193848" y1="0.443848" x2="69.3851" y2="69.6351" gradientUnits="userSpaceOnUse">
<stop stop-color="white"/>
<stop offset="0.765625" stop-color="white" stop-opacity="0"/>
</linearGradient>
<linearGradient id="paint1_linear_663_112" x1="10.71" y1="10.9604" x2="58.8671" y2="59.1176" gradientUnits="userSpaceOnUse">
<stop stop-color="white"/>
<stop offset="0.828125" stop-color="white" stop-opacity="0"/>
</linearGradient>
<clipPath id="clip0_663_112">
<rect width="26.0159" height="26.0159" fill="white" transform="translate(21.7812 22.0312)"/>
</clipPath>
</defs>
</svg>
