<svg width="410" height="410" viewBox="0 0 410 410" fill="none" xmlns="http://www.w3.org/2000/svg">
<rect x="298.328" y="298.333" width="107.672" height="106.667" rx="6.30915" fill="#1A1A1A"/>
<path d="M352.332 326.6C337.97 326.6 326.323 338.091 326.323 352.268C326.323 363.608 333.775 373.23 344.11 376.624C345.41 376.861 345.887 376.067 345.887 375.389C345.887 374.777 345.863 372.755 345.852 370.61C338.616 372.163 337.089 367.582 337.089 367.582C335.906 364.615 334.201 363.826 334.201 363.826C331.841 362.233 334.379 362.266 334.379 362.266C336.991 362.447 338.366 364.911 338.366 364.911C340.686 368.835 344.451 367.7 345.935 367.045C346.168 365.385 346.842 364.253 347.586 363.612C341.809 362.963 335.736 360.762 335.736 350.927C335.736 348.125 336.752 345.835 338.416 344.037C338.146 343.391 337.256 340.78 338.668 337.245C338.668 337.245 340.852 336.555 345.822 339.876C347.897 339.307 350.122 339.022 352.332 339.012C354.543 339.022 356.77 339.307 358.848 339.876C363.813 336.555 365.994 337.245 365.994 337.245C367.409 340.78 366.519 343.391 366.249 344.037C367.916 345.835 368.925 348.125 368.925 350.927C368.925 360.785 362.841 362.956 357.049 363.592C357.982 364.388 358.813 365.95 358.813 368.345C358.813 371.779 358.783 374.544 358.783 375.389C358.783 376.072 359.251 376.872 360.57 376.62C370.898 373.223 378.342 363.605 378.342 352.268C378.342 338.091 366.697 326.6 352.332 326.6Z" fill="#F7F7F7"/>
<path d="M336.064 363.164C336.007 363.292 335.804 363.33 335.619 363.243C335.43 363.159 335.324 362.985 335.385 362.857C335.441 362.726 335.645 362.689 335.833 362.777C336.022 362.861 336.13 363.036 336.064 363.164ZM337.344 364.291C337.22 364.404 336.977 364.352 336.813 364.172C336.642 363.993 336.611 363.754 336.736 363.639C336.864 363.525 337.1 363.578 337.27 363.757C337.44 363.938 337.473 364.176 337.344 364.291L337.344 364.291ZM338.221 365.732C338.062 365.841 337.801 365.739 337.64 365.511C337.481 365.283 337.481 365.009 337.644 364.899C337.805 364.789 338.062 364.888 338.225 365.114C338.384 365.347 338.384 365.62 338.221 365.732L338.221 365.732ZM339.706 367.401C339.563 367.556 339.26 367.515 339.037 367.303C338.81 367.096 338.747 366.803 338.89 366.647C339.034 366.492 339.339 366.536 339.563 366.746C339.789 366.952 339.858 367.248 339.706 367.401H339.706ZM341.624 367.965C341.561 368.166 341.269 368.257 340.974 368.172C340.68 368.084 340.488 367.849 340.547 367.645C340.608 367.443 340.902 367.348 341.199 367.439C341.492 367.527 341.685 367.761 341.624 367.965H341.624ZM343.807 368.204C343.815 368.416 343.565 368.591 343.256 368.595C342.945 368.602 342.693 368.43 342.69 368.222C342.69 368.009 342.934 367.835 343.245 367.83C343.554 367.824 343.807 367.994 343.807 368.204ZM345.952 368.123C345.989 368.329 345.774 368.542 345.467 368.598C345.165 368.652 344.886 368.525 344.847 368.32C344.81 368.108 345.029 367.896 345.33 367.841C345.638 367.789 345.913 367.913 345.952 368.123Z" fill="#F7F7F7"/>
<rect x="176.121" y="266.333" width="71.0633" height="70.4" rx="6.30915" fill="#1A1A1A"/>
<path d="M228.413 300.188L213.365 285.281C212.499 284.423 211.094 284.423 210.226 285.281L207.102 288.377L211.066 292.304C211.987 291.995 213.043 292.202 213.777 292.93C214.515 293.662 214.723 294.717 214.404 295.633L218.224 299.417C219.148 299.102 220.215 299.306 220.953 300.038C221.984 301.06 221.984 302.716 220.953 303.738C219.921 304.761 218.249 304.761 217.217 303.738C216.441 302.969 216.249 301.84 216.642 300.893L213.079 297.363L213.079 306.651C213.337 306.777 213.573 306.945 213.777 307.146C214.809 308.167 214.809 309.823 213.777 310.847C212.745 311.868 211.073 311.868 210.043 310.847C209.011 309.823 209.011 308.168 210.043 307.146C210.29 306.901 210.584 306.707 210.907 306.575V297.201C210.583 297.07 210.289 296.875 210.043 296.63C209.261 295.856 209.073 294.72 209.474 293.769L205.566 289.898L195.248 300.119C194.381 300.978 194.381 302.371 195.248 303.23L210.296 318.137C211.163 318.995 212.568 318.995 213.435 318.137L228.413 303.299C229.28 302.44 229.28 301.046 228.413 300.188" fill="#F7F7F7"/>
<rect x="50.6838" y="287.667" width="91.5209" height="90.6667" rx="6.30915" fill="#1A1A1A"/>
<g clip-path="url(#clip0_118_66)">
<path d="M110.926 354.76H81.9629C77.5717 354.76 74.0217 351.263 74.0217 346.938V319.515C74.0217 315.19 77.5717 311.693 81.9629 311.693H110.926C115.317 311.693 118.867 315.19 118.867 319.515V346.938C118.867 351.263 115.317 354.76 110.926 354.76Z" fill="#F7F7F7"/>
<path d="M110.215 352.919H82.6733C78.9368 352.919 75.8909 349.919 75.8909 346.238V320.215C75.8909 316.534 78.9368 313.534 82.6733 313.534H110.197C113.954 313.534 116.98 316.534 116.98 320.215V346.221C116.998 349.919 113.952 352.919 110.215 352.919Z" fill="#F7F7F7"/>
<path d="M91.7536 331.846L96.9861 341.747C97.0794 341.894 97.0238 342.042 96.8731 342.042H93.6209C93.4147 342.042 93.3214 341.987 93.2281 341.804C92.0316 339.374 90.8172 336.945 89.5651 334.332H89.5275C88.4063 336.798 87.1722 339.394 85.9775 341.823C85.8842 341.97 85.791 342.026 85.6403 342.026H82.5603C82.3738 342.026 82.354 341.88 82.4491 341.768L87.5686 332.16L82.6177 322.443C82.5047 322.296 82.6177 322.185 82.7289 322.185H85.9434C86.13 322.185 86.2053 322.222 86.2789 322.388C87.4556 324.817 88.6521 327.321 89.7732 329.768H89.8109C90.8944 327.339 92.0908 324.817 93.2496 322.406C93.3429 322.259 93.3985 322.167 93.5869 322.167H96.5951C96.744 322.167 96.8014 322.278 96.7081 322.425L91.7536 331.846ZM97.9028 334.846C97.9028 330.558 100.8 327.208 105.396 327.208C105.788 327.208 105.993 327.208 106.368 327.245V322.368C106.368 322.257 106.461 322.185 106.554 322.185H109.507C109.656 322.185 109.693 322.239 109.693 322.331V339.228C109.693 339.724 109.693 340.35 109.787 341.032C109.787 341.143 109.749 341.178 109.638 341.235C108.068 341.971 106.423 342.302 104.854 342.302C100.798 342.318 97.901 339.853 97.9028 334.846ZM106.366 330.135C106.104 330.024 105.731 329.952 105.282 329.952C102.927 329.952 101.284 331.736 101.284 334.701C101.284 338.088 102.967 339.45 105.078 339.45C105.526 339.45 106.013 339.395 106.368 339.247V330.135H106.366Z" fill="#151515"/>
</g>
<rect x="282.178" y="191.134" width="70.5249" height="69.8667" rx="6.30915" fill="#1A1A1A"/>
<path fill-rule="evenodd" clip-rule="evenodd" d="M305.072 209.648C302.657 209.648 300.871 211.729 300.951 213.985C301.027 216.153 300.928 218.96 300.21 221.25C299.489 223.546 298.272 225.001 296.283 225.188V227.296C298.272 227.483 299.489 228.937 300.21 231.234C300.928 233.523 301.027 236.331 300.951 238.498C300.871 240.754 302.657 242.835 305.072 242.835H329.812C332.226 242.835 334.013 240.755 333.933 238.498C333.856 236.331 333.956 233.523 334.673 231.234C335.394 228.937 336.608 227.483 338.598 227.296V225.188C336.609 225 335.394 223.546 334.673 221.25C333.955 218.961 333.856 216.153 333.933 213.985C334.013 211.729 332.226 209.648 329.812 209.648H305.071H305.072ZM324.971 230.077C324.971 233.184 322.617 235.068 318.711 235.068H312.061C311.871 235.068 311.689 234.994 311.554 234.861C311.42 234.729 311.344 234.549 311.344 234.362V218.122C311.344 217.934 311.42 217.755 311.554 217.622C311.689 217.49 311.871 217.416 312.061 217.416H318.673C321.93 217.416 324.068 219.153 324.068 221.819C324.068 223.691 322.63 225.367 320.798 225.661V225.758C323.292 226.028 324.971 227.728 324.971 230.077ZM317.986 219.654H314.194V224.926H317.388C319.856 224.926 321.217 223.948 321.217 222.198C321.217 220.559 320.047 219.654 317.986 219.654ZM314.194 227.018V232.829H318.125C320.695 232.829 322.057 231.814 322.057 229.905C322.057 227.997 320.657 227.018 317.96 227.018H314.194V227.018Z" fill="#F7F7F7"/>
<rect x="170.199" y="145.267" width="87.7524" height="86.9333" rx="6.30915" fill="#1A1A1A"/>
<g clip-path="url(#clip1_118_66)">
<path d="M205.412 210.902C210.073 210.902 213.856 207.202 213.856 202.643V194.385H205.412C200.75 194.385 196.967 198.085 196.967 202.643C196.967 207.202 200.75 210.902 205.412 210.902Z" fill="#F7F7F7"/>
<path d="M196.967 186.126C196.967 181.567 200.75 177.867 205.412 177.867H213.856V194.385H205.412C200.75 194.385 196.967 190.685 196.967 186.126Z" fill="#F7F7F7"/>
<path d="M196.968 169.608C196.968 165.049 200.751 161.35 205.412 161.35H213.856V177.867H205.412C200.751 177.867 196.968 174.167 196.968 169.608Z" fill="#F7F7F7"/>
<path d="M213.856 161.35H222.3C226.962 161.35 230.745 165.049 230.745 169.608C230.745 174.167 226.962 177.867 222.3 177.867H213.856V161.35Z" fill="#F7F7F7"/>
<path d="M230.745 186.126C230.745 190.685 226.962 194.385 222.3 194.385C217.639 194.385 213.856 190.685 213.856 186.126C213.856 181.567 217.639 177.867 222.3 177.867C226.962 177.867 230.745 181.567 230.745 186.126Z" fill="#F7F7F7"/>
</g>
<rect x="6" y="179.4" width="87.7524" height="86.9333" rx="6.30915" fill="#1A1A1A"/>
<path d="M65.5143 225.19C64.0416 225.198 62.7663 225.549 61.6967 226.071C61.3018 225.296 60.9069 224.619 60.8411 224.113C60.7671 223.526 60.6766 223.167 60.7671 222.466C60.8575 221.765 61.2689 220.77 61.2689 220.688C61.2606 220.615 61.1783 220.256 60.331 220.248C59.4836 220.24 58.7513 220.411 58.669 220.631C58.5867 220.851 58.4222 221.357 58.3152 221.879C58.1671 222.645 56.6204 225.361 55.74 226.788C55.452 226.234 55.2052 225.744 55.1558 225.353C55.0818 224.766 54.9912 224.407 55.0818 223.706C55.1723 223.004 55.5837 222.009 55.5837 221.928C55.5755 221.854 55.4932 221.495 54.6458 221.487C53.7983 221.479 53.0662 221.65 52.9839 221.871C52.9016 222.091 52.8111 222.613 52.6301 223.118C52.4572 223.624 50.4004 228.158 49.8656 229.341C49.5941 229.944 49.3556 230.426 49.1827 230.752C49.0099 231.078 49.1745 230.776 49.158 230.809C49.0099 231.086 48.9276 231.241 48.9276 231.241V231.249C48.8125 231.453 48.689 231.649 48.6314 231.649C48.5902 231.649 48.508 231.102 48.6478 230.352C48.9522 228.778 49.6927 226.323 49.6846 226.234C49.6846 226.193 49.8244 225.761 49.2073 225.541C48.6067 225.32 48.3929 225.687 48.3434 225.687C48.294 225.687 48.2529 225.818 48.2529 225.818C48.2529 225.818 48.9193 223.053 46.9776 223.053C45.76 223.053 44.0816 224.366 43.2506 225.565C42.724 225.851 41.6051 226.454 40.4203 227.098C39.9678 227.343 39.4988 227.604 39.0546 227.84L38.9641 227.742C36.6111 225.255 32.2587 223.493 32.4397 220.15C32.5055 218.935 32.9334 215.73 40.799 211.848C47.2411 208.667 52.3997 209.54 53.2964 211.481C54.5717 214.253 50.5402 219.408 43.8431 220.15C41.2926 220.435 39.9514 219.457 39.6142 219.09C39.2604 218.706 39.211 218.69 39.0794 218.763C38.8655 218.878 38.9971 219.22 39.0794 219.424C39.2769 219.938 40.0996 220.851 41.4983 221.308C42.7241 221.707 45.719 221.928 49.3391 220.541C53.3953 218.984 56.5628 214.661 55.6331 211.048C54.687 207.37 48.5328 206.163 42.716 208.21C39.2521 209.434 35.5004 211.342 32.8017 213.846C29.593 216.814 29.0829 219.408 29.2968 220.484C30.0456 224.325 35.3852 226.829 37.5243 228.68C37.4174 228.737 37.3186 228.794 37.2281 228.843C36.1586 229.365 32.0859 231.478 31.0657 233.712C29.9139 236.24 31.2467 238.059 32.1353 238.304C34.8833 239.062 37.6971 237.7 39.2192 235.457C40.733 233.215 40.552 230.303 39.8527 228.974L39.8279 228.925L40.6671 228.436C41.2102 228.118 41.745 227.824 42.2139 227.571C41.9507 228.281 41.7614 229.121 41.6628 230.344C41.5476 231.779 42.14 233.639 42.9216 234.373C43.2671 234.691 43.6785 234.699 43.9335 234.699C44.8386 234.699 45.2499 233.957 45.7025 233.068C46.2619 231.983 46.7556 230.727 46.7556 230.727C46.7556 230.727 46.1385 234.128 47.8252 234.128C48.4422 234.128 49.0593 233.337 49.339 232.929V232.937C49.339 232.937 49.3555 232.913 49.3884 232.856C49.4229 232.805 49.4558 232.753 49.4871 232.701V232.685C49.7339 232.26 50.2852 231.29 51.1079 229.683C52.1692 227.612 53.1895 225.019 53.1895 225.019C53.1895 225.019 53.2882 225.655 53.5926 226.699C53.7736 227.318 54.1685 227.995 54.4729 228.656C54.2261 228.998 54.078 229.194 54.078 229.194L54.0862 229.202C53.8888 229.463 53.6666 229.741 53.4363 230.018C52.5971 231.013 51.5933 232.146 51.4617 232.473C51.3054 232.856 51.3383 233.141 51.6427 233.37C51.8649 233.533 52.2598 233.565 52.6794 233.533C53.4363 233.484 53.9629 233.296 54.2262 233.182C54.6375 233.035 55.1065 232.815 55.559 232.489C56.3818 231.885 56.8836 231.029 56.8343 229.887C56.8096 229.259 56.6039 228.64 56.3488 228.052C56.4229 227.946 56.497 227.84 56.571 227.726C57.8709 225.842 58.8747 223.771 58.8747 223.771C58.8747 223.771 58.9734 224.407 59.2778 225.451C59.4341 225.981 59.7468 226.56 60.0265 227.131C58.8089 228.118 58.0437 229.26 57.7804 230.01C57.295 231.396 57.6735 232.024 58.3893 232.171C58.7101 232.236 59.1709 232.089 59.5164 231.943C59.9442 231.804 60.4625 231.567 60.9398 231.217C61.7625 230.613 62.5524 229.773 62.5112 228.64C62.4866 228.118 62.3467 227.604 62.1575 227.115C63.1941 226.691 64.5351 226.446 66.2383 226.65C69.8995 227.074 70.6236 229.341 70.4838 230.287C70.3439 231.233 69.5788 231.755 69.3236 231.918C69.0686 232.073 68.9863 232.13 69.011 232.244C69.0439 232.416 69.1591 232.408 69.3812 232.375C69.6856 232.326 71.3064 231.6 71.3723 229.855C71.471 227.612 69.3236 225.165 65.5143 225.19ZM37.2775 234.626C36.0681 235.939 34.365 236.436 33.6409 236.012C32.8593 235.563 33.1637 233.631 34.6529 232.236C35.5579 231.388 36.7345 230.605 37.5079 230.124C37.6806 230.018 37.9439 229.863 38.2566 229.675C38.3059 229.643 38.3388 229.626 38.3388 229.626C38.3964 229.594 38.4623 229.553 38.5281 229.512C39.0793 231.502 38.5528 233.247 37.2775 234.626ZM46.1221 228.664C45.7025 229.683 44.8139 232.301 44.2791 232.154C43.8183 232.032 43.5386 230.05 44.1885 228.093C44.5176 227.106 45.217 225.932 45.6283 225.475C46.2948 224.741 47.0188 224.497 47.1999 224.798C47.4138 225.19 46.3853 228.028 46.1221 228.664ZM53.4199 232.122C53.2389 232.212 53.0743 232.277 53.0003 232.228C52.9427 232.195 53.0742 232.073 53.0742 232.073C53.0742 232.073 53.9875 231.102 54.3495 230.654C54.5552 230.393 54.802 230.091 55.0653 229.749V229.847C55.0654 231.021 53.93 231.804 53.4199 232.122ZM59.0474 230.85C58.9157 230.752 58.9323 230.45 59.3765 229.504C59.5493 229.129 59.9442 228.501 60.6271 227.906C60.7093 228.15 60.7588 228.387 60.7505 228.607C60.7423 230.075 59.6892 230.621 59.0474 230.85Z" fill="#F7F7F7"/>
<rect x="297.79" y="51.9336" width="76.4468" height="75.7333" rx="6.30915" fill="#1A1A1A"/>
<path d="M314.608 68.5947V111.005H357.419V68.5947H314.608ZM337.906 101.671C337.906 105.799 335.459 107.683 331.895 107.683C328.675 107.683 326.811 106.035 325.856 104.038L329.133 102.078C329.764 103.186 330.337 104.123 331.723 104.123C333.042 104.123 333.883 103.612 333.883 101.614V88.0677H337.906V101.671ZM347.423 107.683C343.687 107.683 341.269 105.922 340.094 103.612L343.372 101.738C344.232 103.129 345.359 104.161 347.337 104.161C349 104.161 350.07 103.337 350.07 102.192C350.07 100.829 348.981 100.346 347.137 99.5413L346.133 99.1153C343.228 97.8941 341.307 96.351 341.307 93.1039C341.307 90.1125 343.61 87.8405 347.194 87.8405C349.755 87.8405 351.59 88.7209 352.908 91.0307L349.774 93.0187C349.086 91.7975 348.341 91.3147 347.184 91.3147C346.009 91.3147 345.264 92.0531 345.264 93.0187C345.264 94.2115 346.009 94.6943 347.739 95.4422L348.742 95.8682C352.163 97.3166 354.084 98.8029 354.084 102.135C354.084 105.714 351.236 107.683 347.423 107.683Z" fill="#F7F7F7"/>
<rect x="142.205" y="5" width="107.672" height="106.667" rx="6.30915" fill="#1A1A1A"/>
<path d="M170.199 28.4663L174.945 81.2396L196.31 88.1996L217.674 81.2396L222.42 28.4663H170.199ZM212.778 39.133L212.125 45.4396L196.446 52.013L196.405 52.0263H211.568L209.827 71.573L196.473 75.3996L183.037 71.5063L182.166 61.653H188.816L189.252 66.7596L196.405 68.533L203.844 66.4796L204.347 58.2663L181.731 58.1996V58.1863L181.704 58.1996L181.215 52.0263L196.459 45.7996L197.343 45.4396H180.63L179.841 39.133H212.778Z" fill="#F7F7F7"/>
<rect x="42.0701" y="71.1333" width="83.9839" height="83.2" rx="6.30915" fill="#1A1A1A"/>
<path d="M104.638 89.437H63.9058L68.4316 131.37L84.2718 136.029L100.112 131.37L104.638 89.437ZM95.1926 103.608H77.8678L78.2797 108.684H94.7762L93.5384 123.684L84.2764 126.718L84.1859 126.687L75.0279 123.682L74.5278 117.569H79.0129L79.2097 119.943L84.3262 121.103L89.3521 119.941L89.8861 113.523H74.1906L72.9755 98.7554H95.5954L95.1926 103.608Z" fill="#F7F7F7"/>
<defs>
<clipPath id="clip0_118_66">
<rect width="44.8452" height="43.0667" fill="white" transform="translate(74.0217 311.693)"/>
</clipPath>
<clipPath id="clip1_118_66">
<rect width="33.7847" height="49.552" fill="white" transform="translate(196.964 161.35)"/>
</clipPath>
</defs>
</svg>
