<?xml version="1.0" standalone="no"?>
<!DOCTYPE svg PUBLIC "-//W3C//DTD SVG 20010904//EN"
 "http://www.w3.org/TR/2001/REC-SVG-20010904/DTD/svg10.dtd">
<svg version="1.0" xmlns="http://www.w3.org/2000/svg"
 width="105.000000pt" height="105.000000pt" viewBox="0 0 105.000000 105.000000"
 preserveAspectRatio="xMidYMid meet">

<g transform="translate(0.000000,105.000000) scale(0.100000,-0.100000)"
fill="#000000" stroke="none">
<path d="M285 922 c-132 -78 -204 -125 -212 -142 -9 -18 -13 -90 -13 -257 l0
-233 28 -29 c39 -42 397 -244 432 -244 36 0 393 201 433 244 l27 29 0 233 c0
167 -4 239 -13 257 -19 38 -401 258 -447 258 -27 0 -83 -28 -235 -116z m458
-13 c105 -61 198 -118 205 -127 9 -12 12 -78 12 -253 0 -211 -2 -239 -17 -257
-22 -26 -379 -232 -413 -238 -19 -4 -73 22 -220 106 -107 61 -203 120 -213
132 -15 18 -17 46 -17 257 0 130 4 242 9 250 5 8 96 65 203 127 134 79 203
113 226 113 24 1 83 -28 225 -110z"/>
<path d="M375 804 c-71 -42 -138 -83 -147 -91 -16 -14 -18 -37 -18 -183 0
-118 4 -171 13 -182 20 -25 273 -168 298 -168 30 0 285 146 304 173 12 17 15
56 15 178 0 135 -2 160 -17 177 -23 26 -279 172 -301 172 -10 0 -75 -34 -147
-76z m230 -55 c65 -18 75 -32 75 -112 0 -51 -6 -83 -21 -114 -23 -47 -104
-123 -132 -123 -47 0 -126 70 -153 136 -21 50 -18 167 4 187 38 34 151 47 227
26z"/>
<path d="M420 719 c-34 -14 -40 -26 -40 -85 0 -68 40 -146 97 -187 l42 -30 33
23 c66 46 107 118 107 190 1 57 -9 78 -41 89 -38 14 -164 13 -198 0z m146 -86
c20 -48 17 -60 -17 -72 -30 -10 -31 -13 -26 -52 5 -40 5 -40 -15 -22 -51 45
-59 134 -16 188 20 25 21 26 41 8 11 -10 26 -32 33 -50z"/>
</g>
</svg>
