<svg width="71" height="70" viewBox="0 0 71 70" fill="none" xmlns="http://www.w3.org/2000/svg">
<path d="M32.66 2.31822C34.3732 1.32907 36.4841 1.32907 38.1973 2.31821L62.6207 16.4191C64.3339 17.4082 65.3893 19.2362 65.3893 21.2145V49.4162C65.3893 51.3945 64.3339 53.2225 62.6207 54.2117L38.1973 68.3125C36.4841 69.3017 34.3732 69.3017 32.66 68.3125L8.23661 54.2117C6.52336 53.2225 5.46794 51.3945 5.46794 49.4162V21.2145C5.46794 19.2362 6.52335 17.4082 8.23661 16.4191L32.66 2.31822Z" stroke="url(#paint0_linear_666_83)" stroke-opacity="0.3" stroke-width="1.10747"/>
<path d="M33.5012 12.3484C34.6936 11.6599 36.1627 11.6599 37.3552 12.3484L54.3538 22.1626C55.5462 22.851 56.2808 24.1233 56.2808 25.5002V45.1286C56.2808 46.5055 55.5462 47.7778 54.3538 48.4662L37.3552 58.2804C36.1627 58.9689 34.6936 58.9689 33.5012 58.2804L16.5025 48.4662C15.3101 47.7778 14.5755 46.5055 14.5755 45.1286V25.5002C14.5755 24.1233 15.3101 22.851 16.5025 22.1626L33.5012 12.3484Z" fill="url(#paint1_linear_666_83)" fill-opacity="0.2"/>
<path d="M27.5258 45.4293H26.3511C26.3096 42.9078 26.1952 40.5373 26.0082 38.3159H25.9977L24.2092 45.4293H23.3148L21.537 38.3159H21.5268C21.3949 40.4486 21.3118 42.8198 21.2773 45.4293H20.2065C20.2755 42.256 20.449 39.281 20.7261 36.504H22.1821L23.8766 43.0623H23.8871L25.592 36.504H26.9851C27.2902 39.7567 27.4704 42.732 27.5258 45.4293ZM32.6203 38.8442C32.1421 42.1449 31.511 44.5431 30.7279 46.0401C30.1177 47.1925 29.4492 47.7692 28.7212 47.7692C28.5271 47.7692 28.2877 47.6948 28.0039 47.547V46.7511C28.1426 46.7766 28.3054 46.7909 28.4924 46.7909C28.8324 46.7909 29.1058 46.672 29.3141 46.4336C29.5634 46.1432 29.688 45.8168 29.688 45.4556C29.688 45.2079 29.5909 44.7016 29.397 43.9349L28.1078 38.844H29.2619L30.1872 42.6515C30.3951 43.516 30.4818 44.1196 30.4471 44.4634C30.953 42.7449 31.3065 40.8712 31.5078 38.8436L32.6203 38.8442Z" fill="#F7F7F7"/>
<path d="M48.257 45.4293H44.9202V36.504H46.0427V44.3306H48.257V45.4293ZM44.0467 45.645L42.7564 44.8352C42.8709 44.7158 42.9803 44.5864 43.0788 44.4366C43.6272 43.6174 43.9008 42.4059 43.9008 40.8011C43.9008 37.8483 42.9895 36.3712 41.1666 36.3712C40.2727 36.3712 39.5753 36.7459 39.0766 37.4956C38.5286 38.3155 38.2551 39.5227 38.2551 41.1186C38.2551 42.6876 38.4975 43.8385 38.9826 44.5686C39.4264 45.2298 40.0953 45.561 40.9899 45.561C41.3237 45.561 41.6298 45.509 41.9089 45.4042L43.5886 46.6479L44.0467 45.645ZM39.867 43.6433C39.5828 43.062 39.4407 42.1284 39.4407 40.8412C39.4407 38.5939 39.9776 37.4691 41.0523 37.4691C41.6142 37.4691 42.026 37.7381 42.2893 38.275C42.573 38.8572 42.7158 39.7825 42.7158 41.0517C42.7158 43.3174 42.1785 44.4505 41.1044 44.4505C40.5423 44.4507 40.1305 44.1826 39.867 43.6433ZM37.7659 42.9554C37.7659 43.7124 37.5475 44.3333 37.1112 44.8197C36.6745 45.3041 36.0889 45.5468 35.355 45.5468C34.6686 45.5468 34.003 45.268 33.3588 44.7132L33.6605 43.9468C34.2148 44.2998 34.7166 44.4753 35.1673 44.4753C35.5902 44.4753 35.9207 44.3561 36.1603 44.1197C36.3998 43.8823 36.5426 43.5495 36.5426 43.1287C36.5426 42.5984 36.2519 42.1451 35.7184 41.7655C35.2265 41.4221 34.2427 40.7038 34.2427 40.7038C33.7095 40.2096 33.4425 39.6791 33.4425 38.805C33.4425 38.0816 33.6416 37.4976 34.04 37.0533C34.4388 36.6074 34.9534 36.3851 35.5843 36.3851C36.2357 36.3851 36.8279 36.607 37.3614 37.0464L37.0908 37.8132C36.6346 37.5666 36.1842 37.4434 35.7399 37.4434C35.3802 37.4434 35.1023 37.5533 34.9092 37.7742C34.7144 37.9941 34.5943 38.2755 34.5943 38.6208C34.5943 39.1485 34.8912 39.6075 35.4392 39.9946C35.9377 40.3387 36.946 41.0693 36.946 41.0693C37.4928 41.5626 37.7659 42.0883 37.7659 42.9554Z" fill="#F7F7F7"/>
<path d="M49.6662 33.5147C48.9875 33.4927 48.462 33.5796 48.0209 33.8168C47.8936 33.8816 47.6912 33.8816 47.6735 34.0862C47.7421 34.1728 47.7501 34.3125 47.8099 34.432C47.9115 34.6476 48.0888 34.9377 48.2507 35.089C48.4284 35.2622 48.6069 35.4337 48.7939 35.5846C49.1237 35.8442 49.4975 35.9951 49.819 36.2538C50.0062 36.4042 50.1924 36.5988 50.3799 36.7607C50.472 36.847 50.5311 36.987 50.6507 37.041V37.0081C50.5908 36.9111 50.5737 36.7708 50.5149 36.6629L50.2603 36.3504C50.0142 35.9302 49.7085 35.5633 49.3786 35.2619C49.1071 35.0241 48.5133 34.7007 48.4032 34.303L48.3859 34.281C48.5725 34.2587 48.7939 34.1728 48.9711 34.1067C49.2597 34.0099 49.5227 34.0319 49.8187 33.9352C49.955 33.8918 50.0901 33.8376 50.2267 33.7843V33.687C50.0732 33.4927 49.9638 33.2346 49.8025 33.051C49.3706 32.5767 48.8948 32.1128 48.4032 31.7246C48.1399 31.5084 47.8012 31.3692 47.5209 31.1854C47.4198 31.1203 47.2496 31.0883 47.1902 30.9804C47.038 30.743 46.9525 30.4308 46.8421 30.1499C46.597 29.5572 46.3588 28.8997 46.1473 28.273C45.9943 27.8526 45.9012 27.4329 45.7147 27.0441C44.8407 25.2111 43.8916 24.1008 42.433 23.0111C42.1195 22.7843 41.7465 22.6876 41.3481 22.5685L40.7118 22.5259C40.5762 22.4502 40.4401 22.245 40.3217 22.148C39.8377 21.76 38.5917 20.9191 38.2358 22.0294C38.0065 22.7311 38.5749 23.421 38.7702 23.7769C38.9143 24.0241 39.101 24.3052 39.2019 24.5858C39.2615 24.7691 39.2784 24.9637 39.338 25.1574C39.4738 25.632 39.6007 26.1599 39.7791 26.6028C39.8722 26.8284 39.9736 27.0658 40.0926 27.2701C40.1607 27.3897 40.2792 27.4425 40.3051 27.6373C40.1869 27.852 40.1775 28.1763 40.1096 28.4459C39.8046 29.6643 39.9237 31.1738 40.3562 32.0693C40.4915 32.3389 40.8142 32.9324 41.246 32.7048C41.6283 32.5109 41.5436 31.8963 41.6534 31.3573C41.6786 31.2272 41.6621 31.1417 41.713 31.0563V31.0773C41.8312 31.3791 41.9506 31.6697 42.0602 31.9722C42.3233 32.5002 42.7814 33.0505 43.163 33.4162C43.3662 33.6113 43.5271 33.945 43.7815 34.0642V34.0319H43.7647C43.7132 33.9352 43.6379 33.8918 43.5702 33.8168C43.4172 33.6226 43.2479 33.3852 43.1292 33.17C42.7737 32.5657 42.459 31.8969 42.1798 31.2068C42.0432 30.8719 41.9254 30.5058 41.8153 30.1715C41.764 30.0425 41.764 29.8479 41.6789 29.783C41.5513 30.02 41.3654 30.2252 41.2723 30.5156C41.1109 30.98 41.0941 31.5513 41.0342 32.1454L41.0009 32.1662C40.7307 32.0799 40.6368 31.7246 40.5341 31.423C40.2801 30.6568 40.2375 29.4271 40.4578 28.5432C40.5169 28.3171 40.7722 27.6053 40.6703 27.3899C40.6193 27.1835 40.4494 27.066 40.3564 26.9035C40.247 26.6991 40.1271 26.4405 40.0508 26.2137C39.8475 25.61 39.745 24.9412 39.526 24.3378C39.4237 24.0567 39.2459 23.7657 39.102 23.5067C38.9404 23.2158 38.7626 23.0108 38.6349 22.6658C38.5926 22.5473 38.5334 22.3533 38.6013 22.2242C38.6178 22.1376 38.6523 22.1053 38.7199 22.0837C38.8298 21.9656 39.1438 22.1157 39.2538 22.1806C39.5683 22.3423 39.8311 22.4932 40.0935 22.7196C40.2123 22.8278 40.3396 23.0327 40.4919 23.0867H40.6703C40.9411 23.1618 41.2464 23.1075 41.5014 23.2051C41.9506 23.3887 42.3576 23.658 42.7226 23.9487C43.8333 24.8444 44.7492 26.1172 45.3676 27.6373C45.469 27.885 45.5122 28.1119 45.6048 28.3703C45.7834 28.8991 46.0043 29.4383 46.1816 29.9559C46.3598 30.4626 46.5296 30.9798 46.784 31.4007C46.9109 31.627 47.4208 31.7456 47.6494 31.8643C47.8184 31.961 48.0818 32.047 48.2343 32.1656C48.5228 32.3917 48.8103 32.6512 49.0815 32.8998C49.2165 33.0291 49.641 33.2987 49.6662 33.5147ZM41.0163 24.1432C40.8992 24.1417 40.7825 24.16 40.6692 24.1976V24.2192H40.6856C40.7539 24.3916 40.8726 24.5111 40.9573 24.6614C41.0256 24.8344 41.0849 25.0059 41.1517 25.1784L41.1681 25.157C41.2878 25.0494 41.3473 24.8768 41.3473 24.6178C41.2957 24.5417 41.2878 24.4671 41.2449 24.3916C41.1949 24.2835 41.0849 24.2299 41.0163 24.1432Z" fill="#F7F7F7"/>
<path d="M50.4738 45.4279H50.6496V44.3345H50.386L50.171 45.0807L49.9375 44.3345H49.6837V45.4279H49.8496V44.596H49.859L50.1037 45.4279H50.2301L50.4738 44.596V45.4279ZM49.0586 45.4279H49.2445V44.5197H49.4878V44.3341H48.805V44.5197H49.0581L49.0586 45.4279Z" fill="#F7F7F7"/>
<defs>
<linearGradient id="paint0_linear_666_83" x1="0.833008" y1="0.719727" x2="70.0243" y2="69.911" gradientUnits="userSpaceOnUse">
<stop stop-color="white"/>
<stop offset="0.765625" stop-color="white" stop-opacity="0"/>
</linearGradient>
<linearGradient id="paint1_linear_666_83" x1="11.3496" y1="11.2358" x2="59.5067" y2="59.393" gradientUnits="userSpaceOnUse">
<stop stop-color="white"/>
<stop offset="0.828125" stop-color="white" stop-opacity="0"/>
</linearGradient>
</defs>
</svg>
