<?xml version="1.0" encoding="UTF-8" standalone="no"?><!-- Generator: Gravit.io --><svg xmlns="http://www.w3.org/2000/svg" xmlns:xlink="http://www.w3.org/1999/xlink" style="isolation:isolate" viewBox="0 0 70 70" width="70pt" height="70pt"><defs><clipPath id="_clipPath_eO80BeTtXoqCcC0BDR1W18jJpZI9uAmd"><rect width="70" height="70"/></clipPath></defs><g clip-path="url(#_clipPath_eO80BeTtXoqCcC0BDR1W18jJpZI9uAmd)"><linearGradient id="_lgradient_2" x1="-0.07735018629398302" y1="-0.01269494078609076" x2="1.0146102584468772" y2="1.0792654881730006"><stop offset="0%" stop-opacity="1" style="stop-color:rgb(255,255,255)"/><stop offset="76.5625%" stop-opacity="0" style="stop-color:rgb(255,255,255)"/></linearGradient><path d=" M 31.95 2.042 C 33.663 1.053 35.774 1.053 37.487 2.042 L 61.911 16.143 C 63.624 17.132 64.679 18.96 64.679 20.939 L 64.679 49.14 C 64.679 51.119 63.624 52.947 61.911 53.936 L 37.487 68.037 C 35.774 69.026 33.663 69.026 31.95 68.037 L 7.527 53.936 C 5.813 52.947 4.758 51.119 4.758 49.14 L 4.758 20.939 C 4.758 18.96 5.813 17.132 7.527 16.143 L 31.95 2.042 L 31.95 2.042 Z " fill="none" vector-effect="non-scaling-stroke" stroke-width="1.107" stroke="url(#_lgradient_2)" stroke-opacity="0.3" stroke-linejoin="miter" stroke-linecap="butt" stroke-miterlimit="4"/><linearGradient id="_lgradient_3" x1="-0.07735246444088506" y1="-0.01269677688603188" x2="1.0146118522631036" y2="1.0792675398179572" gradientTransform="matrix(41.705,0,0,46.965,13.866,11.557)" gradientUnits="userSpaceOnUse"><stop offset="0%" stop-opacity="1" style="stop-color:rgb(255,255,255)"/><stop offset="82.8125%" stop-opacity="0" style="stop-color:rgb(255,255,255)"/></linearGradient><path d=" M 32.792 12.073 C 33.984 11.385 35.453 11.385 36.646 12.073 L 53.644 21.887 C 54.837 22.576 55.571 23.848 55.571 25.225 L 55.571 44.853 C 55.571 46.23 54.837 47.502 53.644 48.191 L 36.646 58.005 C 35.453 58.694 33.984 58.694 32.792 58.005 L 15.793 48.191 C 14.601 47.502 13.866 46.23 13.866 44.853 L 13.866 25.225 C 13.866 23.848 14.601 22.576 15.793 21.887 L 32.792 12.073 L 32.792 12.073 Z " fill="url(#_lgradient_3)" fill-opacity="0.2"/><path d=" M 34.719 20.469 C 25.44 20.469 17.896 27.003 17.896 35.039 C 17.896 43.076 25.44 49.61 34.719 49.61 C 37.663 49.61 40.422 48.949 42.814 47.811 L 30.618 33.059 L 30.618 41.391 L 28.831 41.391 L 28.831 29.985 L 30.618 29.985 L 43.892 47.242 C 48.492 44.647 51.541 40.162 51.541 35.039 C 51.541 27.003 43.997 20.469 34.719 20.469 Z  M 40.528 39.729 L 38.556 37.157 L 38.556 29.985 L 40.528 29.985 L 40.528 39.729 Z " fill="rgb(0,0,0)"/></g></svg>