<svg width="70" height="71" viewBox="0 0 70 71" fill="none" xmlns="http://www.w3.org/2000/svg">
<path d="M32.1199 2.45738C33.8332 1.46823 35.944 1.46823 37.6573 2.45738L62.0806 16.5582C63.7939 17.5474 64.8493 19.3754 64.8493 21.3537V49.5554C64.8493 51.5337 63.7939 53.3617 62.0806 54.3508L37.6573 68.4517C35.944 69.4408 33.8332 69.4408 32.1199 68.4517L7.69657 54.3508C5.98332 53.3617 4.9279 51.5337 4.9279 49.5554V21.3537C4.9279 19.3754 5.98331 17.5474 7.69657 16.5582L32.1199 2.45738Z" stroke="url(#paint0_linear_663_118)" stroke-opacity="0.3" stroke-width="1.10747"/>
<path d="M32.9616 12.488C34.1541 11.7996 35.6232 11.7996 36.8156 12.488L53.8143 22.3022C55.0067 22.9907 55.7413 24.263 55.7413 25.6399V45.2682C55.7413 46.6451 55.0067 47.9174 53.8143 48.6059L36.8156 58.4201C35.6232 59.1085 34.1541 59.1085 32.9616 58.4201L15.963 48.6059C14.7705 47.9174 14.036 46.6451 14.036 45.2682V25.6399C14.036 24.263 14.7705 22.9907 15.963 22.3022L32.9616 12.488Z" fill="url(#paint1_linear_663_118)" fill-opacity="0.2"/>
<path d="M34.8887 48.2897C34.5424 48.2899 34.2022 48.1988 33.9023 48.0257L30.7632 46.1674C30.2947 45.9052 30.523 45.8126 30.6779 45.7585C31.1762 45.6046 31.6532 45.389 32.098 45.1167C32.1353 45.0995 32.1763 45.0921 32.2172 45.0951C32.2581 45.0982 32.2975 45.1116 32.3318 45.1342L34.7439 46.5671C34.7888 46.5908 34.8388 46.6033 34.8896 46.6033C34.9404 46.6033 34.9905 46.5908 35.0354 46.5671L44.4416 41.1379C44.4856 41.1115 44.522 41.0742 44.5473 41.0295C44.5725 40.9848 44.5857 40.9343 44.5855 40.883V30.0228C44.5856 29.9707 44.5722 29.9194 44.5467 29.874C44.5211 29.8285 44.4843 29.7904 44.4398 29.7633L35.0336 24.3387C34.9892 24.3138 34.9392 24.3006 34.8883 24.3006C34.8374 24.3006 34.7873 24.3138 34.743 24.3387L25.3422 29.7652C25.2974 29.7917 25.2602 29.8293 25.2342 29.8745C25.2081 29.9196 25.1942 29.9707 25.1937 30.0228V40.8784C25.1939 40.9296 25.2076 40.9799 25.2335 41.024C25.2595 41.0682 25.2967 41.1046 25.3413 41.1296L27.9212 42.6185C29.3193 43.3171 30.1755 42.4938 30.1755 41.6669V30.9487C30.1755 30.8758 30.2045 30.8058 30.2561 30.7543C30.3077 30.7027 30.3776 30.6737 30.4506 30.6737H31.6424C31.7153 30.6737 31.7853 30.7027 31.8369 30.7543C31.8884 30.8058 31.9174 30.8758 31.9174 30.9487V41.6678C31.9174 43.5334 30.9016 44.6015 29.1322 44.6015C28.3689 44.6148 27.6175 44.4107 26.9659 44.0129L24.4933 42.5947C24.1931 42.4199 23.9441 42.1694 23.771 41.8682C23.5979 41.5671 23.5068 41.2258 23.5068 40.8784V30.0228C23.506 29.6749 23.5966 29.3329 23.7698 29.0312C23.943 28.7294 24.1925 28.4786 24.4933 28.3038L33.9004 22.8728C34.2035 22.707 34.5433 22.6201 34.8887 22.6201C35.2341 22.6201 35.574 22.707 35.877 22.8728L45.2832 28.3038C45.5834 28.4783 45.8325 28.7284 46.0057 29.0292C46.179 29.3301 46.2703 29.6711 46.2706 30.0182V40.8784C46.2701 41.2258 46.1787 41.567 46.0055 41.868C45.8322 42.1691 45.5832 42.4196 45.2832 42.5947L35.877 48.0257C35.5765 48.1991 35.2356 48.2901 34.8887 48.2897Z" fill="#83CD29"/>
<path d="M33.1045 37.2445C33.1045 37.1715 33.1335 37.1016 33.185 37.05C33.2366 36.9984 33.3066 36.9694 33.3795 36.9694H34.5961C34.6611 36.9696 34.7239 36.9929 34.7734 37.035C34.8229 37.0771 34.8559 37.1354 34.8666 37.1995C35.0499 38.4381 35.6 39.0624 38.0872 39.0624C40.0684 39.0624 40.9127 38.6141 40.9127 37.5626C40.9127 36.9566 40.6735 36.5064 37.594 36.2048C35.0197 35.95 33.4281 35.3797 33.4281 33.3225C33.4281 31.4247 35.0279 30.2925 37.7095 30.2925C40.723 30.2925 42.2146 31.3385 42.4034 33.5828C42.4063 33.6203 42.4015 33.658 42.3893 33.6935C42.377 33.729 42.3576 33.7617 42.3323 33.7894C42.307 33.8172 42.2762 33.8394 42.2419 33.8548C42.2076 33.8702 42.1706 33.8784 42.133 33.8789H40.9082C40.8467 33.8781 40.7873 33.8567 40.7395 33.8181C40.6916 33.7796 40.6581 33.7261 40.6441 33.6662C40.3517 32.3635 39.6357 31.9473 37.7104 31.9473C35.5468 31.9473 35.2956 32.7009 35.2956 33.2656C35.2956 33.9495 35.5926 34.1494 38.5135 34.5354C41.4041 34.9177 42.7775 35.4586 42.7775 37.4902C42.7775 39.5401 41.0686 40.7136 38.0881 40.7136C33.9672 40.7191 33.1045 38.8296 33.1045 37.2445Z" fill="#83CD29"/>
<defs>
<linearGradient id="paint0_linear_663_118" x1="0.292969" y1="0.858887" x2="69.4842" y2="70.0502" gradientUnits="userSpaceOnUse">
<stop stop-color="white"/>
<stop offset="0.765625" stop-color="white" stop-opacity="0"/>
</linearGradient>
<linearGradient id="paint1_linear_663_118" x1="10.8101" y1="11.3755" x2="58.9672" y2="59.5326" gradientUnits="userSpaceOnUse">
<stop stop-color="white"/>
<stop offset="0.828125" stop-color="white" stop-opacity="0"/>
</linearGradient>
</defs>
</svg>
