<?xml version="1.0" encoding="UTF-8" standalone="no"?><!-- Generator: Gravit.io --><svg xmlns="http://www.w3.org/2000/svg" xmlns:xlink="http://www.w3.org/1999/xlink" style="isolation:isolate" viewBox="0 0 70 70" width="70pt" height="70pt"><defs><clipPath id="_clipPath_KzTEGE2Tk7gqLRCIYh7v5U8ZUQ7dcmcn"><rect width="70" height="70"/></clipPath></defs><g clip-path="url(#_clipPath_KzTEGE2Tk7gqLRCIYh7v5U8ZUQ7dcmcn)"><linearGradient id="_lgradient_4" x1="-0.07735018629398302" y1="-0.01269494078609076" x2="1.0146102584468772" y2="1.0792654881730006"><stop offset="0%" stop-opacity="1" style="stop-color:rgb(255,255,255)"/><stop offset="76.5625%" stop-opacity="0" style="stop-color:rgb(255,255,255)"/></linearGradient><path d=" M 31.95 2.042 C 33.663 1.053 35.774 1.053 37.487 2.042 L 61.911 16.143 C 63.624 17.132 64.679 18.96 64.679 20.939 L 64.679 49.14 C 64.679 51.119 63.624 52.947 61.911 53.936 L 37.487 68.037 C 35.774 69.026 33.663 69.026 31.95 68.037 L 7.527 53.936 C 5.813 52.947 4.758 51.119 4.758 49.14 L 4.758 20.939 C 4.758 18.96 5.813 17.132 7.527 16.143 L 31.95 2.042 L 31.95 2.042 Z " fill="none" vector-effect="non-scaling-stroke" stroke-width="1.107" stroke="url(#_lgradient_4)" stroke-opacity="0.3" stroke-linejoin="miter" stroke-linecap="butt" stroke-miterlimit="4"/><linearGradient id="_lgradient_5" x1="-0.07735246444088506" y1="-0.01269677688603188" x2="1.0146118522631036" y2="1.0792675398179572" gradientTransform="matrix(41.705,0,0,46.965,13.866,11.557)" gradientUnits="userSpaceOnUse"><stop offset="0%" stop-opacity="1" style="stop-color:rgb(255,255,255)"/><stop offset="82.8125%" stop-opacity="0" style="stop-color:rgb(255,255,255)"/></linearGradient><path d=" M 32.792 12.073 C 33.984 11.385 35.453 11.385 36.646 12.073 L 53.644 21.887 C 54.837 22.576 55.571 23.848 55.571 25.225 L 55.571 44.853 C 55.571 46.23 54.837 47.502 53.644 48.191 L 36.646 58.005 C 35.453 58.694 33.984 58.694 32.792 58.005 L 15.793 48.191 C 14.601 47.502 13.866 46.23 13.866 44.853 L 13.866 25.225 C 13.866 23.848 14.601 22.576 15.793 21.887 L 32.792 12.073 L 32.792 12.073 Z " fill="url(#_lgradient_5)" fill-opacity="0.2"/><path d=" M 16.933 28.667 L 52.504 28.667 L 52.504 39.59 L 34.719 39.59 L 34.719 41.412 L 26.813 41.412 L 26.813 39.59 L 16.933 39.59 L 16.933 28.667 Z  M 18.91 37.771 L 22.863 37.771 L 22.863 32.308 L 24.839 32.308 L 24.839 37.771 L 26.816 37.771 L 26.816 30.489 L 18.91 30.489 L 18.91 37.771 Z  M 28.789 30.489 L 28.789 39.59 L 32.742 39.59 L 32.742 37.771 L 36.695 37.771 L 36.695 30.489 L 28.789 30.489 Z  M 32.742 32.311 L 34.719 32.311 L 34.719 35.949 L 32.742 35.949 L 32.742 32.311 Z  M 38.672 30.489 L 38.672 37.771 L 42.625 37.771 L 42.625 32.308 L 44.601 32.308 L 44.601 37.771 L 46.578 37.771 L 46.578 32.308 L 48.554 32.308 L 48.554 37.771 L 50.531 37.771 L 50.531 30.489 L 38.672 30.489 Z " fill="rgb(203,56,55)"/></g></svg>