<svg width="51" height="54" viewBox="0 0 51 54" fill="none" xmlns="http://www.w3.org/2000/svg">
<rect x="0.000244141" width="50.4773" height="54" rx="5" fill="#1A1A1A"/>
<path d="M41.3866 9.09082L31.596 12.5565L30.3041 11.2857L25.2048 10.5348L20.1055 11.2857L18.8817 12.5565L9.09106 9.09082L12.3546 15.9066L9.09106 23.531L11.6747 30.058L14.2583 35.8341L16.842 38.7221L21.1254 43.8051L25.4088 46L29.6922 43.8051L33.9756 38.7221L36.5593 35.8341L39.1429 30.058L41.3866 23.531L38.123 15.9066L41.3866 9.09082ZM35.4714 27.8631L33.7717 31.502L32.0719 33.6969L29.4882 40.2239L26.9046 42.4188H23.5051L20.9214 40.2239L18.3378 33.6969L16.638 31.502L14.9383 27.8631V20.643L20.9214 19.8921L25.2048 22.087L29.4882 19.8921L35.4714 20.643V27.8631Z" fill="#8844EE"/>
<path d="M28.6724 27.863L30.3722 28.6138V27.4009L31.1881 27.1698H32.0719L33.7717 24.9749V23.5309L29.4883 24.9749L28.6724 27.863ZM25.2049 30.0579L23.5051 29.307L21.8054 36.5271L22.6892 38.722L23.5051 40.166H24.389L25.2049 40.8591L26.0888 40.166H26.9726L27.7885 38.722L28.6724 36.5271L26.9726 29.307L25.2049 30.0579ZM20.9895 24.9749L16.7061 23.5309V24.9749L18.4058 27.1698H19.2897L20.1056 27.4009V28.6138L21.8054 27.863L20.9895 24.9749Z" fill="#8844EE"/>
</svg>
