<svg width="51" height="51" viewBox="0 0 51 51" fill="none" xmlns="http://www.w3.org/2000/svg">
<path d="M23.8799 1.25571C25.1179 0.540917 26.6433 0.540916 27.8813 1.25571L45.5305 11.4455C46.7686 12.1603 47.5312 13.4812 47.5312 14.9108V35.2903C47.5312 36.7199 46.7686 38.0409 45.5305 38.7557L27.8813 48.9455C26.6433 49.6603 25.1179 49.6603 23.8799 48.9455L6.23071 38.7557C4.99266 38.0409 4.22998 36.7199 4.22998 35.2903V14.9108C4.22998 13.4812 4.99266 12.1603 6.23071 11.4455L23.8799 1.25571Z" stroke="url(#paint0_linear_663_87)" stroke-opacity="0.3" stroke-width="0.800293"/>
<path d="M24.4882 8.50416C25.3499 8.00666 26.4115 8.00667 27.2732 8.50416L39.557 15.5962C40.4187 16.0937 40.9496 17.0131 40.9496 18.0081V32.1923C40.9496 33.1873 40.4187 34.1067 39.557 34.6042L27.2732 41.6962C26.4115 42.1937 25.3499 42.1937 24.4882 41.6962L12.2044 34.6042C11.3427 34.1067 10.8119 33.1873 10.8119 32.1923V18.0081C10.8119 17.0131 11.3427 16.0937 12.2044 15.5962L24.4882 8.50416Z" fill="url(#paint1_linear_663_87)" fill-opacity="0.2"/>
<g clip-path="url(#clip0_663_87)">
<path d="M35.2805 24.8569C35.2805 23.6114 33.7209 22.431 31.3293 21.6993C31.8816 19.2624 31.6364 17.3228 30.5554 16.7017C30.2935 16.555 29.997 16.4811 29.6969 16.4878V17.3416C29.8731 17.3416 30.0149 17.3769 30.134 17.4419C30.6549 17.7411 30.8813 18.8785 30.705 20.3426C30.6627 20.7029 30.5938 21.0821 30.5092 21.469C29.7083 21.276 28.8955 21.1366 28.0762 21.0515C27.588 20.3781 27.0555 19.738 26.4821 19.1355C27.7315 17.9746 28.9041 17.3385 29.7016 17.3385V16.4839C28.6472 16.4839 27.2678 17.2351 25.8726 18.5378C24.4783 17.2437 23.0981 16.4996 22.0445 16.4996V17.3534C22.838 17.3534 24.0146 17.9863 25.264 19.1394C24.7274 19.7034 24.1908 20.3426 23.6809 21.0515C22.8598 21.1356 22.0455 21.2764 21.2439 21.4729C21.1554 21.0899 21.0904 20.7186 21.0442 20.3622C20.864 18.8973 21.0865 17.7599 21.6043 17.4576C21.7186 17.3886 21.8682 17.3573 22.0445 17.3573V16.5035C21.7233 16.5035 21.4311 16.5724 21.1789 16.7173C20.1018 17.3385 19.8606 19.2733 20.4159 21.7032C18.0323 22.4396 16.4805 23.6154 16.4805 24.8569C16.4805 26.1024 18.0401 27.2829 20.4316 28.0138C19.8794 30.4515 20.1245 32.391 21.2055 33.0114C21.4546 33.1571 21.746 33.2261 22.0672 33.2261C23.1216 33.2261 24.501 32.4749 25.8961 31.1722C27.2905 32.467 28.6699 33.2104 29.7243 33.2104C30.0267 33.2168 30.3254 33.1427 30.5899 32.9958C31.667 32.3754 31.9082 30.4405 31.3528 28.0106C33.7287 27.279 35.2805 26.0985 35.2805 24.8569ZM30.2906 22.3009C30.1418 22.8131 29.9693 23.3181 29.7736 23.8143C29.4534 23.1914 29.1017 22.5851 28.7201 21.9978C29.2645 22.0785 29.7893 22.1779 30.2914 22.3009H30.2906ZM28.536 26.3821C28.2375 26.8991 27.9305 27.3902 27.6124 27.8461C26.4627 27.9475 25.3063 27.9488 24.1564 27.8501C23.4967 26.9078 22.9199 25.9103 22.4322 24.8687C22.9191 23.8246 23.4935 22.8236 24.1493 21.8764C25.2988 21.7748 26.4549 21.7732 27.6046 21.8717C27.9226 22.3276 28.2336 22.8148 28.5321 23.3287C28.8235 23.83 29.0882 24.3392 29.3295 24.853C29.0855 25.3731 28.8208 25.8832 28.536 26.3821V26.3821ZM29.7736 25.8839C29.9804 26.397 30.1575 26.9108 30.3024 27.409C29.8011 27.532 29.2715 27.6354 28.724 27.7153C29.1041 27.1227 29.4544 26.5114 29.7736 25.8839V25.8839ZM25.8883 29.9729C25.5319 29.6047 25.1755 29.195 24.823 28.7462C25.1676 28.7619 25.5201 28.7736 25.8766 28.7736C26.2369 28.7736 26.5933 28.7658 26.9419 28.7462C26.5972 29.195 26.2408 29.6047 25.8883 29.9729ZM23.037 27.7153C22.5088 27.6388 21.9845 27.5379 21.4656 27.413C21.6074 26.9187 21.7836 26.4087 21.9826 25.8996C22.1401 26.2051 22.3053 26.5121 22.4855 26.8192C22.6657 27.1255 22.849 27.4247 23.037 27.7153ZM25.8687 19.741C26.2251 20.1092 26.5816 20.5188 26.9341 20.9677C26.5894 20.952 26.2369 20.9403 25.8805 20.9403C25.5201 20.9403 25.1637 20.9481 24.8151 20.9677C25.1598 20.5188 25.5162 20.1092 25.8687 19.741ZM23.0331 21.9986C22.653 22.5899 22.3027 23.1998 21.9834 23.8261C21.7822 23.3267 21.6058 22.8177 21.4546 22.3009C21.956 22.1819 22.4855 22.0785 23.0331 21.9986ZM19.5652 26.7957C18.2085 26.2176 17.3312 25.4585 17.3312 24.8569C17.3312 24.2553 18.2085 23.4924 19.5652 22.9182C19.8942 22.7764 20.2546 22.6495 20.6267 22.5312C20.8452 23.2817 21.1327 24.0634 21.4883 24.8648C21.1526 25.6185 20.8686 26.3942 20.6384 27.1866C20.2745 27.0739 19.9164 26.9434 19.5652 26.7957V26.7957ZM21.627 32.2712C21.1061 31.9735 20.8797 30.8346 21.0559 29.3713C21.0982 29.011 21.1672 28.631 21.2518 28.2441C22.0022 28.4282 22.8223 28.5699 23.6848 28.6624C24.1729 29.3358 24.7055 29.9759 25.2789 30.5784C24.0295 31.7393 22.8568 32.3754 22.0594 32.3754C21.9089 32.377 21.7604 32.3415 21.627 32.272V32.2712ZM30.7168 29.3517C30.8969 30.8158 30.6745 31.9539 30.1567 32.2563C30.0423 32.3252 29.8927 32.3558 29.7165 32.3558C28.9229 32.3558 27.7464 31.7236 26.497 30.5698C27.0335 30.0074 27.5701 29.3674 28.0801 28.6585C28.9011 28.5743 29.7154 28.4335 30.517 28.237C30.6055 28.624 30.6737 28.9953 30.7168 29.3517V29.3517ZM32.1918 26.7957C31.8628 26.9375 31.5025 27.0644 31.1304 27.1827C30.8961 26.3863 30.6083 25.6066 30.2687 24.8491C30.6212 24.0525 30.904 23.2746 31.1186 22.5273C31.4985 22.6456 31.8581 22.7764 32.1957 22.9182C33.5524 23.4963 34.4298 24.2553 34.4298 24.8569C34.4259 25.4585 33.5485 26.2215 32.1918 26.7957V26.7957Z" fill="#4ABDC8"/>
<path d="M25.8765 26.6085C26.3411 26.6085 26.7866 26.424 27.1151 26.0955C27.4435 25.767 27.6281 25.3215 27.6281 24.857C27.6281 24.3925 27.4435 23.947 27.1151 23.6185C26.7866 23.29 26.3411 23.1055 25.8765 23.1055C25.412 23.1055 24.9665 23.29 24.638 23.6185C24.3095 23.947 24.125 24.3925 24.125 24.857C24.125 25.3215 24.3095 25.767 24.638 26.0955C24.9665 26.424 25.412 26.6085 25.8765 26.6085V26.6085Z" fill="#4ABDC8"/>
</g>
<defs>
<linearGradient id="paint0_linear_663_87" x1="0.880615" y1="0.100586" x2="50.8806" y2="50.1006" gradientUnits="userSpaceOnUse">
<stop stop-color="white"/>
<stop offset="0.765625" stop-color="white" stop-opacity="0"/>
</linearGradient>
<linearGradient id="paint1_linear_663_87" x1="8.48071" y1="7.7002" x2="43.2807" y2="42.5002" gradientUnits="userSpaceOnUse">
<stop stop-color="white"/>
<stop offset="0.828125" stop-color="white" stop-opacity="0"/>
</linearGradient>
<clipPath id="clip0_663_87">
<rect width="18.8" height="18.8" fill="white" transform="translate(16.4807 15.7002)"/>
</clipPath>
</defs>
</svg>
