<svg width="71" height="71" viewBox="0 0 71 71" fill="none" xmlns="http://www.w3.org/2000/svg">
<path d="M32.7806 2.45738C34.4938 1.46823 36.6047 1.46823 38.3179 2.45738L62.7413 16.5582C64.4545 17.5474 65.5099 19.3754 65.5099 21.3537V49.5554C65.5099 51.5337 64.4545 53.3617 62.7413 54.3508L38.3179 68.4517C36.6047 69.4408 34.4938 69.4408 32.7806 68.4517L8.35722 54.3508C6.64396 53.3617 5.58855 51.5337 5.58855 49.5554V21.3537C5.58855 19.3754 6.64396 17.5474 8.35721 16.5582L32.7806 2.45738Z" stroke="url(#paint0_linear_663_87)" stroke-opacity="0.3" stroke-width="1.10747"/>
<path d="M33.6223 12.488C34.8147 11.7996 36.2838 11.7996 37.4763 12.488L54.4749 22.3022C55.6673 22.9907 56.4019 24.263 56.4019 25.6399V45.2682C56.4019 46.6451 55.6673 47.9174 54.4749 48.6059L37.4763 58.4201C36.2838 59.1085 34.8147 59.1085 33.6223 58.4201L16.6236 48.6059C15.4312 47.9174 14.6966 46.6451 14.6966 45.2682V25.6399C14.6966 24.263 15.4312 22.9907 16.6236 22.3022L33.6223 12.488Z" fill="url(#paint1_linear_663_87)" fill-opacity="0.2"/>
<g clip-path="url(#clip0_663_87)">
<path d="M48.5564 35.1176C48.5564 33.394 46.3982 31.7605 43.0888 30.748C43.853 27.3757 43.5137 24.6917 42.0178 23.8321C41.6553 23.6291 41.2451 23.5269 40.8297 23.5362V24.7177C41.0736 24.7177 41.2698 24.7665 41.4346 24.8565C42.1554 25.2706 42.4687 26.8445 42.2248 28.8705C42.1663 29.3692 42.0709 29.8938 41.9538 30.4293C40.8456 30.1623 39.7208 29.9692 38.5869 29.8515C37.9114 28.9196 37.1745 28.0338 36.381 27.2001C38.11 25.5936 39.7327 24.7134 40.8362 24.7134V23.5308C39.3772 23.5308 37.4682 24.5703 35.5376 26.373C33.6081 24.5822 31.6981 23.5524 30.2402 23.5524V24.734C31.3382 24.734 32.9664 25.6099 34.6954 27.2055C33.9528 27.986 33.2103 28.8705 32.5046 29.8515C31.3684 29.9679 30.2416 30.1628 29.1323 30.4347C29.0098 29.9047 28.9198 29.3908 28.8559 28.8976C28.6066 26.8706 28.9144 25.2966 29.6309 24.8782C29.7892 24.7828 29.9963 24.7394 30.2402 24.7394V23.5579C29.7957 23.5579 29.3914 23.6533 29.0423 23.8538C27.5518 24.7134 27.218 27.3909 27.9865 30.7534C24.6879 31.7724 22.5405 33.3995 22.5405 35.1176C22.5405 36.8412 24.6988 38.4747 28.0082 39.4861C27.244 42.8595 27.5833 45.5435 29.0792 46.402C29.4239 46.6036 29.8272 46.699 30.2716 46.699C31.7307 46.699 33.6396 45.6595 35.5702 43.8568C37.4997 45.6486 39.4086 46.6773 40.8677 46.6773C41.2862 46.6862 41.6996 46.5837 42.0655 46.3803C43.556 45.5218 43.8898 42.8443 43.1213 39.4818C46.409 38.4693 48.5564 36.8357 48.5564 35.1176ZM41.6514 31.5805C41.4454 32.2893 41.2067 32.9881 40.9359 33.6748C40.4928 32.8128 40.0062 31.9738 39.478 31.161C40.2314 31.2727 40.9576 31.4103 41.6525 31.5805H41.6514ZM39.2232 37.2281C38.8102 37.9436 38.3853 38.6232 37.9452 39.2541C36.3542 39.3944 34.754 39.3962 33.1626 39.2596C32.2498 37.9557 31.4516 36.5753 30.7767 35.1339C31.4505 33.689 32.2454 32.3038 33.1529 30.993C34.7435 30.8525 36.3433 30.8503 37.9344 30.9865C38.3745 31.6174 38.8048 32.2916 39.2178 33.0027C39.6211 33.6965 39.9875 34.4011 40.3213 35.1122C39.9837 35.8319 39.6174 36.5378 39.2232 37.2281ZM40.9359 36.5387C41.2221 37.2487 41.4671 37.9598 41.6676 38.6493C40.9739 38.8195 40.2411 38.9625 39.4834 39.0731C40.0094 38.253 40.4942 37.4071 40.9359 36.5387ZM35.5593 42.1972C35.0661 41.6877 34.5729 41.1208 34.0851 40.4996C34.562 40.5213 35.0498 40.5376 35.5431 40.5376C36.0417 40.5376 36.5349 40.5267 37.0173 40.4996C36.5403 41.1208 36.0471 41.6877 35.5593 42.1972ZM31.6136 39.0731C30.8827 38.9672 30.1571 38.8276 29.4391 38.6547C29.6353 37.9707 29.8792 37.265 30.1545 36.5604C30.3724 36.9832 30.6011 37.4081 30.8504 37.833C31.0998 38.2569 31.3534 38.6709 31.6136 39.0731ZM35.5322 28.038C36.0254 28.5475 36.5187 29.1144 37.0065 29.7356C36.5295 29.7139 36.0417 29.6976 35.5485 29.6976C35.0498 29.6976 34.5566 29.7085 34.0743 29.7356C34.5512 29.1144 35.0444 28.5475 35.5322 28.038ZM31.6082 31.1621C31.0823 31.9804 30.5975 32.8245 30.1556 33.6911C29.8772 33 29.6331 32.2956 29.4239 31.5805C30.1177 31.4158 30.8504 31.2727 31.6082 31.1621ZM26.8093 37.8005C24.9318 37.0005 23.7177 35.9501 23.7177 35.1176C23.7177 34.2851 24.9318 33.2293 26.8093 32.4347C27.2646 32.2385 27.7632 32.0629 28.2781 31.8992C28.5806 32.9377 28.9784 34.0195 29.4705 35.1284C29.0059 36.1714 28.6129 37.2449 28.2944 38.3414C27.7908 38.1855 27.2952 38.005 26.8093 37.8005ZM29.6624 45.3776C28.9415 44.9657 28.6283 43.3896 28.8722 41.3647C28.9307 40.866 29.0261 40.3403 29.1432 39.8048C30.1816 40.0595 31.3166 40.2557 32.51 40.3837C33.1856 41.3156 33.9225 42.2013 34.716 43.0351C32.987 44.6416 31.3643 45.5218 30.2608 45.5218C30.0526 45.5241 29.847 45.4749 29.6624 45.3787V45.3776ZM42.2411 41.3376C42.4904 43.3636 42.1825 44.9386 41.466 45.357C41.3078 45.4524 41.1007 45.4947 40.8568 45.4947C39.7587 45.4947 38.1306 44.6199 36.4016 43.0232C37.1441 42.2449 37.8867 41.3593 38.5924 40.3782C39.7286 40.2618 40.8554 40.067 41.9647 39.795C42.0872 40.3305 42.1815 40.8444 42.2411 41.3376ZM44.2822 37.8005C43.827 37.9967 43.3283 38.1723 42.8134 38.336C42.4893 37.2339 42.0909 36.155 41.621 35.1068C42.1088 34.0043 42.5002 32.9279 42.7972 31.8938C43.3229 32.0575 43.8205 32.2385 44.2877 32.4347C46.1652 33.2347 47.3792 34.2851 47.3792 35.1176C47.3738 35.9501 46.1597 37.0059 44.2822 37.8005Z" fill="#4ABDC8"/>
<path d="M35.543 37.542C36.1858 37.542 36.8023 37.2866 37.2569 36.832C37.7114 36.3775 37.9668 35.761 37.9668 35.1182C37.9668 34.4753 37.7114 33.8588 37.2569 33.4043C36.8023 32.9497 36.1858 32.6943 35.543 32.6943C34.9001 32.6943 34.2836 32.9497 33.8291 33.4043C33.3745 33.8588 33.1191 34.4753 33.1191 35.1182C33.1191 35.761 33.3745 36.3775 33.8291 36.832C34.2836 37.2866 34.9001 37.542 35.543 37.542Z" fill="#4ABDC8"/>
</g>
<defs>
<linearGradient id="paint0_linear_663_87" x1="0.953613" y1="0.858887" x2="70.1449" y2="70.0502" gradientUnits="userSpaceOnUse">
<stop stop-color="white"/>
<stop offset="0.765625" stop-color="white" stop-opacity="0"/>
</linearGradient>
<linearGradient id="paint1_linear_663_87" x1="11.4707" y1="11.3755" x2="59.6278" y2="59.5326" gradientUnits="userSpaceOnUse">
<stop stop-color="white"/>
<stop offset="0.828125" stop-color="white" stop-opacity="0"/>
</linearGradient>
<clipPath id="clip0_663_87">
<rect width="26.0159" height="26.0159" fill="white" transform="translate(22.5415 22.4458)"/>
</clipPath>
</defs>
</svg>
