<?xml version="1.0" encoding="UTF-8" standalone="no"?><!-- Generator: Gravit.io --><svg xmlns="http://www.w3.org/2000/svg" xmlns:xlink="http://www.w3.org/1999/xlink" style="isolation:isolate" viewBox="0 0 70 70" width="70pt" height="70pt"><defs><clipPath id="_clipPath_NnR7zZUwzpgxNzsWxbIKid5CVSMa7cum"><rect width="70" height="70"/></clipPath></defs><g clip-path="url(#_clipPath_NnR7zZUwzpgxNzsWxbIKid5CVSMa7cum)"><linearGradient id="_lgradient_6" x1="-0.07735018629398302" y1="-0.01269494078609076" x2="1.0146102584468772" y2="1.0792654881730006"><stop offset="0%" stop-opacity="1" style="stop-color:rgb(255,255,255)"/><stop offset="76.5625%" stop-opacity="0" style="stop-color:rgb(255,255,255)"/></linearGradient><path d=" M 31.95 2.042 C 33.663 1.053 35.774 1.053 37.487 2.042 L 61.911 16.143 C 63.624 17.132 64.679 18.96 64.679 20.939 L 64.679 49.14 C 64.679 51.119 63.624 52.947 61.911 53.936 L 37.487 68.037 C 35.774 69.026 33.663 69.026 31.95 68.037 L 7.527 53.936 C 5.813 52.947 4.758 51.119 4.758 49.14 L 4.758 20.939 C 4.758 18.96 5.813 17.132 7.527 16.143 L 31.95 2.042 L 31.95 2.042 Z " fill="none" vector-effect="non-scaling-stroke" stroke-width="1.107" stroke="url(#_lgradient_6)" stroke-opacity="0.3" stroke-linejoin="miter" stroke-linecap="butt" stroke-miterlimit="4"/><linearGradient id="_lgradient_7" x1="-0.07735246444088506" y1="-0.01269677688603188" x2="1.0146118522631036" y2="1.0792675398179572" gradientTransform="matrix(41.705,0,0,46.965,13.866,11.557)" gradientUnits="userSpaceOnUse"><stop offset="0%" stop-opacity="1" style="stop-color:rgb(255,255,255)"/><stop offset="82.8125%" stop-opacity="0" style="stop-color:rgb(255,255,255)"/></linearGradient><path d=" M 32.792 12.073 C 33.984 11.385 35.453 11.385 36.646 12.073 L 53.644 21.887 C 54.837 22.576 55.571 23.848 55.571 25.225 L 55.571 44.853 C 55.571 46.23 54.837 47.502 53.644 48.191 L 36.646 58.005 C 35.453 58.694 33.984 58.694 32.792 58.005 L 15.793 48.191 C 14.601 47.502 13.866 46.23 13.866 44.853 L 13.866 25.225 C 13.866 23.848 14.601 22.576 15.793 21.887 L 32.792 12.073 L 32.792 12.073 Z " fill="url(#_lgradient_7)" fill-opacity="0.2"/><g><path d=" M 50.716 43.162 C 48.863 44.139 39.265 48.103 37.218 49.192 C 35.172 50.281 34.038 50.253 32.433 49.471 C 30.829 48.69 20.623 44.558 18.77 43.664 C 17.857 43.217 17.387 42.854 17.387 42.492 L 17.387 38.946 C 17.387 38.946 30.663 36.014 32.821 35.26 C 34.978 34.479 35.697 34.451 37.523 35.121 C 39.348 35.791 50.273 37.773 52.071 38.443 L 52.071 41.933 C 52.071 42.296 51.656 42.687 50.716 43.162 L 50.716 43.162 Z " fill="rgb(164,30,17)"/><path d=" M 50.716 39.644 C 48.863 40.621 39.265 44.585 37.218 45.674 C 35.172 46.763 34.038 46.735 32.433 45.954 C 30.829 45.172 20.623 41.012 18.77 40.118 C 16.944 39.225 16.889 38.611 18.687 37.913 C 20.485 37.187 30.636 33.166 32.793 32.413 C 34.95 31.631 35.669 31.603 37.495 32.273 C 39.32 32.943 48.863 36.768 50.661 37.438 C 52.514 38.108 52.569 38.667 50.716 39.644 Z " fill="rgb(216,44,32)"/><path d=" M 50.716 37.41 C 48.863 38.387 39.265 42.352 37.218 43.441 C 35.172 44.502 34.038 44.502 32.433 43.72 C 30.829 42.938 20.623 38.778 18.77 37.885 C 17.857 37.438 17.387 37.075 17.387 36.712 L 17.387 33.166 C 17.387 33.166 30.663 30.235 32.821 29.481 C 34.978 28.699 35.697 28.671 37.523 29.342 C 39.348 30.012 50.273 31.994 52.071 32.664 L 52.071 36.154 C 52.071 36.517 51.656 36.908 50.716 37.41 L 50.716 37.41 Z " fill="rgb(164,30,17)"/><path d=" M 50.716 33.864 C 48.863 34.842 39.265 38.806 37.218 39.895 C 35.172 40.956 34.038 40.956 32.433 40.174 C 30.829 39.392 20.623 35.232 18.77 34.339 C 16.917 33.446 16.889 32.831 18.687 32.133 C 20.485 31.408 30.636 27.387 32.793 26.633 C 34.95 25.852 35.669 25.824 37.495 26.494 C 39.32 27.164 48.863 30.989 50.661 31.659 C 52.514 32.329 52.569 32.887 50.716 33.864 Z " fill="rgb(216,44,32)"/><path d=" M 50.716 31.408 C 48.863 32.385 39.265 36.349 37.218 37.438 C 35.172 38.499 34.038 38.499 32.433 37.717 C 30.829 36.964 20.623 32.804 18.77 31.91 C 17.857 31.463 17.359 31.1 17.359 30.737 L 17.359 27.192 C 17.359 27.192 30.636 24.26 32.793 23.506 C 34.95 22.725 35.669 22.697 37.495 23.367 C 39.32 24.037 50.246 26.019 52.043 26.689 L 52.043 30.179 C 52.071 30.542 51.656 30.905 50.716 31.408 Z " fill="rgb(164,30,17)"/><path d=" M 50.716 27.862 C 48.863 28.839 39.265 32.804 37.218 33.892 C 35.172 34.953 34.038 34.953 32.433 34.172 C 30.829 33.39 20.623 29.258 18.77 28.364 C 16.917 27.471 16.889 26.857 18.687 26.159 C 20.485 25.433 30.636 21.412 32.793 20.659 C 34.95 19.877 35.669 19.849 37.495 20.519 C 39.32 21.189 48.863 25.014 50.661 25.684 C 52.514 26.354 52.569 26.913 50.716 27.862 Z " fill="rgb(216,44,32)"/><path d=" M 39.265 24.456 L 36.278 24.791 L 35.586 26.41 L 34.508 24.595 L 31.05 24.288 L 33.623 23.339 L 32.848 21.887 L 35.282 22.836 L 37.55 22.082 L 36.942 23.59 L 39.265 24.456 Z  M 35.421 32.385 L 29.806 30.039 L 37.855 28.811 L 35.421 32.385 Z " fill="rgb(255,255,255)"/><ellipse vector-effect="non-scaling-stroke" cx="27.648411389560227" cy="27.05211275050032" rx="4.287114138843016" ry="1.675164045999928" fill="rgb(255,255,255)"/><path d=" M 42.833 24.902 L 47.59 26.801 L 42.833 28.699 L 42.833 24.902 Z " fill="rgb(122,12,0)"/><path d=" M 37.578 27.024 L 42.833 24.902 L 42.833 28.699 L 42.308 28.923 L 37.578 27.024 Z " fill="rgb(173,33,21)"/></g></g></svg>