<svg width="50" height="54" viewBox="0 0 50 54" fill="none" xmlns="http://www.w3.org/2000/svg">
<rect width="50" height="54" rx="5" fill="#1A1A1A"/>
<path d="M15.2362 25.028C15.2362 25.028 9.67422 45.4851 31.9672 45.6632C38.9617 43.0637 44.1157 36.6914 44.8969 29.0087C44.9507 28.4774 44.9666 27.9351 44.9784 27.3924C44.9808 27.2492 45 27.1105 45 26.9669C45 26.3481 44.9621 25.7383 44.9075 25.1334C39.0179 48.2786 12.9622 39.2132 15.2362 25.028Z" fill="#F7F7F7"/>
<path d="M26.7629 17.4344C26.7629 17.4344 6.00707 11.6483 6.32617 34.2411C7.39025 36.9713 9.04154 39.4351 11.1635 41.4588C11.2524 41.543 11.3445 41.6227 11.4345 41.7053C12.0347 42.2577 12.6681 42.773 13.3312 43.2484C13.4343 43.3216 13.5309 43.403 13.6344 43.4746C14.3358 43.9533 15.0672 44.3868 15.824 44.7723C16.0441 44.8854 16.2699 44.9887 16.4928 45.0941C17.1441 45.4001 17.8117 45.6705 18.4925 45.904C18.6596 45.961 18.8194 46.0322 18.9889 46.0855C19.8051 46.3346 20.6365 46.5308 21.4781 46.6729C21.7324 46.7177 21.9899 46.7547 22.2475 46.7901C23.1204 46.9162 24.0007 46.9845 24.883 46.9947C24.9168 46.9947 24.9494 47 24.9832 47C25.6483 47 26.3052 46.9642 26.9528 46.9007C3.66419 41.3567 12.5161 15.3601 26.7629 17.4344Z" fill="#F7F7F7"/>
<path d="M34.8531 28.1486C34.8531 28.1486 39.7638 7.48243 17.6595 8.40508C10.2473 11.328 5 18.5274 5 26.9647C5.00693 27.8731 5.07539 28.7803 5.20539 29.6794C9.85733 6.2982 36.3601 13.8706 34.8531 28.1486Z" fill="#F7F7F7"/>
<path d="M24.2398 37.0424C24.2398 37.0424 45.0319 39.7518 43.7307 20.018C40.9008 12.422 33.5942 7 25.0003 7C23.7833 7.00474 22.5693 7.11993 21.3733 7.34416C44.5412 10.1833 38.5196 37.2442 24.2398 37.0424Z" fill="#F7F7F7"/>
<path d="M30.7716 26.9672C30.7716 28.4504 30.1813 29.8728 29.1307 30.9215C28.08 31.9702 26.6551 32.5593 25.1693 32.5593C23.6836 32.5592 22.2587 31.97 21.2081 30.9212C20.1576 29.8724 19.5674 28.45 19.5674 26.9668C19.5674 25.4837 20.1577 24.0612 21.2083 23.0125C22.2589 21.9637 23.6838 21.3745 25.1695 21.3745C26.6553 21.3745 28.0802 21.9637 29.1308 23.0125C30.1814 24.0612 30.7716 25.4841 30.7716 26.9672Z" fill="#F7F7F7"/>
</svg>
