<svg width="50" height="54" viewBox="0 0 50 54" fill="none" xmlns="http://www.w3.org/2000/svg">
<rect width="50" height="54" rx="5" fill="#1A1A1A"/>
<path d="M42.15 14.8962L42.3702 14.5149L42.15 14.8962C43.2446 15.5423 43.9151 16.7441 43.8997 18.0412L43.6842 36.1462C43.6691 37.3964 43.0187 38.546 41.9712 39.1818L26.743 48.4253C25.6567 49.0846 24.3078 49.0929 23.214 48.4474L7.80103 39.3493L7.57574 39.7394L7.80101 39.3493C6.73134 38.718 6.06457 37.5543 6.0512 36.2868L5.68018 36.2908L6.0512 36.2868L5.85744 17.9401C5.84362 16.6309 6.52853 15.4208 7.64005 14.781L23.2777 5.77919V5.77918C24.3533 5.15997 25.668 5.16722 26.7371 5.79826L42.15 14.8962Z" fill="#121214"/>
<path d="M42.15 14.8962L42.3702 14.5149L42.15 14.8962ZM42.15 14.8962C43.2446 15.5423 43.9151 16.7441 43.8997 18.0412L43.6842 36.1462C43.6691 37.3964 43.0187 38.546 41.9712 39.1818L26.743 48.4253C25.6567 49.0846 24.3078 49.0929 23.214 48.4474L7.80103 39.3493L7.57574 39.7394L7.80101 39.3493C6.73134 38.718 6.06457 37.5543 6.0512 36.2868L5.68018 36.2908L6.0512 36.2868L5.85744 17.9401C5.84362 16.6309 6.52853 15.4208 7.64005 14.781L23.2777 5.77919V5.77918C24.3533 5.15997 25.668 5.16722 26.7371 5.79826L42.15 14.8962Z" stroke="url(#paint0_linear_1003_77)" stroke-width="2.03186"/>
<path d="M38.008 17.9536L26.4483 11.3576C25.5393 10.8389 24.4208 10.833 23.5062 11.3419L11.778 17.8682C10.8334 18.3939 10.2536 19.3863 10.2653 20.4576L10.4106 33.759C10.422 34.7963 10.9864 35.7506 11.8955 36.2692L23.4551 42.8654C24.3853 43.3961 25.5328 43.389 26.4563 42.8472L37.8776 36.1457C38.7677 35.6234 39.3183 34.6806 39.3311 33.6576L39.4926 20.5314C39.5057 19.47 38.9381 18.4843 38.008 17.9536Z" fill="url(#paint1_linear_1003_77)"/>
<path d="M37.8168 36.3843C35.272 41.2204 30.5113 44.2244 25.3073 44.2244C20.1034 44.2244 15.3426 41.2339 12.7979 36.3843H37.8168Z" fill="url(#paint2_radial_1003_77)"/>
<path d="M28.8544 16.611V19.7498C28.5454 19.906 27.2325 20.5307 25.3017 20.5307C23.3709 20.5307 22.0579 19.9216 21.749 19.7498V16.611C21.749 14.331 24.2668 9.02148 25.3017 9.02148C26.352 9.02148 28.8544 14.331 28.8544 16.611Z" fill="white"/>
<path d="M27.4954 14.486C27.3563 14.3767 26.7384 13.8926 25.3019 13.8926C23.8654 13.8926 23.2475 14.3611 23.1085 14.486C23.0931 14.5016 23.0776 14.5172 23.0776 14.5485V14.9545C23.0776 15.017 23.1549 15.0638 23.2012 15.017C23.4484 14.8452 24.0817 14.5172 25.2865 14.5172C26.4913 14.5172 27.1246 14.8452 27.3717 15.017C27.4335 15.0482 27.4954 15.017 27.4954 14.9545V14.5485C27.5262 14.5328 27.5262 14.5016 27.4954 14.486Z" fill="#4763FF"/>
<path d="M28.853 28.1514C28.853 28.1514 33.1317 31.6025 33.3943 36.5372C33.4097 36.8183 33.1471 37.0213 32.8845 36.9433C31.6333 36.5528 30.7684 34.8819 28.853 34.8819V28.1514Z" fill="#4763FF"/>
<path d="M21.7641 28.1514C21.7641 28.1514 17.4854 31.6025 17.2228 36.5372C17.2074 36.8183 17.4699 37.0213 17.7326 36.9433C18.9837 36.5528 19.8487 34.8819 21.7641 34.8819V28.1514Z" fill="#4763FF"/>
<path d="M28.8544 21.7798C28.8544 26.98 28.8544 34.8818 28.8544 34.8818H21.749C21.749 34.8818 21.749 26.98 21.749 21.7798C22.0579 21.9359 23.3709 22.5606 25.3017 22.5606C27.2325 22.5606 28.5454 21.9516 28.8544 21.7798Z" fill="white"/>
<path d="M25.3005 28.1514C24.9144 28.1514 24.4355 32.274 24.4355 36.709C24.4355 37.4118 24.868 38.0989 25.3005 38.0989C25.7331 38.0989 26.1655 37.3962 26.1655 36.709C26.181 32.274 25.7022 28.1514 25.3005 28.1514Z" fill="#4763FF"/>
<path d="M25.3017 34.8818H21.749L22.5213 36.5528C22.5213 36.5528 24.6375 36.7714 25.3017 36.7714C25.9659 36.7714 28.0821 36.5528 28.0821 36.5528L28.8544 34.8818H25.3017Z" fill="#4763FF"/>
<path d="M25.4861 7.83479V6.8822H25.8878V5.78906H15.585V34.2887H16.2801V31.9462L17.8401 30.369L18.9214 31.4621L18.9523 31.4934L19.3539 30.8843L18.3344 29.8536L19.3539 28.823V29.8536H20.049V6.86658H25.1V7.81917C24.7447 7.89725 24.4976 8.20957 24.4976 8.59998C24.4976 8.86546 24.6366 9.11532 24.8374 9.25586C24.8837 9.28709 24.9301 9.31832 24.9764 9.33394V9.91175H25.5788V9.33394C25.6252 9.31832 25.6869 9.28709 25.7333 9.25586C25.9341 9.11532 26.0731 8.88107 26.0731 8.59998C26.0886 8.22519 25.8259 7.91287 25.4861 7.83479ZM19.3539 6.86658L17.8556 8.38136L16.3573 6.86658H19.3539ZM19.3693 7.86602V9.91175L18.3499 8.88107L19.3693 7.86602ZM16.2955 7.81917L17.3613 8.89669L16.2955 9.97421V7.81917ZM16.2955 10.9736L17.8556 9.3964L19.3693 10.9268V11.0674L17.8556 12.5977L16.2955 11.0205V10.9736ZM19.3693 12.0512V14.0969L18.3499 13.0662L19.3693 12.0512ZM16.2955 12.0043L17.3613 13.0818L16.2955 14.1594V12.0043ZM16.2955 16.1895L17.3613 17.267L16.2955 18.3445V16.1895ZM16.2955 20.3902L17.3613 21.4677L16.2955 22.5453V20.3902ZM16.2955 24.5754L17.3613 25.6529L16.2955 26.7304V24.5754ZM16.2955 30.9312V28.7761L17.3613 29.8536L16.2955 30.9312ZM19.3693 27.8235L17.8556 29.354L16.2955 27.7767V27.7455L17.8556 26.1682L19.3693 27.6986V27.8235ZM19.3693 26.6836L18.3499 25.6529L19.3693 24.6222V26.6836ZM19.3693 23.6228L17.8556 25.1532L16.2955 23.5759V23.5447L17.8556 21.9675L19.3693 23.4978V23.6228ZM19.3693 22.4984L18.3499 21.4677L19.3693 20.4371V22.4984ZM19.3693 19.4376L17.8556 20.968L16.2955 19.3908V19.3595L17.8556 17.7823L19.3693 19.3127V19.4376ZM19.3693 18.2977L18.3499 17.267L19.3693 16.2363V18.2977ZM19.3693 15.1119V15.2525L17.8556 16.7829L16.9751 15.8927L16.2955 15.2057V15.1744L17.8556 13.5972L19.3693 15.1119Z" fill="url(#paint3_linear_1003_77)"/>
<defs>
<linearGradient id="paint0_linear_1003_77" x1="15.4066" y1="9.5837" x2="36.0045" y2="43.5951" gradientUnits="userSpaceOnUse">
<stop stop-color="#222A5B"/>
<stop offset="1" stop-color="#4763FF" stop-opacity="0.2"/>
</linearGradient>
<linearGradient id="paint1_linear_1003_77" x1="10.2719" y1="11.052" x2="42.3767" y2="40.1181" gradientUnits="userSpaceOnUse">
<stop stop-color="#2D3B8A"/>
<stop offset="1" stop-color="#121214"/>
</linearGradient>
<radialGradient id="paint2_radial_1003_77" cx="0" cy="0" r="1" gradientUnits="userSpaceOnUse" gradientTransform="translate(25.3415 36.3642) scale(15.7224 8.76058)">
<stop stop-color="#3243A1"/>
<stop offset="0.5294" stop-color="#3243A1" stop-opacity="0"/>
</radialGradient>
<linearGradient id="paint3_linear_1003_77" x1="20.8402" y1="16.7082" x2="20.8402" y2="34.1846" gradientUnits="userSpaceOnUse">
<stop stop-color="#3F57DC"/>
<stop offset="0.677" stop-color="#3F57DC" stop-opacity="0"/>
</linearGradient>
</defs>
</svg>
