<svg width="70" height="70" viewBox="0 0 70 70" fill="none" xmlns="http://www.w3.org/2000/svg">
<path d="M32.3602 2.04234C34.0734 1.05319 36.1842 1.05319 37.8975 2.04234L62.3209 16.1432C64.0341 17.1323 65.0895 18.9603 65.0895 20.9386V49.1403C65.0895 51.1186 64.0341 52.9466 62.3209 53.9358L37.8975 68.0366C36.1843 69.0258 34.0734 69.0258 32.3602 68.0366L7.93681 53.9358C6.22355 52.9466 5.16814 51.1186 5.16814 49.1403V20.9386C5.16814 18.9604 6.22355 17.1323 7.9368 16.1432L32.3602 2.04234Z" stroke="url(#paint0_linear_663_100)" stroke-opacity="0.3" stroke-width="1.10747"/>
<path d="M33.2024 12.073C34.3948 11.3846 35.8639 11.3846 37.0563 12.073L54.055 21.8872C55.2474 22.5756 55.982 23.8479 55.982 25.2248V44.8532C55.982 46.2301 55.2474 47.5024 54.055 48.1908L37.0563 58.005C35.8639 58.6935 34.3948 58.6935 33.2024 58.005L16.2037 48.1908C15.0113 47.5024 14.2767 46.2301 14.2767 44.8532V25.2248C14.2767 23.8479 15.0113 22.5756 16.2037 21.8872L33.2024 12.073Z" fill="url(#paint1_linear_663_100)" fill-opacity="0.2"/>
<g clip-path="url(#clip0_663_100)">
<path d="M47.5404 37.0054C46.3337 37.0116 45.2848 37.3022 44.4066 37.7319C44.0842 37.0937 43.762 36.5251 43.7052 36.1081C43.642 35.6216 43.5662 35.3246 43.642 34.7433C43.7178 34.162 44.059 33.3343 44.0527 33.2711C44.0464 33.208 43.9768 32.911 43.2818 32.9047C42.5868 32.8984 41.9866 33.0374 41.917 33.2206C41.8475 33.4038 41.7149 33.8208 41.6264 34.2504C41.5063 34.8823 40.2364 37.1379 39.5099 38.3194C39.276 37.8583 39.0739 37.4539 39.0296 37.1316C38.9664 36.6452 38.8905 36.3482 38.9664 35.7669C39.0423 35.1856 39.3835 34.358 39.3771 34.2947C39.3707 34.2315 39.3012 33.9345 38.6063 33.9283C37.9111 33.9219 37.3109 34.0609 37.2415 34.2441C37.172 34.4275 37.0961 34.857 36.9509 35.2741C36.8055 35.6911 35.1185 39.4569 34.6762 40.4298C34.4975 40.8236 34.31 41.2134 34.1139 41.5988C34.1139 41.5988 34.1075 41.6178 34.0886 41.6493C34.027 41.7702 33.9638 41.8902 33.8991 42.0095V42.0157C33.8043 42.1865 33.7032 42.3443 33.6527 42.3443C33.6147 42.3443 33.5452 41.8894 33.6653 41.2702C33.918 39.9624 34.5182 37.9278 34.512 37.8583C34.512 37.8204 34.6257 37.4666 34.1203 37.2833C33.6273 37.1001 33.4505 37.4033 33.4062 37.4033C33.362 37.4033 33.3303 37.5108 33.3303 37.5108C33.3303 37.5108 33.8802 35.2235 32.2815 35.2235C31.2833 35.2235 29.9058 36.3166 29.2235 37.3022C28.4477 37.7244 27.6727 38.1477 26.8983 38.5723C26.5257 38.7808 26.1402 38.9893 25.78 39.1851C25.7547 39.1599 25.7295 39.1282 25.7041 39.103C23.7707 37.0369 20.1946 35.5773 20.3462 32.8036C20.4031 31.7927 20.7505 29.1389 27.2143 25.9166C32.5342 23.2944 36.7677 24.021 37.5006 25.6322C38.5493 27.9322 35.2323 32.2034 29.7352 32.8225C27.6376 33.0564 26.5381 32.2476 26.2602 31.9443C25.9696 31.6283 25.9253 31.6094 25.8178 31.6726C25.641 31.7675 25.7547 32.0518 25.8178 32.216C25.9822 32.6455 26.6582 33.4038 27.8018 33.7767C28.8128 34.1051 31.2706 34.2885 34.2466 33.1385C37.5763 31.8495 40.1795 28.267 39.4151 25.2658C38.6504 22.2203 33.5958 21.2157 28.8128 22.9153C25.9696 23.9264 22.8861 25.5185 20.6684 27.591C18.0336 30.055 17.6166 32.197 17.7872 33.0943C18.4002 36.2787 22.7914 38.3511 24.5479 39.8865C24.4594 39.937 24.3772 39.9813 24.3078 40.0193C23.4295 40.4552 20.0808 42.2053 19.2468 44.0566C18.2991 46.1543 19.3985 47.6582 20.1251 47.8602C22.3807 48.4858 24.6995 47.3612 25.9442 45.5035C27.1889 43.6459 27.0373 41.2323 26.4624 40.1266C26.456 40.114 26.4498 40.1012 26.437 40.0886C26.6645 39.956 26.8983 39.817 27.1258 39.6843C27.5439 39.4371 27.9674 39.1991 28.3958 38.9702C28.1809 39.5579 28.0229 40.2592 27.9472 41.2702C27.8523 42.4581 28.3388 43.9997 28.977 44.6062C29.2614 44.8718 29.5962 44.878 29.8111 44.878C30.5566 44.878 30.8916 44.2588 31.2643 43.5259C31.7192 42.6287 32.1299 41.5862 32.1299 41.5862C32.1299 41.5862 31.6181 44.4042 33.0082 44.4042C33.5136 44.4042 34.0254 43.747 34.2529 43.4122V43.4184C34.2529 43.4184 34.2655 43.3994 34.2909 43.3553C34.3414 43.2732 34.373 43.2225 34.373 43.2225V43.21C34.5751 42.8561 35.0301 42.0537 35.7062 40.7205C36.5781 39.0019 37.4185 36.8537 37.4185 36.8537C37.4185 36.8537 37.4943 37.3781 37.7533 38.2501C37.905 38.7618 38.2208 39.3242 38.4736 39.8675C38.2714 40.1519 38.145 40.3098 38.145 40.3098L38.1514 40.3162C37.987 40.5309 37.8102 40.7647 37.6143 40.9923C36.9255 41.8136 36.1043 42.7551 35.9904 43.0267C35.8576 43.3489 35.8894 43.5828 36.1422 43.7723C36.3254 43.9114 36.6538 43.9302 36.9888 43.9114C37.608 43.8671 38.0439 43.7154 38.2587 43.6207C38.5937 43.5007 38.9854 43.3173 39.3518 43.0457C40.0279 42.5465 40.4385 41.8325 40.4007 40.8912C40.3817 40.3731 40.2111 39.8549 40.0026 39.3683C40.0659 39.28 40.1226 39.1915 40.1859 39.103C41.2536 37.5423 42.0814 35.83 42.0814 35.83C42.0814 35.83 42.1573 36.3544 42.4162 37.2265C42.5427 37.6688 42.8017 38.149 43.0291 38.6164C42.0245 39.4316 41.4053 40.3793 41.1841 40.9985C40.7862 42.1485 41.0957 42.6665 41.6833 42.7866C41.9486 42.8435 42.3278 42.7171 42.6058 42.597C42.9596 42.4833 43.3767 42.2875 43.7747 41.9968C44.4509 41.4977 45.1016 40.8026 45.0636 39.8613C45.0447 39.4316 44.931 39.0082 44.773 38.5975C45.6259 38.2438 46.7254 38.0479 48.1279 38.2121C51.1356 38.5659 51.7295 40.4424 51.6157 41.2324C51.502 42.0221 50.8702 42.4518 50.6618 42.5844C50.4531 42.7172 50.3837 42.7614 50.4027 42.8561C50.4279 42.9951 50.529 42.9889 50.706 42.9635C50.9524 42.9194 52.2856 42.3253 52.3424 40.8721C52.4372 39.0145 50.668 36.9864 47.5404 37.0054ZM24.3394 44.8275C23.341 45.9142 21.9511 46.3249 21.3508 45.9775C20.7064 45.6046 20.9591 43.9997 22.1848 42.8499C22.9303 42.1485 23.8907 41.4976 24.5289 41.0996C24.6742 41.0111 24.8891 40.8848 25.1482 40.7269C25.1923 40.7015 25.2177 40.6889 25.2177 40.6889L25.3693 40.5941C25.8178 42.2369 25.3883 43.6839 24.3394 44.8275ZM31.6055 39.8865C31.258 40.7332 30.5314 42.9004 30.0892 42.7803C29.71 42.6793 29.4762 41.0365 30.0133 39.4126C30.285 38.5975 30.8599 37.6245 31.1948 37.2455C31.7382 36.6388 32.3385 36.4365 32.4837 36.6831C32.667 37.0054 31.8203 39.3557 31.6055 39.8865ZM37.6017 42.755C37.4563 42.8309 37.3174 42.8814 37.2541 42.8435C37.2099 42.8181 37.3174 42.7171 37.3174 42.7171C37.3174 42.7171 38.0693 41.9084 38.3661 41.5419C38.5369 41.3271 38.7389 41.0744 38.9538 40.79V40.8721C38.9538 41.8389 38.0186 42.4897 37.6015 42.755H37.6017ZM42.2267 41.6999C42.1192 41.624 42.1382 41.3713 42.4983 40.5815C42.6374 40.2718 42.9658 39.7538 43.5283 39.2546C43.5914 39.4568 43.6357 39.6527 43.6294 39.8359C43.623 41.0554 42.7512 41.5103 42.2267 41.6999Z" fill="#CD6799"/>
</g>
<defs>
<linearGradient id="paint0_linear_663_100" x1="0.533203" y1="0.443848" x2="69.7245" y2="69.6351" gradientUnits="userSpaceOnUse">
<stop stop-color="white"/>
<stop offset="0.765625" stop-color="white" stop-opacity="0"/>
</linearGradient>
<linearGradient id="paint1_linear_663_100" x1="11.0508" y1="10.9604" x2="59.2079" y2="59.1176" gradientUnits="userSpaceOnUse">
<stop stop-color="white"/>
<stop offset="0.828125" stop-color="white" stop-opacity="0"/>
</linearGradient>
<clipPath id="clip0_663_100">
<rect width="34.6879" height="26.0159" fill="white" transform="translate(17.6924 22.0312)"/>
</clipPath>
</defs>
</svg>
