<?xml version="1.0" encoding="UTF-8" standalone="no"?><!-- Generator: Gravit.io --><svg xmlns="http://www.w3.org/2000/svg" xmlns:xlink="http://www.w3.org/1999/xlink" style="isolation:isolate" viewBox="0 0 70 70" width="70pt" height="70pt"><defs><clipPath id="_clipPath_gsu0QFuzNM1PQMYnUPGPzNdkNDhtOIEx"><rect width="70" height="70"/></clipPath></defs><g clip-path="url(#_clipPath_gsu0QFuzNM1PQMYnUPGPzNdkNDhtOIEx)"><linearGradient id="_lgradient_10" x1="-0.07735018629398302" y1="-0.01269494078609076" x2="1.0146102584468772" y2="1.0792654881730006"><stop offset="0%" stop-opacity="1" style="stop-color:rgb(255,255,255)"/><stop offset="76.5625%" stop-opacity="0" style="stop-color:rgb(255,255,255)"/></linearGradient><path d=" M 31.95 2.042 C 33.663 1.053 35.774 1.053 37.487 2.042 L 61.911 16.143 C 63.624 17.132 64.679 18.96 64.679 20.939 L 64.679 49.14 C 64.679 51.119 63.624 52.947 61.911 53.936 L 37.487 68.037 C 35.774 69.026 33.663 69.026 31.95 68.037 L 7.527 53.936 C 5.813 52.947 4.758 51.119 4.758 49.14 L 4.758 20.939 C 4.758 18.96 5.813 17.132 7.527 16.143 L 31.95 2.042 L 31.95 2.042 Z " fill="none" vector-effect="non-scaling-stroke" stroke-width="1.107" stroke="url(#_lgradient_10)" stroke-opacity="0.3" stroke-linejoin="miter" stroke-linecap="butt" stroke-miterlimit="4"/><linearGradient id="_lgradient_11" x1="-0.07735246444088506" y1="-0.01269677688603188" x2="1.0146118522631036" y2="1.0792675398179572" gradientTransform="matrix(41.705,0,0,46.965,13.866,11.557)" gradientUnits="userSpaceOnUse"><stop offset="0%" stop-opacity="1" style="stop-color:rgb(255,255,255)"/><stop offset="82.8125%" stop-opacity="0" style="stop-color:rgb(255,255,255)"/></linearGradient><path d=" M 32.792 12.073 C 33.984 11.385 35.453 11.385 36.646 12.073 L 53.644 21.887 C 54.837 22.576 55.571 23.848 55.571 25.225 L 55.571 44.853 C 55.571 46.23 54.837 47.502 53.644 48.191 L 36.646 58.005 C 35.453 58.694 33.984 58.694 32.792 58.005 L 15.793 48.191 C 14.601 47.502 13.866 46.23 13.866 44.853 L 13.866 25.225 C 13.866 23.848 14.601 22.576 15.793 21.887 L 32.792 12.073 L 32.792 12.073 Z " fill="url(#_lgradient_11)" fill-opacity="0.2"/><g><path d=" M 45.991 29.86 L 45.991 40.154 L 34.772 45.343 L 34.671 45.415 L 34.671 49.268 L 34.772 49.342 L 50.56 42.219 L 50.56 27.86 L 50.411 27.832 L 45.943 29.776 L 45.967 29.86" fill="rgb(47,64,106)"/><path d=" M 23.518 40.247 L 34.772 45.343 L 34.772 49.342 L 18.865 42.191 L 18.865 27.888 L 19.029 27.87 L 23.471 29.885 L 23.518 30.001 L 23.518 40.247" fill="rgb(35,121,189)"/><path d=" M 23.518 29.999 L 18.865 27.888 L 34.737 20.737 L 50.572 27.86 L 45.991 29.86 L 34.737 24.847 L 23.518 29.999 Z " fill="rgb(3,175,239)"/><path d=" M 34.579 39.069 L 34.457 38.971 L 34.457 35.102 L 34.579 35.053 L 34.608 34.958 L 38.859 33.024 L 38.99 33.047 L 38.99 37.034 L 34.582 39.071" fill="rgb(47,64,106)"/><path d=" M 30.096 37.157 L 30.096 33.017 L 30.218 33.017 L 34.54 34.981 L 34.576 35.058 L 34.576 39.069 L 30.096 37.157 Z " fill="rgb(35,121,189)"/><path d=" M 34.507 30.98 L 30.096 33.017 L 34.579 35.053 L 38.987 33.045 L 34.507 30.98 Z " fill="rgb(3,175,239)"/><path d=" M 29.092 41.593 L 28.97 41.496 L 28.97 37.627 L 29.092 37.578 L 29.121 37.483 L 33.372 35.549 L 33.503 35.572 L 33.503 39.557 L 29.095 41.593" fill="rgb(47,64,106)"/><path d=" M 24.609 39.689 L 24.609 35.542 L 24.731 35.542 L 29.059 37.502 L 29.095 37.578 L 29.095 41.593 L 24.609 39.689 Z " fill="rgb(35,121,189)"/><path d=" M 29.017 33.505 L 24.609 35.542 L 29.092 37.578 L 33.5 35.57 L 29.017 33.505 Z " fill="rgb(3,175,239)"/><path d=" M 40.459 41.689 L 40.337 41.591 L 40.337 37.722 L 40.459 37.674 L 40.489 37.578 L 44.739 35.644 L 44.871 35.667 L 44.871 39.652 L 40.459 41.689 Z " fill="rgb(47,64,106)"/><path d=" M 35.976 39.778 L 35.976 35.637 L 36.098 35.637 L 40.423 37.597 L 40.459 37.674 L 40.459 41.689 L 35.976 39.778" fill="rgb(35,121,189)"/><path d=" M 40.378 33.6 L 35.97 35.637 L 40.453 37.674 L 44.862 35.665 L 40.378 33.6 Z " fill="rgb(3,175,239)"/><path d=" M 34.972 44.214 L 34.85 44.116 L 34.85 40.247 L 34.972 40.198 L 35.002 40.103 L 39.252 38.169 L 39.384 38.192 L 39.384 42.177 L 34.975 44.214" fill="rgb(47,64,106)"/><path d=" M 30.489 42.3 L 30.489 38.162 L 30.611 38.162 L 34.933 40.126 L 34.969 40.203 L 34.969 44.218 L 30.489 42.3 Z " fill="rgb(35,121,189)"/><path d=" M 34.897 36.125 L 30.489 38.162 L 34.972 40.198 L 39.381 38.19 L 34.897 36.125" fill="rgb(3,175,239)"/><path d=" M 34.579 33.582 L 34.457 33.484 L 34.457 29.616 L 34.579 29.567 L 34.608 29.471 L 38.859 27.535 L 38.99 27.558 L 38.99 31.552 L 34.582 33.589" fill="rgb(47,64,106)"/><path d=" M 30.096 31.668 L 30.096 27.53 L 30.218 27.53 L 34.54 29.495 L 34.576 29.571 L 34.576 33.582 L 30.096 31.668 Z " fill="rgb(35,121,189)"/><path d=" M 34.507 25.493 L 30.096 27.53 L 34.579 29.567 L 38.987 27.558 L 34.507 25.493 Z " fill="rgb(3,175,239)"/><path d=" M 29.092 36.107 L 28.97 36.009 L 28.97 32.14 L 29.092 32.092 L 29.121 31.996 L 33.372 30.062 L 33.503 30.085 L 33.503 34.07 L 29.095 36.107" fill="rgb(47,64,106)"/><path d=" M 24.609 34.193 L 24.609 30.053 L 24.731 30.053 L 29.059 32.017 L 29.095 32.094 L 29.095 36.107 L 24.609 34.193 Z " fill="rgb(35,121,189)"/><path d=" M 29.017 28.018 L 24.609 30.055 L 29.092 32.092 L 33.5 30.083 L 29.017 28.018 Z " fill="rgb(3,175,239)"/><path d=" M 40.459 36.202 L 40.337 36.104 L 40.337 32.236 L 40.459 32.187 L 40.489 32.092 L 44.739 30.157 L 44.871 30.18 L 44.871 34.165 L 40.459 36.202 Z " fill="rgb(47,64,106)"/><path d=" M 35.976 34.289 L 35.976 30.157 L 36.098 30.157 L 40.42 32.122 L 40.456 32.198 L 40.456 36.202 L 35.976 34.289 Z " fill="rgb(35,121,189)"/><path d=" M 40.378 28.114 L 35.976 30.157 L 40.459 32.194 L 44.868 30.185 L 40.378 28.114 Z " fill="rgb(3,175,239)"/><path d=" M 34.972 38.724 L 34.85 38.627 L 34.85 34.758 L 34.972 34.709 L 35.002 34.614 L 39.252 32.68 L 39.384 32.703 L 39.384 36.688 L 34.975 38.724" fill="rgb(47,64,106)"/><path d=" M 30.489 36.813 L 30.489 32.673 L 30.611 32.673 L 34.933 34.637 L 34.969 34.714 L 34.969 38.724 L 30.489 36.813 Z " fill="rgb(35,121,189)"/><path d=" M 34.897 30.636 L 30.489 32.673 L 34.972 34.709 L 39.381 32.701 L 34.897 30.636 Z " fill="rgb(3,175,239)"/></g></g></svg>