<?xml version="1.0" standalone="no"?>
<!DOCTYPE svg PUBLIC "-//W3C//DTD SVG 20010904//EN"
 "http://www.w3.org/TR/2001/REC-SVG-20010904/DTD/svg10.dtd">
<svg version="1.0" xmlns="http://www.w3.org/2000/svg"
 width="105.000000pt" height="105.000000pt" viewBox="0 0 105.000000 105.000000"
 preserveAspectRatio="xMidYMid meet">

<g transform="translate(0.000000,105.000000) scale(0.100000,-0.100000)"
fill="#000000" stroke="none">
<path d="M285 922 c-132 -78 -204 -125 -212 -142 -9 -18 -13 -90 -13 -257 l0
-233 28 -29 c39 -42 397 -244 432 -244 36 0 393 201 433 244 l27 29 0 233 c0
167 -4 239 -13 257 -19 38 -401 258 -447 258 -27 0 -83 -28 -235 -116z m458
-13 c105 -61 198 -118 205 -127 9 -12 12 -78 12 -253 0 -211 -2 -239 -17 -257
-22 -26 -379 -232 -413 -238 -19 -4 -73 22 -220 106 -107 61 -203 120 -213
132 -15 18 -17 46 -17 257 0 130 4 242 9 250 5 8 96 65 203 127 134 79 203
113 226 113 24 1 83 -28 225 -110z"/>
<path d="M375 804 c-71 -42 -138 -83 -147 -91 -16 -14 -18 -37 -18 -183 0
-118 4 -171 13 -182 20 -25 273 -168 298 -168 30 0 285 146 304 173 12 17 15
56 15 178 0 135 -2 160 -17 177 -23 26 -279 172 -301 172 -10 0 -75 -34 -147
-76z m291 -150 c-3 -9 -6 -20 -6 -25 0 -6 -4 -7 -10 -4 -16 10 -12 45 6 45 11
0 14 -5 10 -16z m164 -127 c0 -7 -19 -23 -43 -37 -54 -32 -57 -33 -57 -23 0 5
18 19 40 32 22 12 40 25 40 29 0 4 -18 17 -40 30 -22 12 -40 27 -40 32 0 5 23
-4 50 -21 28 -17 50 -36 50 -42z m-493 50 c-10 -7 -32 -22 -48 -33 l-30 -22
46 -26 c25 -15 45 -29 45 -32 0 -9 -24 2 -70 31 -47 30 -44 42 19 75 40 21 67
26 38 7z m194 -17 c-19 -16 -37 -27 -40 -24 -8 7 47 54 62 54 7 -1 -3 -14 -22
-30z m49 -15 c-13 -14 -28 -25 -33 -25 -6 0 0 11 13 25 13 14 28 25 33 25 6 0
0 -11 -13 -25z m20 -50 c-13 -14 -28 -25 -33 -25 -6 0 0 11 13 25 13 14 28 25
33 25 6 0 0 -11 -13 -25z"/>
</g>
</svg>
