<?xml version="1.0" encoding="UTF-8" standalone="no"?><!-- Generator: Gravit.io --><svg xmlns="http://www.w3.org/2000/svg" xmlns:xlink="http://www.w3.org/1999/xlink" style="isolation:isolate" viewBox="0 0 70 70" width="70pt" height="70pt"><defs><clipPath id="_clipPath_kqHviOcFnimOrD2N8RObvPXUZnL7GzsU"><rect width="70" height="70"/></clipPath></defs><g clip-path="url(#_clipPath_kqHviOcFnimOrD2N8RObvPXUZnL7GzsU)"><linearGradient id="_lgradient_14" x1="-0.07735018629398302" y1="-0.01269494078609076" x2="1.0146102584468772" y2="1.0792654881730006"><stop offset="0%" stop-opacity="1" style="stop-color:rgb(255,255,255)"/><stop offset="76.5625%" stop-opacity="0" style="stop-color:rgb(255,255,255)"/></linearGradient><path d=" M 31.95 2.042 C 33.663 1.053 35.774 1.053 37.487 2.042 L 61.911 16.143 C 63.624 17.132 64.679 18.96 64.679 20.939 L 64.679 49.14 C 64.679 51.119 63.624 52.947 61.911 53.936 L 37.487 68.037 C 35.774 69.026 33.663 69.026 31.95 68.037 L 7.527 53.936 C 5.813 52.947 4.758 51.119 4.758 49.14 L 4.758 20.939 C 4.758 18.96 5.813 17.132 7.527 16.143 L 31.95 2.042 L 31.95 2.042 Z " fill="none" vector-effect="non-scaling-stroke" stroke-width="1.107" stroke="url(#_lgradient_14)" stroke-opacity="0.3" stroke-linejoin="miter" stroke-linecap="butt" stroke-miterlimit="4"/><linearGradient id="_lgradient_15" x1="-0.07735246444088506" y1="-0.01269677688603188" x2="1.0146118522631036" y2="1.0792675398179572" gradientTransform="matrix(41.705,0,0,46.965,13.866,11.557)" gradientUnits="userSpaceOnUse"><stop offset="0%" stop-opacity="1" style="stop-color:rgb(255,255,255)"/><stop offset="82.8125%" stop-opacity="0" style="stop-color:rgb(255,255,255)"/></linearGradient><path d=" M 32.792 12.073 C 33.984 11.385 35.453 11.385 36.646 12.073 L 53.644 21.887 C 54.837 22.576 55.571 23.848 55.571 25.225 L 55.571 44.853 C 55.571 46.23 54.837 47.502 53.644 48.191 L 36.646 58.005 C 35.453 58.694 33.984 58.694 32.792 58.005 L 15.793 48.191 C 14.601 47.502 13.866 46.23 13.866 44.853 L 13.866 25.225 C 13.866 23.848 14.601 22.576 15.793 21.887 L 32.792 12.073 L 32.792 12.073 Z " fill="url(#_lgradient_15)" fill-opacity="0.2"/><path d=" M 36.514 25.674 C 31.934 25.674 29.073 27.877 27.927 32.285 C 29.644 30.082 31.648 29.255 33.937 29.806 C 35.244 30.12 36.178 31.032 37.213 32.043 C 38.896 33.688 40.845 35.591 45.1 35.591 C 49.68 35.591 52.541 33.388 53.687 28.979 C 51.97 31.184 49.966 32.01 47.676 31.459 C 46.37 31.145 45.437 30.233 44.401 29.222 C 42.718 27.578 40.77 25.674 36.514 25.674 L 36.514 25.674 Z  M 27.927 35.591 C 23.347 35.591 20.486 37.795 19.34 42.204 C 21.057 39.999 23.061 39.173 25.35 39.724 C 26.657 40.038 27.591 40.95 28.626 41.961 C 30.309 43.605 32.258 45.509 36.514 45.509 C 41.093 45.509 43.954 43.306 45.1 38.898 C 43.383 41.101 41.379 41.927 39.09 41.376 C 37.783 41.063 36.85 40.151 35.814 39.14 C 34.132 37.495 32.184 35.591 27.927 35.591 Z " fill="rgb(56,178,172)"/></g></svg>