<svg width="70" height="70" viewBox="0 0 70 70" fill="none" xmlns="http://www.w3.org/2000/svg">
<path d="M32.6053 2.04234C34.3185 1.05319 36.4294 1.05319 38.1426 2.04234L62.566 16.1432C64.2792 17.1323 65.3347 18.9603 65.3347 20.9386V49.1403C65.3347 51.1186 64.2792 52.9466 62.566 53.9358L38.1426 68.0366C36.4294 69.0258 34.3185 69.0258 32.6053 68.0366L8.18192 53.9358C6.46867 52.9466 5.41326 51.1186 5.41326 49.1403V20.9386C5.41326 18.9604 6.46866 17.1323 8.18192 16.1432L32.6053 2.04234Z" stroke="url(#paint0_linear_663_109)" stroke-opacity="0.3" stroke-width="1.10747"/>
<path d="M33.4465 12.073C34.6389 11.3846 36.108 11.3846 37.3005 12.073L54.2991 21.8872C55.4916 22.5756 56.2261 23.8479 56.2261 25.2248V44.8532C56.2261 46.2301 55.4916 47.5024 54.2991 48.1908L37.3005 58.005C36.108 58.6935 34.6389 58.6935 33.4465 58.005L16.4478 48.1908C15.2554 47.5024 14.5208 46.2301 14.5208 44.8532V25.2248C14.5208 23.8479 15.2554 22.5756 16.4478 21.8872L33.4465 12.073Z" fill="url(#paint1_linear_663_109)" fill-opacity="0.2"/>
<g clip-path="url(#clip0_663_109)">
<path d="M32.5395 35.7246L22.7905 45.4736C22.3203 45.9437 21.558 45.9437 21.0879 45.4736L19.9508 44.3365C19.4814 43.8671 19.4805 43.1064 19.9488 42.6359L27.6751 34.8733L19.9488 27.1107C19.4805 26.6402 19.4814 25.8795 19.9508 25.4101L21.0879 24.273C21.5581 23.8029 22.3204 23.8029 22.7905 24.273L32.5395 34.022C33.0096 34.4921 33.0096 35.2544 32.5395 35.7246ZM51.703 44.906V43.3008C51.703 42.6359 51.1639 42.0968 50.499 42.0968H35.2493C34.5843 42.0968 34.0453 42.6359 34.0453 43.3008V44.906C34.0453 45.5709 34.5843 46.1099 35.2493 46.1099H50.499C51.1639 46.1099 51.703 45.5709 51.703 44.906Z" fill="white"/>
</g>
<defs>
<linearGradient id="paint0_linear_663_109" x1="0.77832" y1="0.443848" x2="69.9696" y2="69.6351" gradientUnits="userSpaceOnUse">
<stop stop-color="white"/>
<stop offset="0.765625" stop-color="white" stop-opacity="0"/>
</linearGradient>
<linearGradient id="paint1_linear_663_109" x1="11.2949" y1="10.9604" x2="59.452" y2="59.1176" gradientUnits="userSpaceOnUse">
<stop stop-color="white"/>
<stop offset="0.828125" stop-color="white" stop-opacity="0"/>
</linearGradient>
<clipPath id="clip0_663_109">
<rect width="32.1047" height="25.6838" fill="white" transform="translate(19.5981 22.0312)"/>
</clipPath>
</defs>
</svg>
