<svg width="70" height="70" viewBox="0 0 70 70" fill="none" xmlns="http://www.w3.org/2000/svg">
<path d="M31.8353 2.04234C33.5485 1.05319 35.6593 1.05319 37.3726 2.04234L61.796 16.1432C63.5092 17.1323 64.5646 18.9603 64.5646 20.9386V49.1403C64.5646 51.1186 63.5092 52.9466 61.796 53.9358L37.3726 68.0366C35.6593 69.0258 33.5485 69.0258 31.8353 68.0366L7.41191 53.9358C5.69865 52.9466 4.64324 51.1186 4.64324 49.1403V20.9386C4.64324 18.9604 5.69864 17.1323 7.4119 16.1432L31.8353 2.04234Z" stroke="url(#paint0_linear_717_91)" stroke-opacity="0.3" stroke-width="1.10747"/>
<path d="M32.6775 12.073C33.8699 11.3846 35.339 11.3846 36.5314 12.073L53.5301 21.8872C54.7225 22.5756 55.4571 23.8479 55.4571 25.2248V44.8532C55.4571 46.2301 54.7225 47.5024 53.5301 48.1908L36.5314 58.005C35.339 58.6935 33.8699 58.6935 32.6775 58.005L15.6788 48.1908C14.4864 47.5024 13.7518 46.2301 13.7518 44.8532V25.2248C13.7518 23.8479 14.4864 22.5756 15.6788 21.8872L32.6775 12.073Z" fill="url(#paint1_linear_717_91)" fill-opacity="0.2"/>
<path d="M46.0043 24.1571C47.0906 24.4098 48.0778 24.9787 48.8412 25.7918C49.2617 26.2319 49.6268 26.7218 49.9285 27.2505C49.9425 27.3079 47.9708 28.6326 46.7751 29.3715C46.7317 29.4008 46.5594 29.2132 46.3641 28.9248C46.1457 28.5493 45.8357 28.2353 45.463 28.0122C45.0903 27.789 44.6671 27.6639 44.233 27.6486C42.8585 27.5542 41.9729 28.274 41.9793 29.4774C41.9674 29.773 42.0348 30.0665 42.1745 30.3273C42.477 30.9526 43.0385 31.3278 44.8021 32.0922C48.0487 33.4896 49.4422 34.411 50.3024 35.7203C50.7886 36.5476 51.088 37.4712 51.1797 38.4264C51.2714 39.3816 51.1532 40.3452 50.8332 41.2499C50.3936 42.242 49.6964 43.0984 48.814 43.7301C47.9317 44.3618 46.8963 44.7458 45.8154 44.8423C44.6665 44.9741 43.5056 44.9621 42.3596 44.8066C40.6042 44.5181 38.9872 43.6756 37.745 42.4023C37.2756 41.8738 36.8783 41.2854 36.5633 40.6527C36.6957 40.5541 36.8352 40.4654 36.9806 40.3872C37.1822 40.2724 37.9453 39.8334 38.6651 39.4161L39.9719 38.6504L40.245 39.0485C40.705 39.7063 41.2905 40.2667 41.9678 40.6973C42.6519 41.0725 43.4267 41.2503 44.2059 41.2109C44.9851 41.1715 45.7381 40.9164 46.3807 40.474C46.7123 40.1509 46.9195 39.7214 46.9662 39.2608C47.0128 38.8002 46.8959 38.3379 46.636 37.9549C46.2838 37.4508 45.564 37.0271 43.5183 36.1402C41.9143 35.5993 40.4532 34.7028 39.2445 33.5177C38.6688 32.8617 38.2437 32.0877 37.9989 31.25C37.818 30.2956 37.7912 29.3184 37.9198 28.3556C38.16 27.2477 38.7349 26.2404 39.5667 25.4702C40.3986 24.7 41.4471 24.2042 42.5701 24.0499C43.7137 23.9132 44.8714 23.9494 46.0043 24.1571ZM35.3573 26.0496L35.3713 27.9051H29.4627V44.684H25.2961V27.909H19.3875V26.0866C19.3718 25.4625 19.3888 24.8381 19.4385 24.2158C19.4602 24.1864 23.0526 24.1724 27.4081 24.18L35.3343 24.2017L35.3573 26.0496Z" fill="#007ACC"/>
<defs>
<linearGradient id="paint0_linear_717_91" x1="0.00830078" y1="0.443848" x2="69.1996" y2="69.6351" gradientUnits="userSpaceOnUse">
<stop stop-color="white"/>
<stop offset="0.765625" stop-color="white" stop-opacity="0"/>
</linearGradient>
<linearGradient id="paint1_linear_717_91" x1="10.5259" y1="10.9604" x2="58.683" y2="59.1176" gradientUnits="userSpaceOnUse">
<stop stop-color="white"/>
<stop offset="0.828125" stop-color="white" stop-opacity="0"/>
</linearGradient>
</defs>
</svg>
