<svg width="70" height="71" viewBox="0 0 70 71" fill="none" xmlns="http://www.w3.org/2000/svg">
<path d="M32.1946 2.45738C33.9079 1.46823 36.0187 1.46823 37.732 2.45738L62.1553 16.5582C63.8686 17.5474 64.924 19.3754 64.924 21.3537V49.5554C64.924 51.5337 63.8686 53.3617 62.1553 54.3508L37.732 68.4517C36.0187 69.4408 33.9079 69.4408 32.1946 68.4517L7.77128 54.3508C6.05803 53.3617 5.00261 51.5337 5.00261 49.5554V21.3537C5.00261 19.3754 6.05802 17.5474 7.77127 16.5582L32.1946 2.45738Z" stroke="url(#paint0_linear_663_201)" stroke-opacity="0.3" stroke-width="1.10747"/>
<path d="M33.0363 12.488C34.2288 11.7996 35.6979 11.7996 36.8903 12.488L53.889 22.3022C55.0814 22.9907 55.816 24.263 55.816 25.6399V45.2682C55.816 46.6451 55.0814 47.9174 53.889 48.6059L36.8903 58.4201C35.6979 59.1085 34.2288 59.1085 33.0363 58.4201L16.0377 48.6059C14.8452 47.9174 14.1107 46.6451 14.1107 45.2682V25.6399C14.1107 24.263 14.8452 22.9907 16.0377 22.3022L33.0363 12.488Z" fill="url(#paint1_linear_663_201)" fill-opacity="0.2"/>
<g clip-path="url(#clip0_663_201)">
<path d="M41.4674 44.7904V22.4463L47.9715 25.1519V45.7565L41.4675 48.4622L21.9556 41.8925L41.4674 44.7904ZM25.0643 37.6772L23.5816 37.1819L27.2419 33.5637L23.5817 29.9455L25.0643 29.4504L28.6623 32.1597L34.6379 26.2528L38.2154 27.7736V39.3534L34.6377 40.8741L28.6621 34.9676L25.0643 37.6771V37.6772ZM30.5267 33.5636L34.6379 36.6595V30.4677L30.5267 33.5636Z" fill="#016EC5"/>
</g>
<defs>
<linearGradient id="paint0_linear_663_201" x1="0.367676" y1="0.858887" x2="69.5589" y2="70.0502" gradientUnits="userSpaceOnUse">
<stop stop-color="white"/>
<stop offset="0.765625" stop-color="white" stop-opacity="0"/>
</linearGradient>
<linearGradient id="paint1_linear_663_201" x1="10.8848" y1="11.3755" x2="59.0419" y2="59.5326" gradientUnits="userSpaceOnUse">
<stop stop-color="white"/>
<stop offset="0.828125" stop-color="white" stop-opacity="0"/>
</linearGradient>
<clipPath id="clip0_663_201">
<rect width="26.0159" height="26.0159" fill="white" transform="translate(21.9556 22.4463)"/>
</clipPath>
</defs>
</svg>
