<svg width="70" height="71" viewBox="0 0 70 71" fill="none" xmlns="http://www.w3.org/2000/svg">
<path d="M32.535 2.45738C34.2482 1.46823 36.3591 1.46823 38.0723 2.45738L62.4957 16.5582C64.2089 17.5474 65.2643 19.3754 65.2643 21.3537V49.5554C65.2643 51.5337 64.2089 53.3617 62.4957 54.3508L38.0723 68.4517C36.3591 69.4408 34.2482 69.4408 32.535 68.4517L8.11161 54.3508C6.39836 53.3617 5.34294 51.5337 5.34294 49.5554V21.3537C5.34294 19.3754 6.39835 17.5474 8.11161 16.5582L32.535 2.45738Z" stroke="url(#paint0_linear_663_121)" stroke-opacity="0.3" stroke-width="1.10747"/>
<path d="M33.3767 12.488C34.5691 11.7996 36.0382 11.7996 37.2306 12.488L54.2293 22.3022C55.4217 22.9907 56.1563 24.263 56.1563 25.6399V45.2682C56.1563 46.6451 55.4217 47.9174 54.2293 48.6059L37.2306 58.4201C36.0382 59.1085 34.5691 59.1085 33.3767 58.4201L16.378 48.6059C15.1856 47.9174 14.451 46.6451 14.451 45.2682V25.6399C14.451 24.263 15.1856 22.9907 16.378 22.3022L33.3767 12.488Z" fill="url(#paint1_linear_663_121)" fill-opacity="0.2"/>
<g clip-path="url(#clip0_663_121)">
<path d="M43.6616 22.9995H49.4183L35.0265 48.4389L20.6348 22.9995H31.6445L35.0265 28.8985L38.3367 22.9995H43.6616Z" fill="#41B883"/>
<path d="M20.6348 22.9995L35.0265 48.4389L49.4183 22.9995H43.6616L35.0265 38.2631L26.3195 22.9995H20.6348Z" fill="#41B883"/>
<path d="M26.3198 22.9995L35.0269 38.3369L43.6619 22.9995H38.337L35.0269 28.8985L31.6448 22.9995H26.3198Z" fill="#35495E"/>
</g>
<defs>
<linearGradient id="paint0_linear_663_121" x1="0.708008" y1="0.858887" x2="69.8993" y2="70.0502" gradientUnits="userSpaceOnUse">
<stop stop-color="white"/>
<stop offset="0.765625" stop-color="white" stop-opacity="0"/>
</linearGradient>
<linearGradient id="paint1_linear_663_121" x1="11.2251" y1="11.3755" x2="59.3822" y2="59.5326" gradientUnits="userSpaceOnUse">
<stop stop-color="white"/>
<stop offset="0.828125" stop-color="white" stop-opacity="0"/>
</linearGradient>
<clipPath id="clip0_663_121">
<rect width="28.7836" height="25.4624" fill="white" transform="translate(20.6348 22.9995)"/>
</clipPath>
</defs>
</svg>
