<svg width="70" height="71" viewBox="0 0 70 71" fill="none" xmlns="http://www.w3.org/2000/svg">
<path d="M31.9498 2.45738C33.663 1.46823 35.7738 1.46823 37.4871 2.45738L61.9105 16.5582C63.6237 17.5474 64.6791 19.3754 64.6791 21.3537V49.5554C64.6791 51.5337 63.6237 53.3617 61.9105 54.3508L37.4871 68.4517C35.7739 69.4408 33.663 69.4408 31.9498 68.4517L7.52641 54.3508C5.81315 53.3617 4.75774 51.5337 4.75774 49.5554V21.3537C4.75774 19.3754 5.81315 17.5474 7.5264 16.5582L31.9498 2.45738Z" stroke="url(#paint0_linear_663_124)" stroke-opacity="0.3" stroke-width="1.10747"/>
<path d="M32.7917 12.488C33.9841 11.7996 35.4533 11.7996 36.6457 12.488L53.6444 22.3022C54.8368 22.9907 55.5713 24.263 55.5713 25.6399V45.2682C55.5713 46.6451 54.8368 47.9174 53.6444 48.6059L36.6457 58.4201C35.4533 59.1085 33.9841 59.1085 32.7917 58.4201L15.793 48.6059C14.6006 47.9174 13.8661 46.6451 13.8661 45.2682V25.6399C13.8661 24.263 14.6006 22.9907 15.793 22.3022L32.7917 12.488Z" fill="url(#paint1_linear_663_124)" fill-opacity="0.2"/>
<path d="M42.7442 48.6473H27.2454C25.8752 48.6473 24.5611 48.103 23.5923 47.1342C22.6234 46.1653 22.0791 44.8512 22.0791 43.481V27.9822C22.0791 26.612 22.6234 25.298 23.5923 24.3291C24.5611 23.3602 25.8752 22.8159 27.2454 22.8159H42.7442C44.1144 22.8159 45.4285 23.3602 46.3973 24.3291C47.3662 25.298 47.9105 26.612 47.9105 27.9822V43.481C47.9105 44.8512 47.3662 46.1653 46.3973 47.1342C45.4285 48.103 44.1144 48.6473 42.7442 48.6473ZM27.2454 25.3991C26.5603 25.3991 25.9033 25.6712 25.4188 26.1556C24.9344 26.6401 24.6622 27.2971 24.6622 27.9822V43.481C24.6622 44.1661 24.9344 44.8232 25.4188 45.3076C25.9033 45.792 26.5603 46.0642 27.2454 46.0642H42.7442C43.4293 46.0642 44.0864 45.792 44.5708 45.3076C45.0552 44.8232 45.3274 44.1661 45.3274 43.481V27.9822C45.3274 27.2971 45.0552 26.6401 44.5708 26.1556C44.0864 25.6712 43.4293 25.3991 42.7442 25.3991H27.2454ZM39.8537 41.9002C39.2952 41.9227 38.7379 41.8312 38.2159 41.6314C37.6938 41.4315 37.2179 41.1275 36.8172 40.7377C35.9782 39.7812 35.5479 38.5338 35.6186 37.2634C35.5927 36.0287 36.0331 34.8297 36.8521 33.9053C37.2802 33.4527 37.7993 33.0957 38.3751 32.8577C38.9509 32.6198 39.5706 32.5063 40.1934 32.5247H40.4943V29.9415C40.4943 29.74 40.6583 29.576 40.8598 29.5747H42.5608C42.6553 29.5712 42.7475 29.6035 42.8191 29.6651C42.8541 29.6982 42.8816 29.7384 42.8999 29.7829C42.9181 29.8274 42.9267 29.8753 42.925 29.9234V39.8414C42.9186 40.1837 42.9367 40.5259 42.9767 40.8656V40.8979C42.9787 40.98 42.9532 41.0605 42.9044 41.1265C42.8622 41.1783 42.8088 41.2199 42.7481 41.2479C41.8517 41.6758 40.8715 41.899 39.8782 41.9015L39.8537 41.9002ZM38.6706 35.2925L38.6642 35.3002C38.2551 35.8386 38.0493 36.5042 38.083 37.1795C38.0299 37.8831 38.2331 38.5822 38.6551 39.1478C39 39.5275 39.4972 39.7342 40.01 39.7084C40.1727 39.711 40.3354 39.6942 40.4943 39.6593V34.688C40.3738 34.6622 40.2508 34.6497 40.1275 34.6506C39.8519 34.6432 39.5782 34.6973 39.3262 34.809C39.0741 34.9207 38.8502 35.0872 38.6706 35.2964V35.2925ZM35.2854 41.7503H33.4113C33.315 41.7566 33.2191 41.7326 33.1371 41.6817C33.0551 41.6307 32.9911 41.5554 32.9541 41.4662L32.6829 40.8979L32.6764 40.8837L32.4117 40.3554L32.329 40.1837C31.917 39.3338 31.4921 38.4581 31.0658 37.5566C30.4732 38.8696 29.8631 40.1746 29.2357 41.4714V41.4843L29.2292 41.4959C29.186 41.5683 29.1257 41.6291 29.0536 41.6728C28.9803 41.7166 28.8961 41.739 28.8108 41.7374H27.04C26.966 41.7411 26.8927 41.7205 26.8314 41.6787C26.7702 41.637 26.7241 41.5765 26.7003 41.5062C26.6848 41.4528 26.6817 41.3964 26.6913 41.3416C26.701 41.2867 26.723 41.2348 26.7559 41.1898L29.6348 35.6864L26.8502 30.1146C26.8127 30.0604 26.7914 29.9967 26.7886 29.9308C26.7859 29.865 26.8018 29.7997 26.8347 29.7426C26.8662 29.6908 26.9106 29.648 26.9636 29.6183C27.0165 29.5887 27.0762 29.5732 27.1369 29.5734H28.989C29.079 29.5686 29.1685 29.5892 29.2473 29.6328C29.3274 29.6819 29.3894 29.7555 29.423 29.8434C30.1153 31.2964 30.699 32.5557 31.2092 33.6729C31.8434 32.2521 32.5176 30.8082 32.9696 29.8511L32.9761 29.8369L32.9838 29.824V29.8098C33.0162 29.7545 33.0567 29.7045 33.1039 29.6612C33.1839 29.5945 33.2853 29.5592 33.3894 29.5618H35.124C35.1903 29.56 35.2557 29.5775 35.3123 29.6121C35.3689 29.6467 35.4143 29.697 35.443 29.7568C35.4658 29.8116 35.475 29.8712 35.4698 29.9303C35.4647 29.9895 35.4453 30.0465 35.4133 30.0965L32.6274 35.5043L35.5747 41.1872C35.6057 41.2366 35.6252 41.2923 35.6317 41.3502C35.6382 41.4081 35.6315 41.4667 35.6122 41.5217C35.5878 41.5886 35.5433 41.6463 35.4848 41.6868C35.4262 41.7273 35.3566 41.7486 35.2854 41.7478V41.7503Z" fill="#B03AF0"/>
<defs>
<linearGradient id="paint0_linear_663_124" x1="0.122803" y1="0.858887" x2="69.3141" y2="70.0502" gradientUnits="userSpaceOnUse">
<stop stop-color="white"/>
<stop offset="0.765625" stop-color="white" stop-opacity="0"/>
</linearGradient>
<linearGradient id="paint1_linear_663_124" x1="10.6401" y1="11.3755" x2="58.7973" y2="59.5326" gradientUnits="userSpaceOnUse">
<stop stop-color="white"/>
<stop offset="0.828125" stop-color="white" stop-opacity="0"/>
</linearGradient>
</defs>
</svg>
